
<svg width="201px" height="75px" viewBox="0 0 201 75" version="1.1" xmlns="http://www.w3.org/2000/svg" xmlns:xlink="http://www.w3.org/1999/xlink">
    <!-- Generator: Sketch 49.3 (51167) - http://www.bohemiancoding.com/sketch -->
    <desc>Created with Sketch.</desc>
    <defs></defs>
    <g id="Page-1" stroke="none" stroke-width="1" fill="none" fill-rule="evenodd">
        <g id="404-Mars-Illustration" transform="translate(-299.000000, -153.000000)" fill-rule="nonzero">
            <g id="main-content" transform="translate(218.000000, 152.000000)">
                <g id="404" transform="translate(81.000000, 0.000000)">
                    <g id="Group" transform="translate(67.000000, 1.000000)">
                        <g id="Vector">
                            <g fill="#FBC02D">
                                <g id="path0_fill-link" transform="translate(34.026705, 37.235775) rotate(-74.247933) translate(-34.026705, -37.235775) translate(3.025380, 11.234649)">
                                    <path d="M30.9932248,51.9489495 C48.1103564,51.9489495 61.9864496,40.3197459 61.9864496,25.9744248 C61.9864496,11.6292036 48.1103564,0 30.9932248,0 C13.8761931,0 0,11.6292036 0,25.9744248 C0,40.3197459 13.8761931,51.9489495 30.9932248,51.9489495 Z" id="path0_fill"></path>
                                </g>
                            </g>
                            <g transform="translate(8.000000, 10.000000)" fill="#F4511E">
                                <g id="path1_fill-link" transform="translate(0.725900, 0.235000)">
                                    <path d="M12.102,-7.92444e-08 C7.18283,3.65613 3.32728,9.47269 1.33303,16.7849 C-2.52252,31.0771 2.26368,46.3663 12.102,53.8448 L23.5357,58.3318 C34.7035,59.3289 45.4724,50.8534 49.195,36.8936 C50.6575,31.5756 50.9234,25.9253 49.9927,20.7734 C42.0157,19.6101 32.8422,16.1202 29.7843,10.9684 C26.1947,5.318 18.7495,1.49569 12.102,-7.92444e-08 Z" id="path1_fill"></path>
                                </g>
                            </g>
                            <g transform="translate(8.000000, 18.000000)" fill="#FFA000">
                                <g id="path2_fill-link" transform="translate(0.757000, 0.212000)">
                                    <path d="M1.30188,8.97412 C-3.08547,25.5929 3.96088,43.3749 17.2559,49.0253 C30.5509,54.5095 44.7765,45.7016 49.2968,29.0828 C50.2275,25.4267 50.7593,21.6044 50.6263,17.9482 C45.1754,14.9569 38.6608,13.295 33.7417,14.9569 C26.4294,17.2835 10.4754,7.47844 5.02448,-1.58489e-07 C3.42908,2.659 2.23253,5.65037 1.30188,8.97412 Z" id="path2_fill"></path>
                                </g>
                            </g>
                            <g transform="translate(8.000000, 33.000000)" fill="#FBC02D">
                                <g id="path3_fill-link" transform="translate(0.801200, 0.335000)">
                                    <path d="M0.194064,1.26791e-06 C-1.26839,14.6245 5.64501,28.9166 17.2117,33.7361 C28.1136,38.3893 39.8132,33.0713 46.0618,21.7706 C37.553,20.9396 26.917,17.2835 23.4603,11.7993 C18.6741,4.32087 7.50631,0.166189 0.194064,1.26791e-06 Z" id="path3_fill"></path>
                                </g>
                            </g>
                            <g transform="translate(9.000000, 46.000000)" fill="#E64A19">
                                <g id="path4_fill-link" transform="translate(0.793000, 0.131000)">
                                    <path d="M16.2199,20.9396 C25.3934,24.7619 34.9658,21.7706 41.6133,14.1259 C36.4283,11.6331 30.5785,10.3036 26.0582,11.7993 C19.8095,13.7936 6.9134,6.6475 -2.53582e-07,-6.33955e-07 C2.26015,9.47269 8.10995,17.6159 16.2199,20.9396 Z" id="path4_fill"></path>
                                </g>
                            </g>
                        </g>
                    </g>
                    <g fill="#D84315" id="path5_fill-link">
                        <g transform="translate(100.787457, 38.582730) rotate(-0.395765) translate(-100.787457, -38.582730) translate(0.287471, 1.582735)">
                            <path d="M60.2808913,49.8999928 C60.2808913,46.4999933 61.6808911,45.0999935 65.0808906,45.0999935 L67.0808903,45.0999935 C70.2808899,45.0999935 73.3808894,43.2999938 73.3808894,39.3999943 C73.3808894,35.4999949 70.2808899,33.6999951 67.0808903,33.6999951 L65.0808906,33.6999951 C61.6808911,33.6999951 60.2808913,32.2999953 60.2808913,28.8999958 L60.2808913,7.49999892 C60.2808913,3.99999942 58.3808916,0.599999914 54.0808922,0.599999914 C49.6808928,0.599999914 47.7808931,3.99999942 47.7808931,7.49999892 L47.7808931,28.8999958 C47.7808931,32.2999953 46.3808933,33.6999951 42.9808938,33.6999951 L17.6808975,33.6999951 C14.2808979,33.6999951 12.8808981,32.2999953 12.8808981,28.8999958 L12.8808981,7.49999892 C12.8808981,3.99999942 10.9808984,0.599999914 6.58089905,0.599999914 C2.28089967,0.599999914 0.380899945,3.99999942 0.380899945,7.49999892 L0.380899945,30.5999956 C0.380899945,40.7999941 4.58089934,44.9999935 14.7808979,44.9999935 L42.9808938,45.0999935 C46.3808933,45.0999935 47.7808931,46.4999933 47.7808931,49.8999928 L47.7808931,66.4999904 C47.7808931,69.9999899 49.6808928,73.3999894 54.0808922,73.3999894 C58.3808916,73.3999894 60.2808913,69.9999899 60.2808913,66.4999904 L60.2808913,49.8999928 Z M108.772984,71.9999896 C125.772982,71.9999896 132.672981,64.9999906 132.672981,48.0999931 L132.672981,25.8999963 C132.672981,8.9999987 125.772982,1.99999971 108.772984,1.99999971 L91.2729869,1.99999971 C74.2729893,1.99999971 67.3729903,8.9999987 67.3729903,25.8999963 L67.3729903,48.0999931 C67.3729903,64.9999906 74.2729893,71.9999896 91.2729869,71.9999896 L108.772984,71.9999896 Z M91.7729868,60.5999913 C83.372988,60.5999913 79.8729885,57.0999918 79.8729885,48.799993 L79.8729885,25.1999964 C79.8729885,16.8999976 83.372988,13.3999981 91.7729868,13.3999981 L108.272984,13.3999981 C116.672983,13.3999981 120.172983,16.8999976 120.172983,25.1999964 L120.172983,48.799993 C120.172983,57.0999918 116.672983,60.5999913 108.272984,60.5999913 L91.7729868,60.5999913 Z M187.526973,49.8999928 C187.526973,46.4999933 188.926973,45.0999935 192.326972,45.0999935 L194.326972,45.0999935 C197.526972,45.0999935 200.626971,43.2999938 200.626971,39.3999943 C200.626971,35.4999949 197.526972,33.6999951 194.326972,33.6999951 L192.326972,33.6999951 C188.926973,33.6999951 187.526973,32.2999953 187.526973,28.8999958 L187.526973,7.49999892 C187.526973,3.99999942 185.626973,0.599999914 181.326974,0.599999914 C176.926975,0.599999914 175.026975,3.99999942 175.026975,7.49999892 L175.026975,28.8999958 C175.026975,32.2999953 173.626975,33.6999951 170.226975,33.6999951 L144.926979,33.6999951 C141.52698,33.6999951 140.12698,32.2999953 140.12698,28.8999958 L140.12698,7.49999892 C140.12698,3.99999942 138.22698,0.599999914 133.826981,0.599999914 C129.526981,0.599999914 127.626982,3.99999942 127.626982,7.49999892 L127.626982,30.5999956 C127.626982,40.7999941 131.826981,44.9999935 142.02698,44.9999935 L170.226975,45.0999935 C173.626975,45.0999935 175.026975,46.4999933 175.026975,49.8999928 L175.026975,66.4999904 C175.026975,69.9999899 176.926975,73.3999894 181.326974,73.3999894 C185.626973,73.3999894 187.526973,69.9999899 187.526973,66.4999904 L187.526973,49.8999928 Z" id="path5_fill"></path>
                        </g>
                    </g>
                </g>
            </g>
        </g>
    </g>
</svg>
