
<svg width="800px" height="120px" viewBox="0 0 800 120" version="1.1" xmlns="http://www.w3.org/2000/svg" xmlns:xlink="http://www.w3.org/1999/xlink">
    <!-- Generator: Sketch 49.3 (51167) - http://www.bohemiancoding.com/sketch -->
    <desc>Created with Sketch.</desc>
    <defs>
        <linearGradient x1="144.625%" y1="-0.838878333%" x2="144.625%" y2="39.9657883%" id="linearGradient-1">
            <stop stop-color="#D9AB75" offset="0%"></stop>
            <stop stop-color="#E8B689" offset="100%"></stop>
        </linearGradient>
        <linearGradient x1="100%" y1="-2.06970327%" x2="100%" y2="98.6046721%" id="linearGradient-2">
            <stop stop-color="#D9AB75" offset="0%"></stop>
            <stop stop-color="#E8B689" offset="100%"></stop>
        </linearGradient>
    </defs>
    <g id="Page-1" stroke="none" stroke-width="1" fill="none" fill-rule="evenodd">
        <g id="404-Mars-Illustration" transform="translate(0.000000, -480.000000)" fill-rule="nonzero">
            <g id="mars" transform="translate(-169.000000, 480.000000)">
                <g id="Union" fill="url(#linearGradient-2)">
                    <g id="path102_fill-link" transform="translate(0.000000, 0.260000)">
                        <path d="M1157,124.895 C1157,190.227 897.997,243.188 578.5,243.188 C259.003,243.188 0,190.227 0,124.895 C0,88.9239 78.5192,56.7026 202.423,35.0068 C240.228,28.3869 276.315,22.7469 321.631,18.2794 C411.78,6.60239 488.593,0 578.5,0 C714.729,0 835.447,21.3109 938.805,32.3418 C1075.51,46.9322 1157,87.4203 1157,124.895 Z" id="path102_fill"></path>
                    </g>
                </g>
                <g id="Group" transform="translate(29.000000, 7.000000)" fill="#FFFFFF" fill-opacity="0.1">
                    <g id="Ellipse" transform="translate(0.000000, 26.000000)">
                        <g id="path103_fill-link" transform="translate(515.233179, 200.573725) rotate(2.752123) translate(-515.233179, -200.573725) translate(8.233370, 25.073670)">
                            <path d="M1013.88962,175.313055 C1013.88962,272.135085 786.920703,350.62611 506.943808,350.62611 C226.965914,350.62611 0,272.135085 0,175.313055 C0,78.4902246 226.965914,0 506.943808,0 C786.920703,0 1013.88962,78.4902246 1013.88962,175.313055 Z" id="path103_fill"></path>
                        </g>
                    </g>
                    <g id="Ellipse" transform="translate(70.000000, 0.000000)">
                        <g id="path104_fill-link" transform="translate(501.791144, 191.413640) rotate(1.717986) translate(-501.791144, -191.413640) translate(5.791049, 15.413657)">
                            <path d="M991.95419,175.570984 C991.95419,272.535974 769.897148,351.140967 495.977095,351.140967 C222.056043,351.140967 0,272.535974 0,175.570984 C0,78.6055926 222.056043,0 495.977095,0 C769.897148,0 991.95419,78.6055926 991.95419,175.570984 Z" id="path104_fill"></path>
                        </g>
                    </g>
                    <g id="Ellipse" transform="translate(174.000000, 58.000000)">
                        <g id="path105_fill-link" transform="translate(461.727956, 181.767877) rotate(-2.202880) translate(-461.727956, -181.767877) translate(6.728108, 17.767851)">
                            <path d="M909.984696,163.504026 C909.984696,253.80504 706.277764,327.008052 454.992848,327.008052 C203.706932,327.008052 0,253.80504 0,163.504026 C0,73.2032117 203.706932,0 454.992848,0 C706.277764,0 909.984696,73.2032117 909.984696,163.504026 Z" id="path105_fill"></path>
                        </g>
                    </g>
                </g>
                <g id="Group-2" opacity="0.3" style="mix-blend-mode: multiply;" transform="translate(245.000000, 32.000000)">
                    <g id="Group" transform="translate(210.000000, 74.000000)">
                        <g id="Vector" fill="#AB806C">
                            <g id="path106_fill-link" transform="translate(0.038000, 0.290000)">
                                <path d="M16.4042,15.5416 C13.668,15.4385 10.9656,14.7993 8.73615,13.6034 C3.38202,10.722 2.8331,5.71678 7.51163,2.42295 C9.20907,1.22707 11.371,0.41779 13.6849,0.0157263 C9.83401,-0.133759 5.91552,0.783771 3.17934,2.71161 C-1.49919,6.00544 -0.950267,11.0106 4.40387,13.8921 C7.81565,15.722 12.3506,16.2529 16.4042,15.5416 Z" id="path106_fill"></path>
                            </g>
                        </g>
                        <g id="Vector" transform="translate(4.000000, 0.000000)" fill="#CFA075">
                            <g id="path107_fill-link" transform="translate(0.370000, 0.300000)">
                                <path d="M4.40387,13.5877 C6.6249,14.7836 9.33575,15.4228 12.0719,15.5258 C14.3859,15.1238 16.5393,14.3145 18.2452,13.1186 C22.9238,9.82479 22.3748,4.81961 17.0207,1.93815 C14.7997,0.742271 12.0888,0.103093 9.35264,6.14483e-10 C7.03871,0.402064 4.87679,1.21135 3.17934,2.40723 C-1.49919,5.70106 -0.950268,10.7062 4.40387,13.5877 Z" id="path107_fill"></path>
                            </g>
                        </g>
                    </g>
                    <g id="Group" transform="translate(0.000000, 25.000000)">
                        <g id="Vector" fill="#AB806C">
                            <g id="path108_fill-link" transform="translate(0.350000, 0.920000)">
                                <path d="M16.3664,17.9879 C13.6365,17.8686 10.9404,17.1288 8.71603,15.7447 C3.37423,12.4097 2.82657,6.61665 7.49432,2.80434 C9.18786,1.42022 11.3448,0.483553 13.6534,0.0182018 C9.81135,-0.154814 5.90189,0.907142 3.17202,3.13844 C-1.49574,6.95075 -0.948078,12.7438 4.39372,16.0788 C7.79764,18.1967 12.3222,18.8112 16.3664,17.9879 Z" id="path108_fill"></path>
                            </g>
                        </g>
                        <g id="Vector" transform="translate(4.000000, 0.000000)" fill="#CFA075">
                            <g id="path109_fill-link" transform="translate(0.672000, 0.940000)">
                                <path d="M4.39372,15.7265 C6.60964,17.1106 9.31424,17.8504 12.0441,17.9697 C14.3527,17.5044 16.5012,16.5677 18.2032,15.1836 C22.8709,11.3713 22.3233,5.57825 16.9815,2.24323 C14.7656,0.85911 12.061,0.119321 9.33109,7.11208e-10 C7.02249,0.465351 4.86555,1.40202 3.17202,2.78614 C-1.49574,6.59845 -0.948078,12.3915 4.39372,15.7265 Z" id="path109_fill"></path>
                            </g>
                        </g>
                    </g>
                    <g id="Group" transform="translate(135.000000, 29.000000)">
                        <g id="Vector" fill="#AB806C">
                            <g id="path110_fill-link" transform="translate(0.992000, 0.390000)">
                                <path d="M18.9279,16.8367 C15.7708,16.725 12.6527,16.0326 10.0802,14.737 C3.90233,11.6155 3.26896,6.19318 8.66726,2.62487 C10.6259,1.32933 13.1204,0.452606 15.7903,0.0170369 C11.3469,-0.144905 6.8256,0.849085 3.66847,2.93758 C-1.72984,6.5059 -1.09646,11.9282 5.08139,15.0498 C9.01806,17.0322 14.2507,17.6073 18.9279,16.8367 Z" id="path110_fill"></path>
                            </g>
                        </g>
                        <g id="Vector" transform="translate(5.000000, 0.000000)" fill="#CFA075">
                            <g id="path111_fill-link" transform="translate(0.991000, 0.410000)">
                                <path d="M5.08139,14.72 C7.64412,16.0155 10.772,16.708 13.9292,16.8197 C16.5991,16.3841 19.0839,15.5074 21.0522,14.2118 C26.4505,10.6435 25.8171,5.22124 19.6393,2.09967 C17.0765,0.804127 13.9486,0.111684 10.7915,6.6569e-10 C8.12159,0.435569 5.62706,1.31229 3.66847,2.60783 C-1.72984,6.17614 -1.09646,11.5984 5.08139,14.72 Z" id="path111_fill"></path>
                            </g>
                        </g>
                    </g>
                    <g id="Group" transform="translate(311.000000, 15.000000)">
                        <g id="Vector" fill="#AB806C">
                            <g id="path112_fill-link" transform="translate(0.007000, 0.530000)">
                                <path d="M16.4042,10.361 C13.668,10.2923 10.9656,9.8662 8.73615,9.06894 C3.38202,7.14797 2.8331,3.81119 7.51163,1.6153 C9.20907,0.818048 11.371,0.278527 13.6849,0.0104842 C9.83401,-0.0891726 5.91552,0.522514 3.17934,1.80774 C-1.49919,4.00363 -0.950267,7.34041 4.40387,9.26139 C7.81565,10.4813 12.3506,10.8353 16.4042,10.361 Z" id="path112_fill"></path>
                            </g>
                        </g>
                        <g id="Vector" transform="translate(4.000000, 0.000000)" fill="#CFA075">
                            <g id="path113_fill-link" transform="translate(0.339000, 0.540000)">
                                <path d="M4.40387,9.05846 C6.6249,9.85571 9.33575,10.2818 12.0719,10.3506 C14.3859,10.0825 16.5393,9.543 18.2452,8.74574 C22.9238,6.54986 22.3748,3.21307 17.0207,1.2921 C14.7997,0.494848 12.0888,0.0687288 9.35264,4.09656e-10 C7.03871,0.268042 4.87679,0.807564 3.17934,1.60482 C-1.49919,3.8007 -0.950268,7.13749 4.40387,9.05846 Z" id="path113_fill"></path>
                            </g>
                        </g>
                    </g>
                    <g id="Group" transform="translate(398.000000, 0.000000)">
                        <g id="Vector" fill="#AB806C">
                            <g id="path114_fill-link" transform="translate(0.844000, 0.340000)">
                                <path d="M10.0949,7.77078 C8.4111,7.71924 6.74808,7.39965 5.3761,6.80171 C2.08124,5.36098 1.74344,2.85839 4.62254,1.21148 C5.66712,0.613536 6.99754,0.208895 8.4215,0.00786316 C6.0517,-0.0668794 3.64032,0.391885 1.95652,1.35581 C-0.92258,3.00272 -0.58478,5.50531 2.71007,6.94604 C4.80963,7.86099 7.60038,8.12646 10.0949,7.77078 Z" id="path114_fill"></path>
                            </g>
                        </g>
                        <g id="Vector" transform="translate(3.000000, 0.000000)" fill="#CFA075">
                            <g id="path115_fill-link" transform="translate(0.510000, 0.350000)">
                                <path d="M2.71007,6.79385 C4.07686,7.39179 5.74508,7.71138 7.42888,7.76292 C8.85284,7.56189 10.1781,7.15725 11.2278,6.55931 C14.1069,4.91239 13.7691,2.4098 10.4743,0.969077 C9.10749,0.371136 7.43928,0.0515466 5.75547,3.07242e-10 C4.33151,0.201032 3.0011,0.605673 1.95652,1.20361 C-0.92258,2.85053 -0.58478,5.35312 2.71007,6.79385 Z" id="path115_fill"></path>
                            </g>
                        </g>
                    </g>
                    <g id="Group" transform="translate(215.000000, 4.000000)">
                        <g id="Vector" fill="#AB806C">
                            <g id="path116_fill-link" transform="translate(0.244000, 0.970000)">
                                <path d="M13.0393,10.361 C10.8643,10.2923 8.71628,9.8662 6.94412,9.06894 C2.68827,7.14797 2.25195,3.81119 5.97078,1.6153 C7.32003,0.818048 9.03849,0.278527 10.8778,0.0104842 C7.81677,-0.0891726 4.70208,0.522514 2.52717,1.80774 C-1.19167,4.00363 -0.755341,7.34041 3.50051,9.26139 C6.21244,10.4813 9.81716,10.8353 13.0393,10.361 Z" id="path116_fill"></path>
                            </g>
                        </g>
                        <g id="Vector" transform="translate(3.000000, 0.000000)" fill="#CFA075">
                            <g id="path117_fill-link" transform="translate(0.688000, 0.980000)">
                                <path d="M3.50051,9.05846 C5.26595,9.85571 7.42072,10.2818 9.59564,10.3506 C11.4349,10.0825 13.1467,9.543 14.5026,8.74574 C18.2215,6.54986 17.7851,3.21307 13.5293,1.2921 C11.7638,0.494848 9.60907,0.0687288 7.43415,4.09656e-10 C5.59487,0.268042 3.87642,0.807564 2.52717,1.60482 C-1.19167,3.8007 -0.755341,7.13749 3.50051,9.05846 Z" id="path117_fill"></path>
                            </g>
                        </g>
                    </g>
                    <g id="Group" transform="translate(633.000000, 30.000000)">
                        <g id="Vector" fill="#AB806C">
                            <g id="path118_fill-link" transform="translate(0.297500, 0.720000)">
                                <path d="M15.9836,10.361 C13.3176,10.2923 10.6845,9.8662 8.51215,9.06894 C3.2953,7.14797 2.76045,3.81119 7.31902,1.6153 C8.97295,0.818048 11.0794,0.278527 13.334,0.0104842 C9.58185,-0.0891726 5.76384,0.522514 3.09782,1.80774 C-1.46075,4.00363 -0.925902,7.34041 4.29095,9.26139 C7.61525,10.4813 12.0339,10.8353 15.9836,10.361 Z" id="path118_fill"></path>
                            </g>
                        </g>
                        <g id="Vector" transform="translate(4.000000, 0.000000)" fill="#CFA075">
                            <g id="path119_fill-link" transform="translate(0.518800, 0.730000)">
                                <path d="M4.29095,9.05846 C6.45503,9.85571 9.09637,10.2818 11.7624,10.3506 C14.017,10.0825 16.1153,9.543 17.7774,8.74574 C22.336,6.54986 21.8011,3.21307 16.5843,1.2921 C14.4202,0.494848 11.7789,0.0687288 9.11283,4.09656e-10 C6.85823,0.268042 4.75174,0.807564 3.09782,1.60482 C-1.46075,3.8007 -0.925902,7.13749 4.29095,9.05846 Z" id="path119_fill"></path>
                            </g>
                        </g>
                    </g>
                    <g id="Group" transform="translate(362.000000, 54.000000)">
                        <g id="Vector" fill="#AB806C">
                            <g id="path120_fill-link" transform="translate(0.598000, 0.480000)">
                                <path d="M27.5342,17.4843 C22.9416,17.3683 18.4056,16.6492 14.6635,15.3038 C5.67666,12.0622 4.7553,6.43138 12.6081,2.72582 C15.4573,1.38046 19.086,0.470014 22.9699,0.0176921 C16.5062,-0.150479 9.9291,0.881742 5.33647,3.05057 C-2.51637,6.75613 -1.59501,12.387 7.39181,15.6286 C13.1184,17.6872 20.7303,18.2845 27.5342,17.4843 Z" id="path120_fill"></path>
                            </g>
                        </g>
                        <g id="Vector" transform="translate(6.000000, 0.000000)" fill="#D6B48D">
                            <g id="path121_fill-link" transform="translate(0.716000, 0.480000)">
                                <path d="M7.29474,15.6011 C10.9738,16.9742 15.4641,17.7081 19.9964,17.8265 C23.8293,17.3648 27.3964,16.4356 30.2221,15.0625 C37.9718,11.2806 37.0626,5.53378 28.1938,2.22535 C24.5148,0.852261 20.0244,0.11837 15.4921,7.05538e-10 C11.6592,0.461642 8.07811,1.39084 5.26639,2.76393 C-2.48332,6.54584 -1.57406,12.2927 7.29474,15.6011 Z" id="path121_fill"></path>
                            </g>
                        </g>
                    </g>
                    <g id="Group" transform="translate(526.000000, 77.000000)">
                        <g id="Vector" fill="#AB806C">
                            <g id="path122_fill-link" transform="translate(0.384900, 0.590000)">
                                <path d="M27.761,23.9599 C23.1305,23.801 18.5572,22.8156 14.7843,20.9719 C5.72342,16.5297 4.79447,8.81337 12.712,3.73539 C15.5846,1.89174 19.2432,0.644093 23.1591,0.0242447 C16.6422,-0.206212 10.0109,1.20831 5.38042,4.18041 C-2.5371,9.25839 -1.60814,16.9747 7.4527,21.417 C13.2265,24.2381 20.901,25.0566 27.761,23.9599 Z" id="path122_fill"></path>
                            </g>
                        </g>
                        <g id="Vector" transform="translate(7.000000, 0.000000)" fill="#CFA075">
                            <g id="path123_fill-link" transform="translate(0.716500, 0.610000)">
                                <path d="M7.4527,20.9477 C11.2114,22.7913 15.799,23.7767 20.4294,23.9357 C24.3453,23.3158 27.9897,22.0682 30.8766,20.2245 C38.7941,15.1465 37.8651,7.43023 28.8043,2.98799 C25.0456,1.14434 20.458,0.158935 15.8275,9.47328e-10 C11.9117,0.619848 8.25303,1.86749 5.38042,3.71114 C-2.5371,8.78913 -1.60815,16.5054 7.4527,20.9477 Z" id="path123_fill"></path>
                            </g>
                        </g>
                    </g>
                </g>
            </g>
        </g>
    </g>
</svg>
