
<svg width="241px" height="134px" viewBox="0 0 241 134" version="1.1" xmlns="http://www.w3.org/2000/svg" xmlns:xlink="http://www.w3.org/1999/xlink">
    <!-- Generator: Sketch 49.3 (51167) - http://www.bohemiancoding.com/sketch -->
    <desc>Created with Sketch.</desc>
    <defs>
        <linearGradient x1="30.3205%" y1="1.18037333e-06%" x2="30.3205%" y2="15.7117345%" id="linearGradient-1">
            <stop stop-color="#FFEDD9" offset="0%"></stop>
            <stop stop-color="#DBAD77" offset="100%"></stop>
        </linearGradient>
        <linearGradient x1="99.8986862%" y1="7.33517898e-06%" x2="99.8986862%" y2="97.6372317%" id="linearGradient-2">
            <stop stop-color="#FFEDD9" offset="0%"></stop>
            <stop stop-color="#DBAD77" offset="100%"></stop>
        </linearGradient>
        <rect id="path-3" x="-6.03961325e-14" y="1.13686838e-13" width="216" height="142"></rect>
        <linearGradient x1="25.036125%" y1="-1.33109667e-15%" x2="25.036125%" y2="21.7385%" id="linearGradient-5">
            <stop stop-color="#EB5223" offset="0%"></stop>
            <stop stop-color="#EB5223" offset="100%"></stop>
        </linearGradient>
        <linearGradient x1="100.000259%" y1="-9.50626255e-07%" x2="100.000259%" y2="100.000288%" id="linearGradient-6">
            <stop stop-color="#EB5223" offset="0%"></stop>
            <stop stop-color="#EB5223" offset="100%"></stop>
        </linearGradient>
        <linearGradient x1="24.150375%" y1="-1.23370333e-15%" x2="24.150375%" y2="20.1478333%" id="linearGradient-7">
            <stop stop-color="#FF7438" offset="0%"></stop>
            <stop stop-color="#FF8C38" offset="100%"></stop>
        </linearGradient>
        <linearGradient x1="99.9999575%" y1="1.89445206e-07%" x2="99.9999575%" y2="99.9997337%" id="linearGradient-8">
            <stop stop-color="#FF7438" offset="0%"></stop>
            <stop stop-color="#FF8C38" offset="100%"></stop>
        </linearGradient>
        <radialGradient cx="5.65866875%" cy="5.81506667%" fx="5.65866875%" fy="5.81506667%" r="0.0987910816%" gradientTransform="translate(0.056587,0.058151),scale(0.632648,1.000000),translate(-0.056587,-0.058151)" id="radialGradient-9">
            <stop stop-color="#FF7438" offset="56.99%"></stop>
            <stop stop-color="#B4370A" offset="100%"></stop>
        </radialGradient>
        <radialGradient cx="46.5786257%" cy="56.963519%" fx="46.5786257%" fy="56.963519%" r="0.816327052%" gradientTransform="translate(0.465786,0.569635),scale(0.630214,1.000000),translate(-0.465786,-0.569635)" id="radialGradient-10">
            <stop stop-color="#FF7438" offset="56.99%"></stop>
            <stop stop-color="#B4370A" offset="100%"></stop>
        </radialGradient>
        <linearGradient x1="0.52755%" y1="-0.328003333%" x2="-0.453975%" y2="2.48673%" id="linearGradient-11">
            <stop stop-color="#298992" offset="20.97%"></stop>
            <stop stop-color="#308F99" offset="35.58%"></stop>
            <stop stop-color="#44A1AC" offset="57.09%"></stop>
            <stop stop-color="#64BFCB" offset="82.72%"></stop>
            <stop stop-color="#7ED6E4" offset="100%"></stop>
        </linearGradient>
        <linearGradient x1="22.7330467%" y1="-10.5935565%" x2="-19.5625954%" y2="80.3141381%" id="linearGradient-12">
            <stop stop-color="#298992" offset="20.97%"></stop>
            <stop stop-color="#308F99" offset="35.58%"></stop>
            <stop stop-color="#44A1AC" offset="57.09%"></stop>
            <stop stop-color="#64BFCB" offset="82.72%"></stop>
            <stop stop-color="#7ED6E4" offset="100%"></stop>
        </linearGradient>
        <linearGradient x1="0.44455375%" y1="-0.192473333%" x2="-0.37411875%" y2="2.15531%" id="linearGradient-13">
            <stop stop-color="#298992" offset="20.97%"></stop>
            <stop stop-color="#308F99" offset="35.58%"></stop>
            <stop stop-color="#44A1AC" offset="57.09%"></stop>
            <stop stop-color="#64BFCB" offset="82.72%"></stop>
            <stop stop-color="#7ED6E4" offset="100%"></stop>
        </linearGradient>
        <linearGradient x1="22.9734497%" y1="-7.05688851%" x2="-19.3335874%" y2="79.0226818%" id="linearGradient-14">
            <stop stop-color="#298992" offset="20.97%"></stop>
            <stop stop-color="#308F99" offset="35.58%"></stop>
            <stop stop-color="#44A1AC" offset="57.09%"></stop>
            <stop stop-color="#64BFCB" offset="82.72%"></stop>
            <stop stop-color="#7ED6E4" offset="100%"></stop>
        </linearGradient>
        <linearGradient x1="0.1867675%" y1="-0.00860705%" x2="2.1283175%" y2="0.176711283%" id="linearGradient-15">
            <stop stop-color="#298992" offset="20.97%"></stop>
            <stop stop-color="#308F99" offset="35.58%"></stop>
            <stop stop-color="#44A1AC" offset="57.09%"></stop>
            <stop stop-color="#64BFCB" offset="82.72%"></stop>
            <stop stop-color="#7ED6E4" offset="100%"></stop>
        </linearGradient>
        <linearGradient x1="9.65168231%" y1="-0.314926296%" x2="109.986333%" y2="6.46604903%" id="linearGradient-16">
            <stop stop-color="#298992" offset="20.97%"></stop>
            <stop stop-color="#308F99" offset="35.58%"></stop>
            <stop stop-color="#44A1AC" offset="57.09%"></stop>
            <stop stop-color="#64BFCB" offset="82.72%"></stop>
            <stop stop-color="#7ED6E4" offset="100%"></stop>
        </linearGradient>
        <linearGradient x1="0.025578125%" y1="0.0225318333%" x2="1.52227812%" y2="0.0422681667%" id="linearGradient-17">
            <stop stop-color="#298992" offset="20.97%"></stop>
            <stop stop-color="#308F99" offset="35.58%"></stop>
            <stop stop-color="#44A1AC" offset="57.09%"></stop>
            <stop stop-color="#64BFCB" offset="82.72%"></stop>
            <stop stop-color="#7ED6E4" offset="100%"></stop>
        </linearGradient>
        <linearGradient x1="1.69972463%" y1="1.04780451%" x2="101.1584%" y2="1.96560864%" id="linearGradient-18">
            <stop stop-color="#298992" offset="20.97%"></stop>
            <stop stop-color="#308F99" offset="35.58%"></stop>
            <stop stop-color="#44A1AC" offset="57.09%"></stop>
            <stop stop-color="#64BFCB" offset="82.72%"></stop>
            <stop stop-color="#7ED6E4" offset="100%"></stop>
        </linearGradient>
        <linearGradient x1="-0.01510825%" y1="0.0701213333%" x2="1.05696175%" y2="-0.02081%" id="linearGradient-19">
            <stop stop-color="#298992" offset="20.97%"></stop>
            <stop stop-color="#308F99" offset="35.58%"></stop>
            <stop stop-color="#44A1AC" offset="57.09%"></stop>
            <stop stop-color="#64BFCB" offset="82.72%"></stop>
            <stop stop-color="#7ED6E4" offset="100%"></stop>
        </linearGradient>
        <linearGradient x1="-1.35786075%" y1="4.6583359%" x2="94.9964441%" y2="-1.38245375%" id="linearGradient-20">
            <stop stop-color="#298992" offset="20.97%"></stop>
            <stop stop-color="#308F99" offset="35.58%"></stop>
            <stop stop-color="#44A1AC" offset="57.09%"></stop>
            <stop stop-color="#64BFCB" offset="82.72%"></stop>
            <stop stop-color="#7ED6E4" offset="100%"></stop>
        </linearGradient>
        <linearGradient x1="-1.35811915%" y1="4.65729512%" x2="94.9973092%" y2="-1.38221016%" id="linearGradient-21">
            <stop stop-color="#298992" offset="20.97%"></stop>
            <stop stop-color="#308F99" offset="35.58%"></stop>
            <stop stop-color="#44A1AC" offset="57.09%"></stop>
            <stop stop-color="#64BFCB" offset="82.72%"></stop>
            <stop stop-color="#7ED6E4" offset="100%"></stop>
        </linearGradient>
        <linearGradient x1="13.49925%" y1="-3.3494e-16%" x2="13.49925%" y2="5.47%" id="linearGradient-22">
            <stop stop-color="#FFEDD9" offset="0%"></stop>
            <stop stop-color="#DBAD77" offset="100%"></stop>
        </linearGradient>
        <linearGradient x1="100%" y1="-6.75775011e-15%" x2="100%" y2="110.362731%" id="linearGradient-23">
            <stop stop-color="#FFEDD9" offset="0%"></stop>
            <stop stop-color="#DBAD77" offset="100%"></stop>
        </linearGradient>
    </defs>
    <g id="Page-1" stroke="none" stroke-width="1" fill="none" fill-rule="evenodd">
        <g id="404-Mars-Illustration" transform="translate(-482.000000, -418.000000)">
            <g id="spaceship" transform="translate(481.000000, 394.000000)">
                <g id="sau" transform="translate(0.000000, 31.000000)" fill="url(#linearGradient-2)" fill-rule="nonzero">
                    <g id="path124_fill-link" transform="translate(126.954369, 63.732721) scale(-1, 1) rotate(-7.143629) translate(-126.954369, -63.732721) translate(5.454528, 15.232645)">
                        <path d="M74.9593025,54.8849863 L18.6954757,34.2049538 L46.3706397,59.9769943 L21.526972,60.9122958 L37.2369516,69.95331 L0,96.5518518 L37.5653511,91.6500441 L112.645853,84.567133 C115.18885,84.3272326 117.745847,84.2825325 120.294844,84.4333328 L242.809684,91.6816442 L205.571733,75.9807195 L235.712693,56.4437888 L199.100741,55.2836869 L207.089731,28.0779442 L166.873783,44.9693707 L162.739788,29.4548463 L146.43781,28.9383455 L113.164853,0 L119.161845,18.0255283 L112.589854,27.8658438 L111.219855,61.3279964 L89.6644834,33.8931533 L90.6692821,57.7946909 L79.0693971,46.3635729 L74.9593025,54.8849863 Z" id="path124_fill"></path>
                    </g>
                </g>
                <g id="Spaceship-mask" transform="translate(131.925328, 75.277978) rotate(2.000000) translate(-131.925328, -75.277978) translate(23.925328, 4.277978)">
                    <mask id="mask-4" fill="white">
                        <use xlink:href="#path-3"></use>
                    </mask>
                    <g id="Mask"></g>
                    <g id="Phithuyen-mask" mask="url(#mask-4)">
                        <g transform="translate(-8.000000, 15.000000)" id="Group">
                            <g>
                                <g transform="translate(41.000000, 40.000000)" fill-rule="nonzero" id="Vector">
                                    <g fill="#FA7C34">
                                        <g id="path127_fill-link" transform="translate(85.571534, 62.675603) rotate(-11.658571) translate(-85.571534, -62.675603) translate(8.571240, 15.175786)">
                                            <path d="M153.362587,0 C148.491568,23.1110109 129.173494,56.9401804 95.4106651,76.8693035 C61.6473359,96.6309273 22.6767868,97.1333253 0,90.0995525 L153.362587,0 Z" id="path127_fill"></path>
                                        </g>
                                    </g>
                                    <g transform="translate(89.000000, 0.000000)" fill="#D93F0F">
                                        <g id="path128_fill-link" transform="translate(39.490891, 46.145222) rotate(-11.658571) translate(-39.490891, -46.145222) translate(7.990771, 6.145377)">
                                            <path d="M19.1493733,25.4556018 L62.3192385,1.27770507e-06 C57.4480198,23.1110109 38.1306459,56.9402804 4.36738671,76.8693035 C2.85560093,77.7067003 1.51178578,78.543997 -2.38708913e-14,79.3813938 C28.220008,58.4474746 43.5059665,32.3219753 19.1493733,25.4556018 Z" id="path128_fill"></path>
                                        </g>
                                    </g>
                                    <g opacity="0.8" fill="#A32600">
                                        <g id="path129_fill-link" transform="translate(85.470504, 62.185918) rotate(-11.658571) translate(-85.470504, -62.185918) translate(8.470209, 15.186099)">
                                            <path d="M150.674577,10.5506593 C151.850581,6.86632352 152.522584,3.18195773 153.194586,0 L0,90.0995525 C5.20726992,91.6067467 11.2544431,92.9465415 17.8054681,93.6164389 C71.2220725,88.7597576 133.877512,34.6665663 150.674577,10.5506593 Z" id="path129_fill"></path>
                                        </g>
                                    </g>
                                </g>
                                <g id="Vector" transform="translate(0.000000, 1.000000)" fill="url(#linearGradient-6)" fill-rule="nonzero">
                                    <g id="path130_fill-link" transform="translate(112.042736, 84.784907) rotate(-11.658571) translate(-112.042736, -84.784907) translate(11.542351, 19.285160)">
                                        <path d="M4.24834626,123.730523 C12.9831497,138.467466 65.8957521,128.586504 119.648458,97.1024255 C173.400663,65.4503476 207.667795,24.0849071 198.932761,9.34742395 C197.589756,7.00283299 194.397744,1.64375366 191.038731,0.80639289 C173.064662,-4.05027438 130.7345,13.5342478 85.716928,39.9946457 C39.5234512,67.1250411 3.07251176,95.2602326 0.0489303872,113.012564 C-0.454999741,115.859553 3.07251176,121.720531 4.24834626,123.730523 Z" id="path130_fill"></path>
                                    </g>
                                </g>
                                <g id="Vector" fill="url(#linearGradient-8)" fill-rule="nonzero">
                                    <g id="path131_fill-link" transform="translate(107.258947, 79.646899) rotate(-11.658571) translate(-107.258947, -79.646899) translate(10.258576, 19.147133)">
                                        <path d="M0.665361546,115.995553 C7.72037954,128.388505 58.7852249,116.833549 111.529427,85.8509689 C164.274629,54.8687884 200.893769,14.6757434 191.822734,3.79010538 C183.591702,-6.09070651 133.870512,3.12021797 81.1261104,34.1023685 C28.3815086,65.2520483 -5.21381995,105.779592 0.665361546,115.995553 Z" id="path131_fill"></path>
                                    </g>
                                </g>
                                <g id="Vector" opacity="0.4" transform="translate(13.000000, 93.000000)" fill="#EB5223" fill-rule="nonzero">
                                    <g id="path132_fill-link" transform="translate(27.124798, 30.837728) rotate(-11.658571) translate(-27.124798, -30.837728) translate(5.124714, 4.337831)">
                                        <path d="M0.679979602,52.3201982 C-5.87110246,40.4297441 36.9629414,-1.94050252 41.3302581,0.0691484333 C42.0021607,0.739033149 43.8499678,5.09329035 43.8499678,5.09329035 C36.9629414,3.75351552 5.21534996,32.7260738 0.679979602,52.3201982 Z" id="path132_fill"></path>
                                    </g>
                                </g>
                                <g transform="translate(117.000000, 69.000000)" fill="#2CB0B5" fill-rule="nonzero" id="Vector">
                                    <g>
                                        <g id="path133_fill-link" transform="translate(12.529169, 10.518124) rotate(-11.658571) translate(-12.529169, -10.518124) translate(2.029129, 2.018157)">
                                            <path d="M20.1571771,16.5796361 L20.9970803,15.7423393 C15.6218598,9.88080189 6.38311442,3.18195773 0.503934928,-1.27770507e-06 L0,1.00482612 C5.71120185,4.18678385 14.7819566,10.7181587 20.1571771,16.5796361 Z" id="path133_fill"></path>
                                        </g>
                                    </g>
                                </g>
                                <g transform="translate(116.000000, 69.000000)" fill="#FFCC9E" fill-rule="nonzero" id="Vector">
                                    <g>
                                        <g id="path134_fill-link" transform="translate(13.462409, 11.036862) rotate(-11.658571) translate(-13.462409, -11.036862) translate(2.462367, 2.536894)">
                                            <path d="M20.4931784,16.9146348 L21.3329816,16.077238 C15.9577611,10.2157606 6.55108507,3.34942708 0.503931928,-2.55541014e-06 L-2.56311981e-06,1.00482612 C6.04715314,4.35425321 15.2858585,11.0530574 20.4931784,16.9146348 Z" id="path134_fill"></path>
                                        </g>
                                    </g>
                                </g>
                                <g transform="translate(134.000000, 44.000000)" fill-rule="nonzero" id="Vector">
                                    <g opacity="0.5" fill="#2CB0B5">
                                        <g>
                                            <g id="path135_fill-link" transform="translate(19.783032, 7.109185) rotate(-11.658571) translate(-19.783032, -7.109185) translate(0.282957, 4.609195)">
                                                <path d="M37.9627453,4.67955195 L38.6346478,3.67472583 C32.0835228,-1.01446609 5.37524057,-0.00964230281 -5.12623961e-06,0.325299745 L-5.12623961e-06,1.49760422 C3.35952285,1.49760422 31.5796208,0.157829391 37.9627453,4.67955195 Z" id="path135_fill"></path>
                                            </g>
                                        </g>
                                    </g>
                                    <g transform="translate(0.000000, 1.000000)" fill="#FFCC9E">
                                        <g>
                                            <g id="path136_fill-link" transform="translate(19.790732, 6.979185) rotate(-11.658571) translate(-19.790732, -6.979185) translate(0.290657, 4.479195)">
                                                <path d="M37.7947446,4.49605266 L38.4666472,3.49122653 C32.5874247,-0.695554317 8.90276406,-0.025668801 1.1758445,0.141802453 L-2.56311981e-06,0.141802453 L-2.56311981e-06,1.31410493 L1.1758445,1.31410493 C21.6689829,0.811688869 34.0992305,1.81651299 37.7947446,4.49605266 Z" id="path136_fill"></path>
                                            </g>
                                        </g>
                                    </g>
                                </g>
                                <g opacity="0.5" transform="translate(141.000000, 10.000000)" fill-rule="nonzero" id="Vector">
                                    <g fill="#2CB0B5">
                                        <g>
                                            <g id="path137_fill-link" transform="translate(26.193471, 10.742458) rotate(-11.658571) translate(-26.193471, -10.742458) translate(0.693373, 5.742477)">
                                                <path d="M49.7210902,3.55732628 L50.2249922,2.55250015 C36.6188401,-4.98371078 3.35953285,6.4043353 -2.56311981e-06,8.07904884 L0.503931928,9.08387496 C6.21513378,6.4043353 37.2907427,-3.47646659 49.7210902,3.55732628 Z" id="path137_fill"></path>
                                            </g>
                                        </g>
                                    </g>
                                    <g transform="translate(0.000000, 1.000000)" fill="#74F0C8">
                                        <g>
                                            <g id="path138_fill-link" transform="translate(25.941240, 10.182773) rotate(-11.658571) translate(-25.941240, -10.182773) translate(0.441142, 5.682790)">
                                                <path d="M49.7210902,3.3449471 L50.2249922,2.34012097 C36.4509395,-4.52620254 5.20727992,5.68954805 2.56311981e-06,7.86666966 L0.503924928,8.87149578 C5.54322121,6.69437418 36.2829388,-3.35389706 49.7210902,3.3449471 Z" id="path138_fill"></path>
                                            </g>
                                        </g>
                                    </g>
                                </g>
                                <g opacity="0.3" transform="translate(63.000000, 103.000000)" fill-rule="nonzero" id="Vector">
                                    <g opacity="0.5" transform="translate(0.000000, 1.000000)" fill="#2CB0B5">
                                        <g>
                                            <g id="path139_fill-link" transform="translate(10.953175, 18.940020) rotate(-11.658571) translate(-10.953175, -18.940020) translate(3.453146, 1.440087)">
                                                <path d="M1.07720412,34.6665663 C0.237323908,27.4652941 10.3159395,5.69402804 14.1793543,0.669885416 L13.339451,-2.55541014e-06 C9.30805562,5.19160998 -0.938509591,27.1303954 0.0693495654,34.8340656 L1.07720412,34.6665663 Z" id="path139_fill"></path>
                                            </g>
                                        </g>
                                    </g>
                                    <g transform="translate(1.000000, 0.000000)" fill="#74F0C8">
                                        <g>
                                            <g id="path140_fill-link" transform="translate(10.316004, 18.841598) rotate(-11.658571) translate(-10.316004, -18.841598) translate(3.315977, 1.841664)">
                                                <path d="M1.00785386,33.8291695 C2.01571771,25.1207031 10.0786386,3.68436579 13.4381514,0.83735477 L12.7662488,-1.27770507e-06 C9.23871535,3.18195773 1.00785386,24.618305 -1.2815549e-06,33.8291695 L1.00785386,33.8291695 Z" id="path140_fill"></path>
                                            </g>
                                        </g>
                                    </g>
                                </g>
                                <g opacity="0.1" transform="translate(27.000000, 109.000000)" fill-rule="nonzero" id="Vector">
                                    <g opacity="0.5" fill="#2CB0B5">
                                        <g>
                                            <g id="path141_fill-link" transform="translate(17.971215, 23.851399) rotate(-11.658571) translate(-17.971215, -23.851399) translate(3.971161, 2.851480)">
                                                <path d="M1.1767445,41.3654405 C1.00876386,26.4604979 23.8535913,3.85184514 27.7170061,1.00482612 L27.0451035,-1.27770507e-06 C23.0136881,2.84700902 -0.167068639,26.1254992 0.000908015474,41.3654405 L1.1767445,41.3654405 Z" id="path141_fill"></path>
                                            </g>
                                        </g>
                                    </g>
                                    <g fill="#74F0C8">
                                        <g>
                                            <g id="path142_fill-link" transform="translate(18.828215, 23.851399) rotate(-11.658571) translate(-18.828215, -23.851399) translate(4.828161, 2.851480)">
                                                <path d="M1.00786386,41.1979411 C1.67976643,26.2929986 23.0127881,4.35425321 27.5482054,0.83735877 L26.8762028,2.55541014e-06 C22.3408855,3.68436579 0.503928928,25.9579999 -3.20390226e-07,41.1979411 L1.00786386,41.1979411 Z" id="path142_fill"></path>
                                            </g>
                                        </g>
                                    </g>
                                </g>
                                <g opacity="0.5" transform="translate(98.000000, 89.000000)" fill-rule="nonzero" id="Vector">
                                    <g fill="#2CB0B5">
                                        <g>
                                            <g id="path143_fill-link" transform="translate(6.681697, 14.433591) rotate(-11.658571) translate(-6.681697, -14.433591) translate(3.681686, 0.433645)">
                                                <path d="M5.54323121,26.7953966 C2.85560093,19.7616238 1.1758345,7.70368029 1.1758345,0 L-2.56311981e-06,0 C-2.56311981e-06,7.70368029 1.67976643,19.9291231 4.53536735,27.1303954 L5.54323121,26.7953966 Z" id="path143_fill"></path>
                                            </g>
                                        </g>
                                    </g>
                                    <g transform="translate(0.000000, 1.000000)" fill="#74F0C8">
                                        <g>
                                            <g id="path144_fill-link" transform="translate(5.661736, 13.484222) rotate(-11.658571) translate(-5.661736, -13.484222) translate(2.661725, 0.484272)">
                                                <path d="M5.03929928,25.1207031 C2.51964964,17.5844322 1.1758345,6.53137481 1.1758345,0 L0,0 C0,6.69884416 1.34381514,17.9194309 3.86345478,25.4556018 L5.03929928,25.1207031 Z" id="path144_fill"></path>
                                            </g>
                                        </g>
                                    </g>
                                </g>
                                <g id="Vector" opacity="0.4" transform="translate(37.000000, 27.000000)" fill="#660C00" fill-rule="nonzero">
                                    <g id="path145_fill-link" transform="translate(59.009967, 44.654721) rotate(-11.658571) translate(-59.009967, -44.654721) translate(6.009764, 10.654852)">
                                        <path d="M0.50174192,63.4337553 C5.5410412,72.9796185 32.921226,66.9506418 61.8132365,49.8686077 C90.8731477,32.7864735 110.526423,10.1778607 104.4794,2.47420046 C99.1039792,-4.39212306 73.4035809,3.47902658 44.3436697,20.5611207 C15.4516591,37.4756555 -3.36172286,56.2324831 0.50174192,63.4337553 Z" id="path145_fill"></path>
                                    </g>
                                </g>
                                <g id="Vector" transform="translate(37.000000, 24.000000)" fill="#EB5223" fill-rule="nonzero">
                                    <g id="path146_fill-link" transform="translate(59.705638, 44.673143) rotate(-11.658571) translate(-59.705638, -44.673143) translate(6.205433, 10.173276)">
                                        <path d="M0.557112132,64.2018524 C5.42843077,72.7428194 33.98443,67.2163407 63.0443412,50.1342066 C92.1043524,33.0521725 111.757428,10.2760604 105.710404,2.57241008 C99.9991826,-4.46138279 74.2987843,3.40976685 45.4068737,20.3243216 C16.3468625,37.4064557 -3.64230394,57.0005801 0.557112132,64.2018524 Z" id="path146_fill"></path>
                                    </g>
                                </g>
                                <g transform="translate(40.000000, 26.000000)" fill-rule="nonzero" id="Vector">
                                    <g transform="translate(1.000000, 0.000000)" fill="url(#radialGradient-10)">
                                        <g id="path147_fill-link" transform="translate(54.333660, 40.856714) rotate(-11.658571) translate(-54.333660, -40.856714) translate(5.333473, 9.856834)">
                                            <path d="M0.394146508,58.2315754 C4.42558693,65.4328476 30.1260153,59.4039709 56.4983162,43.8291309 C83.0386177,28.4217904 101.516388,8.32518789 96.3087685,1.96128244 C91.7733511,-3.90021496 68.5926625,3.80346533 42.0523609,19.3783253 C15.5120594,34.9531652 -2.96538135,52.370098 0.394146508,58.2315754 Z" id="path147_fill"></path>
                                        </g>
                                    </g>
                                    <g fill="#F0BDAA">
                                        <g id="path148_fill-link" transform="translate(55.247331, 40.865136) rotate(-11.658571) translate(-55.247331, -40.865136) translate(5.747142, 9.365257)">
                                            <path d="M4.67647789,61.9241612 C2.66076018,61.4216631 1.31694504,60.416867 0.477064825,59.0770721 C-3.5543736,52.0432993 18.6185712,33.2865716 42.3032619,19.3864252 C69.8513673,3.14170788 92.528254,-3.89208499 97.3995727,2.13688176 C98.2394759,3.30917724 98.5753772,4.81642142 98.2394759,6.65860432 C96.5596695,15.8695388 78.922102,32.4491748 57.4211197,45.1770257 C36.4240394,57.2348792 14.2511545,64.4361515 4.67647789,61.9241612 Z M1.65289632,58.4072747 C2.15682825,59.4120708 3.33266275,60.2493676 5.01242918,60.5843663 C13.07535,62.7614579 33.4004278,57.5698779 56.9172178,43.8372309 C80.2659071,30.1045839 95.7197662,13.8598465 97.0635714,6.15618626 C97.3995727,4.64895207 97.0635714,3.47665659 96.3916688,2.63929982 C92.1922528,-2.55231016 69.1794647,4.98389078 42.9751644,20.3912213 C14.7550565,36.9708574 -1.2027046,53.5505935 1.65289632,58.4072747 Z" id="path148_fill"></path>
                                        </g>
                                    </g>
                                </g>
                                <g id="Vector" transform="translate(32.000000, 7.000000)" fill="#C7C7C7" fill-opacity="0.8" fill-rule="nonzero">
                                    <g id="path149_fill-link" transform="translate(59.125832, 50.685354) rotate(-11.658571) translate(-59.125832, -50.685354) translate(8.125637, 9.685512)">
                                        <path d="M4.66332784,78.0619989 C8.69476327,85.2632711 34.3951316,79.2342944 60.7675325,63.6594545 C87.3077341,48.2521139 105.785405,28.1555914 100.578385,21.7916159 C96.0425675,15.9301386 68.998364,-15.0520419 28.5160091,9.06385504 C-11.6303445,33.179672 1.30380499,72.2005215 4.66332784,78.0619989 Z" id="path149_fill"></path>
                                    </g>
                                </g>
                                <g id="Vector" opacity="0.7" transform="translate(40.000000, 44.000000)" fill="#EDEDED" fill-rule="nonzero">
                                    <g id="path150_fill-link" transform="translate(15.109268, 29.769291) rotate(-11.658571) translate(-15.109268, -29.769291) translate(6.109233, 1.269401)">
                                        <path d="M17.9842688,55.4329862 C3.70621418,35.3364637 4.88204868,13.732647 13.6168521,0 C-8.3881021,21.4363173 2.36239904,49.9064075 4.54609739,55.2654868 C5.72193189,57.9450765 18.4881707,56.772781 17.9842688,55.4329862 Z" id="path150_fill"></path>
                                    </g>
                                </g>
                                <g transform="translate(1.000000, 4.000000)" fill="#FFCC9E" fill-rule="nonzero" id="Vector">
                                    <g>
                                        <g>
                                            <g id="path151_fill-link" transform="translate(106.851185, 77.699424) rotate(-11.658571) translate(-106.851185, -77.699424) translate(10.350816, 19.199650)">
                                                <path d="M1.00121383e-08,111.870569 C1.00121383e-08,111.870569 0.167976643,112.038568 0.335953285,112.373567 C0.671906571,112.708565 1.00786386,113.210563 1.67976643,113.880561 C3.02358157,115.052556 5.54322121,116.057552 8.73478342,116.392551 C15.2858585,117.229548 24.6925945,116.225552 35.6110363,113.378563 C40.9862568,112.038568 46.8654793,110.196575 52.9126025,108.186583 C58.9597256,106.009591 65.34285,103.6646 71.7259744,100.817611 C84.4922233,95.2911325 97.7623741,88.4248589 110.696424,80.888588 C123.462472,73.3524171 135.89352,64.9788494 146.979562,56.6052817 C158.065605,48.231714 167.808642,39.5232476 175.703672,31.4845786 C183.430702,23.4460096 188.973723,15.7423393 191.493733,9.71333253 C192.668737,6.69885416 193.004738,4.0193145 192.500737,2.34460096 C192.332736,1.50724419 191.828734,0.83735677 191.660733,0.502414062 C191.325732,0.167471354 191.157731,-1.59713384e-07 191.157731,-1.59713384e-07 C191.157731,-1.59713384e-07 191.325732,0.167471354 191.493733,0.502414062 C191.660733,0.83735677 191.996735,1.50724419 192.164735,2.34460096 C192.500737,4.0193145 192.164735,6.69885416 190.82173,9.54586318 C189.477725,12.3928522 187.293717,15.7423393 184.606706,19.2592257 C181.750695,22.7761122 178.390683,26.4604979 174.359667,30.3122831 C166.464637,38.1834527 156.386598,46.3895211 145.299556,54.5956894 C134.213514,62.8017578 121.783466,71.0078261 109.016417,78.3765977 C96.2505683,85.9127686 83.1484181,92.7791421 70.5501699,98.4731202 C64.1670455,101.320609 58.1199224,103.8326 52.0726992,106.17659 C46.1935767,108.353582 40.4823549,110.363574 35.1071343,111.870569 C24.5245938,114.885557 15.2858585,116.55955 8.90275406,115.890553 C5.71120185,115.555554 3.19155221,114.717558 1.84773707,113.712561 C1.1758345,113.210563 0.671906571,112.708565 0.335953285,112.373567 C0.167976643,112.038568 1.00121383e-08,111.870569 1.00121383e-08,111.870569 Z" id="path151_fill"></path>
                                            </g>
                                        </g>
                                    </g>
                                </g>
                                <g id="Vector" transform="translate(61.000000, 11.000000)" fill="#FFFFFF" fill-rule="nonzero">
                                    <g id="path152_fill-link" transform="translate(36.909147, 20.085947) rotate(-11.658571) translate(-36.909147, -20.085947) translate(2.909017, 7.085997)">
                                        <path d="M2.56311981e-06,8.76024621 C0.335955285,8.59277686 0.671906571,8.4252975 1.00786386,8.09035879 C37.7947446,-14.0158459 63.3271423,15.6265397 67.5265584,20.8182197 C68.5344622,21.9905152 66.6866552,27.0145958 65.5108507,25.3399023 C55.4322121,10.9373578 35.1071343,-5.30733953 2.56311981e-06,8.76024621 Z" id="path152_fill"></path>
                                    </g>
                                </g>
                                <g id="Vector" transform="translate(75.000000, 30.000000)" fill="#F7FFFF" fill-rule="nonzero">
                                    <g id="path153_fill-link" transform="translate(12.635209, 11.276862) rotate(-11.658571) translate(-12.635209, -11.276862) translate(1.635167, 2.776894)">
                                        <path d="M0.0395783514,10.0941611 C0.54350808,15.1182417 5.07887943,16.6255359 10.9580419,16.1231378 C16.8372644,15.6206397 21.5405824,13.2760488 21.0366805,8.25194817 C20.5326786,3.22780755 15.4934593,-0.456562239 9.78221743,0.0458512231 C3.90303493,0.548264885 -0.464351777,5.06999044 0.0395783514,10.0941611 Z" id="path153_fill"></path>
                                    </g>
                                </g>
                                <g id="Vector" transform="translate(66.000000, 41.000000)" fill="#FFFFFF" fill-rule="nonzero">
                                    <g id="path154_fill-link" transform="translate(5.134368, 5.397376) rotate(-11.658571) translate(-5.134368, -5.397376) translate(1.134353, 1.397391)">
                                        <path d="M0.829191173,6.42762521 C2.00502767,7.93486939 4.18871603,7.59993069 5.86848245,6.0926865 C7.54824888,4.58545231 8.05218081,2.57579006 6.70836567,1.06854588 C5.53253117,-0.438690308 3.01289153,-0.271218954 1.50109574,1.06854588 C-0.178665684,2.57579006 -0.514620969,4.92039102 0.829191173,6.42762521 Z" id="path154_fill"></path>
                                    </g>
                                </g>
                                <g transform="translate(116.000000, 92.000000)" fill-rule="nonzero" id="Vector">
                                    <g opacity="0.5" transform="translate(4.000000, 4.000000)" fill="url(#linearGradient-12)">
                                        <g>
                                            <g id="path155_fill-link" transform="translate(11.956949, 12.090018) rotate(-11.658571) translate(-11.956949, -12.090018) translate(2.456913, 2.590055)">
                                                <path d="M1.21967467,14.0616458 C-1.29997497,9.70741256 0.21181781,4.01338452 4.57920752,1.33384486 C9.11457487,-1.34569481 14.8257567,0.161549377 17.3454664,4.51580258 C19.865076,8.87005579 18.3532702,14.5640438 13.9858535,17.2436335 C9.45052616,19.9231232 3.73931431,18.415929 1.21967467,14.0616458 Z" id="path155_fill"></path>
                                            </g>
                                        </g>
                                    </g>
                                    <g transform="translate(4.000000, 4.000000)">
                                        <g fill="url(#linearGradient-12)">
                                            <g id="path155_fill-link" transform="translate(11.956749, 12.090018) rotate(-11.658571) translate(-11.956749, -12.090018) translate(2.456713, 2.590055)">
                                                <path d="M1.21967467,14.0616458 C-1.29997497,9.70741256 0.21181781,4.01338452 4.57920752,1.33384486 C9.11457487,-1.34569481 14.8257567,0.161549377 17.3454664,4.51580258 C19.865076,8.87005579 18.3532702,14.5640438 13.9858535,17.2436335 C9.45052616,19.9231232 3.73931431,18.415929 1.21967467,14.0616458 Z" id="path155_fill"></path>
                                            </g>
                                        </g>
                                        <g fill="#217588">
                                            <g id="path156_fill-link" transform="translate(12.146389, 11.878755) rotate(-11.658571) translate(-12.146389, -11.878755) translate(2.146351, 2.378792)">
                                                <path d="M1.32514507,14.3901445 C-1.36247521,9.86847194 0.149317571,4.00697454 4.85265857,1.32743488 C9.38802592,-1.35210478 15.2671584,0.155136402 17.9548687,4.67686196 C20.642479,9.19858452 19.1306732,15.0600419 14.4273552,17.7396316 C9.72397721,20.2517219 3.84479471,18.9119271 1.32514507,14.3901445 Z M1.66110636,14.0552458 C4.180756,18.2420296 9.72397721,19.7493238 14.0913539,17.2372335 C18.4587706,14.7251432 19.9705764,9.19858452 17.4508668,4.84433132 C14.9312571,0.657548464 9.38802592,-0.849695723 5.02063921,1.66237359 C0.653244499,4.34191325 -0.858544285,9.86847194 1.66110636,14.0552458 Z" id="path156_fill"></path>
                                            </g>
                                        </g>
                                    </g>
                                    <g opacity="0.2" fill="#E3FBED">
                                        <g id="path157_fill-link" transform="translate(15.973286, 15.887710) rotate(-11.658571) translate(-15.973286, -15.887710) translate(2.473235, 2.887760)">
                                            <path d="M1.8042369,19.5946244 C-1.89124724,13.3981483 0.292450119,5.52699868 6.5075849,1.84263289 C12.7227487,-1.8417329 20.7855795,0.167920352 24.313093,6.36435545 C28.0086072,12.5607516 25.8248988,20.4319212 19.609775,24.116307 C13.5625519,27.8006928 5.49972104,25.7910005 1.8042369,19.5946244 Z" id="path157_fill"></path>
                                        </g>
                                    </g>
                                    <g transform="translate(6.000000, 6.000000)" fill="#C6EB8F">
                                        <g id="path158_fill-link" transform="translate(10.016112, 10.116423) rotate(-42.169959) translate(-10.016112, -10.116423) translate(3.014616, 3.117844)">
                                            <path d="M6.88316107,13.4054773 C10.6845835,13.4054773 13.7663421,10.4044868 13.7663421,6.70271865 C13.7663421,3.0009105 10.6845835,0 6.88316107,0 C3.08169862,0 0,3.0009105 0,6.70271865 C0,10.4044868 3.08169862,13.4054773 6.88316107,13.4054773 Z" id="path158_fill"></path>
                                        </g>
                                    </g>
                                    <g transform="translate(9.000000, 9.000000)" fill="#E3FBED">
                                        <g id="path159_fill-link" transform="translate(7.166469, 6.766455) rotate(-42.177762) translate(-7.166469, -6.766455) translate(2.165573, 2.267526)">
                                            <path d="M4.53265243,8.71323602 C7.03597112,8.71323602 9.06531486,6.7627103 9.06531486,4.35661301 C9.06531486,1.95052572 7.03597112,0 4.53265243,0 C2.02933374,0 2.56158914e-06,1.95052572 2.56158914e-06,4.35661301 C2.56158914e-06,6.7627103 2.02933374,8.71323602 4.53265243,8.71323602 Z" id="path159_fill"></path>
                                        </g>
                                    </g>
                                </g>
                                <g transform="translate(82.000000, 122.000000)" fill-rule="nonzero" id="Vector">
                                    <g opacity="0.5" transform="translate(3.000000, 4.000000)" fill="url(#linearGradient-14)">
                                        <g>
                                            <g id="path160_fill-link" transform="translate(10.223766, 10.414437) rotate(-11.658571) translate(-10.223766, -10.414437) translate(2.223736, 1.914469)">
                                                <path d="M1.27323487,12.0177536 C-1.07843413,7.99848915 -0.0705794701,3.14182788 3.45692323,0.964697279 C6.98443672,-1.21242532 11.8557454,0.462283217 14.2074544,4.31412336 C16.5590634,8.33343786 15.5512595,13.1900491 12.023746,15.3672407 C8.49622251,17.5443323 3.62490387,16.0371381 1.27323487,12.0177536 Z" id="path160_fill"></path>
                                            </g>
                                        </g>
                                    </g>
                                    <g transform="translate(3.000000, 4.000000)">
                                        <g fill="url(#linearGradient-14)">
                                            <g id="path160_fill-link" transform="translate(10.223666, 10.414437) rotate(-11.658571) translate(-10.223666, -10.414437) translate(2.223636, 1.914469)">
                                                <path d="M1.27323487,12.0177536 C-1.07843413,7.99848915 -0.0705794701,3.14182788 3.45692323,0.964697279 C6.98443672,-1.21242532 11.8557454,0.462283217 14.2074544,4.31412336 C16.5590634,8.33343786 15.5512595,13.1900491 12.023746,15.3672407 C8.49622251,17.5443323 3.62490387,16.0371381 1.27323487,12.0177536 Z" id="path160_fill"></path>
                                            </g>
                                        </g>
                                        <g fill="#217588">
                                            <g id="path161_fill-link" transform="translate(10.061667, 10.424437) rotate(-11.658571) translate(-10.061667, -10.424437) translate(2.061636, 1.924469)">
                                                <path d="M1.26506484,12.2130529 C-1.08661416,8.1937384 -0.0787478013,3.16960777 3.61673384,0.992484172 C7.31221798,-1.18464543 12.1835466,0.322596756 14.5352556,4.50938261 C16.8868646,8.5286871 15.8790608,13.5528477 12.1835466,15.7299393 C8.65603312,17.7396316 3.61673384,16.2323374 1.26506484,12.2130529 Z M1.60101613,12.0455535 C3.95268512,15.8974387 8.48805248,17.4046329 12.015546,15.3950406 C15.5430595,13.3853484 16.3829627,8.5286871 14.1992543,4.67684196 C11.8475453,0.825007818 7.31221798,-0.682233369 3.78471448,1.32742488 C0.257202984,3.33707713 -0.582678229,8.1937484 1.60101613,12.0455535 Z" id="path161_fill"></path>
                                            </g>
                                        </g>
                                    </g>
                                    <g opacity="0.2" fill="#E3FBED">
                                        <g id="path162_fill-link" transform="translate(13.123793, 14.184969) rotate(-11.658571) translate(-13.123793, -14.184969) translate(2.123750, 2.685013)">
                                            <path d="M1.80526691,16.7690353 C-1.55426595,11.2425566 -0.0424812625,4.37621312 4.82883848,1.36173475 C9.86813776,-1.65274363 16.5871635,0.524370977 19.7787757,6.05091666 C23.1382885,11.5774553 21.6264827,18.4438289 16.7551641,21.4583172 C11.7158448,24.4728056 4.99681912,22.4631134 1.80526691,16.7690353 Z" id="path162_fill"></path>
                                        </g>
                                    </g>
                                </g>
                                <g transform="translate(151.000000, 60.000000)" fill-rule="nonzero" id="Vector">
                                    <g opacity="0.5" transform="translate(4.000000, 3.000000)" fill="url(#linearGradient-16)">
                                        <g>
                                            <g id="path163_fill-link" transform="translate(9.632186, 10.804436) rotate(-11.658571) translate(-9.632186, -10.804436) translate(1.632156, 2.304469)">
                                                <path d="M14.2074544,4.34688323 C11.8557454,0.327568737 6.98442672,-1.17967545 3.45692323,0.997454153 C-0.0705858701,3.17457776 -1.07843413,8.03124902 1.27323487,12.0505535 C3.62490387,16.069838 8.32825187,17.5771322 12.023746,15.3999406 C15.5512595,13.222849 16.5590634,8.36618773 14.2074544,4.34688323 Z" id="path163_fill"></path>
                                            </g>
                                        </g>
                                    </g>
                                    <g transform="translate(3.000000, 3.000000)">
                                        <g transform="translate(1.000000, 0.000000)" fill="url(#linearGradient-16)">
                                            <g id="path163_fill-link" transform="translate(9.632186, 10.804436) rotate(-11.658571) translate(-9.632186, -10.804436) translate(1.632156, 2.304469)">
                                                <path d="M14.2074544,4.34688323 C11.8557454,0.327568737 6.98442672,-1.17967545 3.45692323,0.997454153 C-0.0705858701,3.17457776 -1.07843413,8.03124902 1.27323487,12.0505535 C3.62490387,16.069838 8.32825187,17.5771322 12.023746,15.3999406 C15.5512595,13.222849 16.5590634,8.36618773 14.2074544,4.34688323 Z" id="path163_fill"></path>
                                            </g>
                                        </g>
                                        <g fill="#217588">
                                            <g id="path164_fill-link" transform="translate(10.442856, 10.674437) rotate(-11.658571) translate(-10.442856, -10.674437) translate(2.442826, 2.174469)">
                                                <path d="M1.26506484,12.2130529 C-1.08660416,8.1937484 -0.0787542013,3.16960777 3.61673384,0.992485172 C7.31221798,-1.18464543 12.1835466,0.322597756 14.5352556,4.50938261 C16.8868646,8.5286871 15.8790608,13.5528477 12.1835466,15.7299393 C8.65603312,17.9071309 3.61674384,16.2323374 1.26506484,12.2130529 Z M1.60101613,12.0455535 C3.95268512,15.8974387 8.48805248,17.4046329 12.015546,15.3950406 C15.5430595,13.3853484 16.3829627,8.5286971 14.1992543,4.67685196 C11.8475453,0.825015818 7.31222798,-0.682226369 3.78471448,1.32742488 C0.257208984,3.33708713 -0.750654872,8.1937484 1.60101613,12.0455535 Z" id="path164_fill"></path>
                                            </g>
                                        </g>
                                    </g>
                                    <g opacity="0.2" fill="#E3FBED">
                                        <g id="path165_fill-link" transform="translate(13.455062, 13.624968) rotate(-11.658571) translate(-13.455062, -13.624968) translate(2.455020, 2.125013)">
                                            <path d="M19.864376,6.05092666 C16.5048632,0.524375977 9.95377809,-1.65275363 4.9144788,1.36172475 C-0.124817478,4.37621312 -1.46861562,11.2425566 1.72293659,16.7691353 C5.08246945,22.295614 11.6335445,24.4728056 16.6728638,21.4583172 C21.8800837,18.4438289 23.2238889,11.5774553 19.864376,6.05092666 Z" id="path165_fill"></path>
                                        </g>
                                    </g>
                                    <g transform="translate(5.000000, 5.000000)" fill="#C6EB8F">
                                        <g id="path166_fill-link" transform="translate(8.667924, 8.871132) rotate(-42.177762) translate(-8.667924, -8.871132) translate(3.166939, 2.372678)">
                                            <path d="M5.37203288,12.0644284 C8.33892466,12.0644284 10.7441258,9.36374119 10.7441258,6.03223417 C10.7441258,2.70071716 8.33892466,0 5.37203288,0 C2.4051411,0 0,2.70071716 0,6.03223417 C0,9.36374119 2.4051411,12.0644284 5.37203288,12.0644284 Z" id="path166_fill"></path>
                                        </g>
                                    </g>
                                    <g transform="translate(7.000000, 7.000000)" fill="#E3FBED">
                                        <g id="path167_fill-link" transform="translate(6.935930, 6.638025) rotate(-42.169959) translate(-6.935930, -6.638025) translate(2.935075, 2.138939)">
                                            <path d="M3.52551347,8.04326638 C5.47260961,8.04326638 7.05104695,6.24271208 7.05104695,4.02162319 C7.05104695,1.8005443 5.47260961,0 3.52551347,0 C1.57842734,0 -2.56167748e-06,1.8005443 -2.56167748e-06,4.02162319 C-2.56167748e-06,6.24271208 1.57842734,8.04326638 3.52551347,8.04326638 Z" id="path167_fill"></path>
                                        </g>
                                    </g>
                                </g>
                                <g transform="translate(174.000000, 33.000000)" fill-rule="nonzero" id="Vector">
                                    <g transform="translate(3.000000, 3.000000)" fill="url(#linearGradient-18)" opacity="0.5">
                                        <g>
                                            <g>
                                                <g id="path168_fill-link" transform="translate(8.387423, 7.769486) rotate(-11.658571) translate(-8.387423, -7.769486) translate(1.887398, 1.269511)">
                                                    <path d="M10.5007402,3.10172804 C8.14911118,0.0872430635 4.45363704,-0.917586461 1.9339874,0.924597434 C-0.585664241,2.76677933 -0.585671241,6.78609383 1.59802611,9.8005822 C3.94969511,12.8150506 7.64518925,13.8198467 10.1648389,11.9776538 C12.5165479,9.96805155 12.6844485,6.11620641 10.5007402,3.10172804 Z" id="path168_fill"></path>
                                                </g>
                                            </g>
                                        </g>
                                    </g>
                                    <g transform="translate(3.000000, 2.000000)">
                                        <g transform="translate(0.000000, 1.000000)" fill="url(#linearGradient-18)">
                                            <g id="path168_fill-link" transform="translate(8.387023, 7.769486) rotate(-11.658571) translate(-8.387023, -7.769486) translate(1.886998, 1.269511)">
                                                <path d="M10.5007402,3.10172804 C8.14911118,0.0872430635 4.45363704,-0.917586461 1.9339874,0.924597434 C-0.585664241,2.76677933 -0.585671241,6.78609383 1.59802611,9.8005822 C3.94969511,12.8150506 7.64518925,13.8198467 10.1648389,11.9776538 C12.5165479,9.96805155 12.6844485,6.11620641 10.5007402,3.10172804 Z" id="path168_fill"></path>
                                            </g>
                                        </g>
                                        <g fill="#217588">
                                            <g id="path169_fill-link" transform="translate(8.204953, 9.039170) rotate(-11.658571) translate(-8.204953, -9.039170) translate(1.704929, 2.039197)">
                                                <path d="M1.66364637,10.0708612 C-0.688021633,7.05638278 -0.52003699,2.86959893 1.99960765,1.02741604 C2.16758829,0.859943683 2.33555894,0.859945683 2.50352958,0.692474329 C5.02317922,-0.814766857 8.71866336,0.190060267 10.9023417,3.20454764 C12.0782462,4.71178183 12.5821481,6.38649537 12.5821481,8.22867826 C12.5821481,9.9033918 11.7422449,11.410656 10.5664404,12.2479528 C10.3984398,12.4154521 10.2304391,12.4154521 10.0624385,12.5829515 C7.37485822,14.0901457 3.84734472,12.9178502 1.66364637,10.0708612 Z M2.16758829,1.19488539 C-0.184086704,3.03706829 -0.352070347,6.88891343 1.83162701,9.73592245 C4.01531536,12.5829515 7.37485822,13.5877476 9.72652722,12.0805534 C9.89450786,11.9130541 10.0624385,11.9130541 10.0624385,11.7455547 C11.238343,10.9082579 11.9102456,9.56845309 11.9102456,7.89373955 C11.9102456,6.21902601 11.4063436,4.54431247 10.3984398,3.20454764 C8.38272207,0.525002975 4.85520858,-0.647295503 2.50352958,0.859946683 C2.50352958,1.02741604 2.33555894,1.19488539 2.16758829,1.19488539 Z" id="path169_fill"></path>
                                            </g>
                                        </g>
                                    </g>
                                    <g opacity="0.2" fill="#E3FBED">
                                        <g id="path170_fill-link" transform="translate(10.928838, 10.842858) rotate(-11.658571) translate(-10.928838, -10.842858) translate(2.428805, 1.842893)">
                                            <path d="M14.645056,4.28048349 C11.4534438,0.0937040386 6.07823326,-1.24606519 2.7187004,1.26600512 C-0.640828452,3.77807543 -0.976786737,9.30462411 2.21476847,13.6588473 C5.40632069,17.8456312 10.7815413,19.185426 14.1410541,16.6733357 C17.6685676,13.993846 17.8365682,8.46726734 14.645056,4.28048349 Z" id="path170_fill"></path>
                                        </g>
                                    </g>
                                    <g transform="translate(4.000000, 3.000000)" fill="#C6EB8F">
                                        <g id="path171_fill-link" transform="translate(7.456027, 7.658737) rotate(-48.575502) translate(-7.456027, -7.658737) translate(2.955003, 2.159990)">
                                            <path d="M4.02797641,10.0569084 C6.25257252,10.0569084 8.05594281,7.80562142 8.05594281,5.02847421 C8.05594281,2.25132701 6.25257252,0 4.02797641,0 C1.80339029,0 2.56092264e-06,2.25132701 2.56092264e-06,5.02847421 C2.56092264e-06,7.80562142 1.80339029,10.0569084 4.02797641,10.0569084 Z" id="path171_fill"></path>
                                        </g>
                                    </g>
                                    <g transform="translate(6.000000, 6.000000)" fill="#E3FBED">
                                        <g id="path172_fill-link" transform="translate(5.103780, 4.573479) rotate(-48.562955) translate(-5.103780, -4.573479) translate(2.103217, 1.074414)">
                                            <path d="M2.68521442,6.70436659 C4.16822301,6.70436659 5.37042884,5.20353806 5.37042884,3.35218329 C5.37042884,1.50081853 4.16822301,0 2.68521442,0 C1.20221584,0 -5.12164211e-06,1.50081853 -5.12164211e-06,3.35218329 C-5.12164211e-06,5.20353806 1.20221584,6.70436659 2.68521442,6.70436659 Z" id="path172_fill"></path>
                                        </g>
                                    </g>
                                </g>
                                <g transform="translate(185.000000, 8.000000)" fill-rule="nonzero" id="Vector">
                                    <g transform="translate(4.000000, 4.000000)" fill="url(#linearGradient-20)" opacity="0.5">
                                        <g>
                                            <g>
                                                <g id="path173_fill-link" transform="translate(5.589469, 6.795482) rotate(-11.658571) translate(-5.589469, -6.795482) translate(1.089452, 1.795502)">
                                                    <path d="M7.37670823,1.92004259 C5.52896116,-0.0896119544 2.67337023,-0.592025717 1.16158444,0.747745116 C-0.518184983,2.2549813 -0.35021434,5.10200032 1.49752573,7.11165257 C3.3452728,9.12130482 6.20087373,9.62372288 7.88064015,8.28395805 C9.39243594,6.94418322 9.2244453,4.0971742 7.37670823,1.92004259 Z" id="path173_fill"></path>
                                                </g>
                                            </g>
                                        </g>
                                    </g>
                                    <g transform="translate(4.000000, 4.000000)">
                                        <g fill="url(#linearGradient-21)">
                                            <g id="path173_fill-link" transform="translate(5.589469, 6.795482) rotate(-11.658571) translate(-5.589469, -6.795482) translate(1.089452, 1.795502)">
                                                <path d="M7.37670823,1.92004259 C5.52896116,-0.0896119544 2.67337023,-0.592025717 1.16158444,0.747745116 C-0.518184983,2.2549813 -0.35021434,5.10200032 1.49752573,7.11165257 C3.3452728,9.12130482 6.20087373,9.62372288 7.88064015,8.28395805 C9.39243594,6.94418322 9.2244453,4.0971742 7.37670823,1.92004259 Z" id="path173_fill"></path>
                                            </g>
                                        </g>
                                        <g fill="#217588">
                                            <g id="path174_fill-link" transform="translate(6.069010, 6.644220) rotate(-11.658571) translate(-6.069010, -6.644220) translate(1.068991, 1.644239)">
                                                <path d="M1.49752573,7.33307172 C-0.35021434,5.15594011 -0.518184983,2.30893109 1.16158444,0.801687908 C1.32955509,0.634216554 1.49753573,0.4667452 1.66551637,0.4667452 C3.3452828,-0.538081925 5.86493244,0.131802492 7.54468887,1.97398239 C8.38457208,2.97881851 9.05647465,4.15111399 9.05647465,5.49087882 C9.05647465,6.6631843 8.72052337,7.83547978 7.88064015,8.50536719 C7.71266951,8.67283655 7.54467887,8.8403059 7.37670823,8.8403059 C5.6969418,9.84513203 3.17729216,9.17525461 1.49752573,7.33307172 Z M1.16158444,0.969159262 C-0.35020834,2.30893109 -0.182237697,5.15594011 1.49752573,7.16559236 C3.17729216,9.00777526 5.52897116,9.51019332 7.20873758,8.67283655 C7.37670823,8.50536719 7.54468887,8.50536719 7.71266951,8.33789784 C8.55255272,7.66801042 8.88850401,6.6631843 8.72052337,5.49087882 C8.72052337,4.31858334 8.0486108,3.14628786 7.20873758,2.14146174 C5.52897116,0.299273846 3.17729216,-0.203139216 1.49752573,0.634217554 C1.49752573,0.801688908 1.32955509,0.801687908 1.16158444,0.969159262 Z" id="path174_fill"></path>
                                            </g>
                                        </g>
                                    </g>
                                    <g opacity="0.2" fill="#E3FBED">
                                        <g id="path175_fill-link" transform="translate(10.166087, 10.253791) rotate(-53.512559) translate(-10.166087, -10.253791) translate(4.164320, 2.755105)">
                                            <path d="M5.53743071,14.0840313 C8.59567133,14.0840313 11.0748614,10.9311839 11.0748614,7.04202563 C11.0748614,3.15281736 8.59567133,0 5.53743071,0 C2.47919009,0 -5.12087804e-06,3.15281736 -5.12087804e-06,7.04202563 C-5.12087804e-06,10.9311839 2.47919009,14.0840313 5.53743071,14.0840313 Z" id="path175_fill"></path>
                                        </g>
                                    </g>
                                    <g transform="translate(4.000000, 5.000000)" fill="#C6EB8F">
                                        <g id="path176_fill-link" transform="translate(5.853951, 5.439064) rotate(-53.524435) translate(-5.853951, -5.439064) translate(2.853316, 1.440096)">
                                            <path d="M2.85237404,7.3767563 C4.42769764,7.3767563 5.70474808,5.72541246 5.70474808,3.68837815 C5.70474808,1.65134384 4.42769764,0 2.85237404,0 C1.27705044,0 5.12045434e-06,1.65134384 5.12045434e-06,3.68837815 C5.12045434e-06,5.72541246 1.27705044,7.3767563 2.85237404,7.3767563 Z" id="path176_fill"></path>
                                        </g>
                                    </g>
                                    <g transform="translate(6.000000, 7.000000)" fill="#E3FBED">
                                        <g id="path177_fill-link" transform="translate(3.726368, 3.335294) rotate(-53.500256) translate(-3.726368, -3.335294) translate(1.725897, 0.835880)">
                                            <path d="M1.84570425,4.69439972 C2.86505409,4.69439972 3.69139851,3.64352603 3.69139851,2.34719986 C3.69139851,1.0508737 2.86505409,0 1.84570425,0 C0.826349422,0 2.56029238e-06,1.0508737 2.56029238e-06,2.34719986 C2.56029238e-06,3.64352603 0.826349422,4.69439972 1.84570425,4.69439972 Z" id="path177_fill"></path>
                                        </g>
                                    </g>
                                </g>
                            </g>
                        </g>
                    </g>
                </g>
                <g id="sand" transform="translate(68.000000, 115.000000)" fill="url(#linearGradient-23)" fill-rule="nonzero">
                    <g id="path178_fill-link" transform="translate(54.842572, 17.192623) rotate(1.815892) translate(-54.842572, -17.192623) translate(0.842593, 2.192620)">
                        <polygon id="path178_fill" points="9.82911611 3.1330506 41.2007837 13.3540025 43.4925828 9.14235174 49.9603802 14.7921028 49.4001805 2.97897057 61.4192757 16.5384032 62.1831754 0 69.7204724 5.85521112 89.0160648 0 79.0751687 16.5384032 107.993957 5.85521112 94.4383627 29.7383057 0 29.7383057 20.167492 20.801404 11.4078955 16.3330031 25.26029 15.870703"></polygon>
                    </g>
                </g>
            </g>
        </g>
    </g>
</svg>
