
<svg width="800px" height="497px" viewBox="0 0 800 497" version="1.1" xmlns="http://www.w3.org/2000/svg" xmlns:xlink="http://www.w3.org/1999/xlink">
    <!-- Generator: Sketch 49.3 (51167) - http://www.bohemiancoding.com/sketch -->
    <desc>Created with Sketch.</desc>
    <defs></defs>
    <g id="Page-1" stroke="none" stroke-width="1" fill="none" fill-rule="evenodd" opacity="0.5">
        <g id="404-Mars-Illustration" fill="#F4F4F4" fill-rule="nonzero">
            <g id="Star-2" transform="translate(-6.000000, -10.000000)">
                <g id="Vector" transform="translate(179.000000, 125.000000)">
                    <g id="path1_fill-link" transform="translate(0.949000, 0.850000)">
                        <path d="M9.51023,4.74932 C5.70614,4.74932 4.75512,6.17412 4.75512,9.49864 C4.75512,6.17412 3.48709,4.74932 4.83715e-06,4.74932 C3.48709,4.74932 4.75512,3.32453 4.75512,0 C4.75512,3.32453 5.70614,4.74932 9.51023,4.74932 Z" id="path1_fill"></path>
                    </g>
                </g>
                <g id="Vector" transform="translate(261.000000, 35.000000)">
                    <g id="path2_fill-link" transform="translate(0.420000, 0.300000)">
                        <path d="M9.51022,4.74932 C5.70613,4.74932 4.75511,6.17412 4.75511,9.49864 C4.75511,6.17412 3.48708,4.74932 -4.83715e-06,4.74932 C3.48708,4.74932 4.75511,3.32452 4.75511,-1.20781e-06 C4.75511,3.32452 5.86463,4.74932 9.51022,4.74932 Z" id="path2_fill"></path>
                    </g>
                </g>
                <g id="Vector" transform="translate(762.000000, 378.000000)">
                    <g id="path3_fill-link" transform="translate(0.450500, 0.360000)">
                        <path d="M9.51021,4.74932 C5.70612,4.74932 4.75509,6.17412 4.75509,9.49864 C4.75509,6.17412 3.48706,4.74932 -1.93486e-05,4.74932 C3.48706,4.74932 4.75509,3.32453 4.75509,0 C4.75509,3.32453 5.70612,4.74932 9.51021,4.74932 Z" id="path3_fill"></path>
                    </g>
                </g>
                <g id="Vector" transform="translate(343.000000, 14.000000)">
                    <g id="path4_fill-link" transform="translate(0.208000, 0.880000)">
                        <path d="M9.51021,4.74932 C5.70612,4.74932 4.75512,6.17412 4.75512,9.49865 C4.75512,6.17412 3.48709,4.74932 4.83715e-06,4.74932 C3.48709,4.74932 4.75512,3.32453 4.75512,2.41563e-06 C4.75512,3.32453 5.70612,4.74932 9.51021,4.74932 Z" id="path4_fill"></path>
                    </g>
                </g>
                <g id="Vector" transform="translate(389.000000, 411.000000)">
                    <g id="path5_fill-link" transform="translate(0.016000, 0.600000)">
                        <path d="M9.51025,4.74932 C5.23064,4.74932 4.75513,5.38257 4.75513,9.49864 C4.75513,5.38257 4.12112,4.74932 1.93486e-05,4.74932 C4.12112,4.74932 4.75513,3.95777 4.75513,0 C4.75513,4.11608 5.23064,4.74932 9.51025,4.74932 Z" id="path5_fill"></path>
                    </g>
                </g>
                <g id="Vector" transform="translate(253.000000, 313.000000)">
                    <g id="path6_fill-link" transform="translate(0.654000, 0.770000)">
                        <path d="M9.51023,4.74932 C5.23063,4.74932 4.75512,5.38256 4.75512,9.49864 C4.75512,5.38256 4.1211,4.74932 4.83715e-06,4.74932 C4.1211,4.74932 4.75512,3.95776 4.75512,-4.83126e-06 C4.75512,3.95776 5.23063,4.74932 9.51023,4.74932 Z" id="path6_fill"></path>
                    </g>
                </g>
                <g id="Vector" transform="translate(261.000000, 104.000000)">
                    <g id="path7_fill-link" transform="translate(0.420000, 0.800000)">
                        <path d="M9.51022,4.74932 C5.23062,4.74932 4.75511,5.38256 4.75511,9.49864 C4.75511,5.38256 4.12109,4.74932 -4.83715e-06,4.74932 C4.12109,4.74932 4.75511,3.95776 4.75511,-4.83126e-06 C4.75511,4.11607 5.38912,4.74932 9.51022,4.74932 Z" id="path7_fill"></path>
                    </g>
                </g>
                <g id="Vector" transform="translate(284.000000, 164.000000)">
                    <g id="path8_fill-link" transform="translate(0.879000, 0.000000)">
                        <path d="M9.51023,4.74933 C5.23062,4.74933 4.75511,5.38258 4.75511,9.49865 C4.75511,5.38258 4.1211,4.74933 0,4.74933 C4.1211,4.74933 4.75511,3.95778 4.75511,9.66252e-06 C4.75511,3.95778 5.23062,4.74933 9.51023,4.74933 Z" id="path8_fill"></path>
                    </g>
                </g>
                <g id="Vector" transform="translate(319.000000, 188.000000)">
                    <g id="path9_fill-link" transform="translate(0.750000, 0.230000)">
                        <path d="M9.51023,4.74931 C5.23062,4.74931 4.75511,5.38256 4.75511,9.49863 C4.75511,5.38256 4.1211,4.74931 0,4.74931 C4.1211,4.74931 4.75511,3.95776 4.75511,-9.66252e-06 C4.75511,4.11607 5.23062,4.74931 9.51023,4.74931 Z" id="path9_fill"></path>
                    </g>
                </g>
                <g id="Vector" transform="translate(93.000000, 0.000000)">
                    <g id="path10_fill-link" transform="translate(0.406000, 0.630000)">
                        <path d="M11.4123,5.69919 C6.34015,5.69919 5.70614,6.33243 5.70614,11.3984 C5.70614,6.33243 4.91361,5.69919 -4.83715e-06,5.69919 C4.91361,5.69919 5.70614,4.74932 5.70614,-6.03907e-07 C5.70614,4.74932 6.34015,5.69919 11.4123,5.69919 Z" id="path10_fill"></path>
                    </g>
                </g>
                <g id="Vector" transform="translate(582.000000, 158.000000)">
                    <g id="path11_fill-link" transform="translate(0.548800, 0.310000)">
                        <path d="M11.4123,5.6992 C6.34015,5.6992 5.70613,6.33242 5.70613,11.3984 C5.70613,6.33242 4.9136,5.6992 -1.93486e-05,5.6992 C4.9136,5.6992 5.70613,4.74932 5.70613,0 C5.70613,4.74932 6.34015,5.6992 11.4123,5.6992 Z" id="path11_fill"></path>
                    </g>
                </g>
                <g id="Vector" transform="translate(490.000000, 217.000000)">
                    <g id="path12_fill-link" transform="translate(0.300000, 0.510000)">
                        <path d="M11.4123,5.69919 C6.34013,5.69919 5.70615,6.33244 5.70615,11.3984 C5.70615,6.33244 4.91363,5.69919 9.6743e-06,5.69919 C4.91363,5.69919 5.70615,4.74931 5.70615,-9.66252e-06 C5.70615,4.90762 6.34013,5.69919 11.4123,5.69919 Z" id="path12_fill"></path>
                    </g>
                </g>
                <g id="Vector" transform="translate(496.000000, 62.000000)">
                    <g id="path13_fill-link" transform="translate(0.006000, 0.690000)">
                        <path d="M11.4123,5.69918 C6.34014,5.69918 5.70612,6.33243 5.70612,11.3984 C5.70612,6.33243 4.91364,5.69918 1.93486e-05,5.69918 C4.91364,5.69918 5.70612,4.74932 5.70612,-2.41563e-06 C5.70612,4.74932 6.34014,5.69918 11.4123,5.69918 Z" id="path13_fill"></path>
                    </g>
                </g>
                <g id="Vector" transform="translate(281.000000, 130.000000)">
                    <g id="path14_fill-link" transform="translate(0.709000, 0.600000)">
                        <path d="M7.92519,3.95777 C4.4381,3.95777 3.96259,4.4327 3.96259,7.91554 C3.96259,4.4327 3.48708,3.95777 0,3.95777 C3.48708,3.95777 3.96259,3.32453 3.96259,0 C3.96259,3.32453 4.4381,3.95777 7.92519,3.95777 Z" id="path14_fill"></path>
                    </g>
                </g>
                <g id="Vector" transform="translate(449.000000, 285.000000)">
                    <g id="path15_fill-link" transform="translate(0.564000, 0.750000)">
                        <path d="M7.92518,3.95777 C4.4381,3.95777 3.96258,4.4327 3.96258,7.91554 C3.96258,4.4327 3.48707,3.95777 -9.6743e-06,3.95777 C3.48707,3.95777 3.96258,3.32453 3.96258,0 C3.96258,3.32453 4.4381,3.95777 7.92518,3.95777 Z" id="path15_fill"></path>
                    </g>
                </g>
                <g id="Vector" transform="translate(674.000000, 130.000000)">
                    <g id="path16_fill-link" transform="translate(0.956500, 0.600000)">
                        <path d="M7.9252,3.95777 C4.43811,3.95777 3.9626,4.4327 3.9626,7.91554 C3.9626,4.4327 3.48709,3.95777 9.6743e-06,3.95777 C3.48709,3.95777 3.9626,3.32453 3.9626,0 C4.12111,3.32453 4.43811,3.95777 7.9252,3.95777 Z" id="path16_fill"></path>
                    </g>
                </g>
                <g id="Vector" transform="translate(433.000000, 6.000000)">
                    <g id="path17_fill-link" transform="translate(0.238000, 0.330000)">
                        <path d="M7.9252,3.95777 C4.43811,3.95777 3.9626,4.4327 3.9626,7.91554 C3.9626,4.4327 3.48709,3.95777 9.6743e-06,3.95777 C3.48709,3.95777 3.9626,3.32453 3.9626,0 C3.9626,3.32453 4.43811,3.95777 7.9252,3.95777 Z" id="path17_fill"></path>
                    </g>
                </g>
                <g id="Vector" transform="translate(258.000000, 393.000000)">
                    <g id="path18_fill-link" transform="translate(0.250000, 0.400000)">
                        <path d="M7.92518,3.95777 C4.4381,3.95777 3.96259,4.4327 3.96259,7.91554 C3.96259,4.4327 3.48708,3.95777 -4.83715e-06,3.95777 C3.48708,3.95777 3.96259,3.32453 3.96259,0 C4.12109,3.32453 4.4381,3.95777 7.92518,3.95777 Z" id="path18_fill"></path>
                    </g>
                </g>
                <g id="Vector" transform="translate(80.000000, 254.000000)">
                    <g id="path19_fill-link" transform="translate(0.567000, 0.870000)">
                        <path d="M7.92518,3.95777 C4.4381,3.95777 3.96259,4.4327 3.96259,7.91554 C3.96259,4.4327 3.48708,3.95777 -2.41858e-06,3.95777 C3.48708,3.95777 3.96259,3.32453 3.96259,0 C3.96259,3.32453 4.4381,3.95777 7.92518,3.95777 Z" id="path19_fill"></path>
                    </g>
                </g>
                <g id="Vector" transform="translate(0.000000, 235.000000)">
                    <g id="path20_fill-link" transform="translate(0.365000, 0.880000)">
                        <path d="M6.34015,3.16621 C3.48708,3.16621 3.17008,3.48284 3.17008,6.33243 C3.17008,3.64115 2.69456,3.16621 0,3.16621 C2.69456,3.16621 3.17008,2.69128 3.17008,0 C3.17008,2.69128 3.64559,3.16621 6.34015,3.16621 Z" id="path20_fill"></path>
                    </g>
                </g>
                <g id="Vector" transform="translate(143.000000, 334.000000)">
                    <g id="path21_fill-link" transform="translate(0.493000, 0.820000)">
                        <path d="M6.34016,3.16621 C3.48709,3.16621 3.17008,3.48284 3.17008,6.33243 C3.17008,3.64115 2.69457,3.16621 4.83715e-06,3.16621 C2.69457,3.16621 3.17008,2.69128 3.17008,0 C3.32858,2.69128 3.64559,3.16621 6.34016,3.16621 Z" id="path21_fill"></path>
                    </g>
                </g>
                <g id="Vector" transform="translate(169.000000, 183.000000)">
                    <g id="path22_fill-link" transform="translate(0.805000, 0.630000)">
                        <path d="M6.34014,3.16621 C3.48707,3.16621 3.17007,3.48284 3.17007,6.33243 C3.17007,3.64115 2.69455,3.16621 -9.6743e-06,3.16621 C2.69455,3.16621 3.17007,2.69128 3.17007,0 C3.17007,2.69128 3.48707,3.16621 6.34014,3.16621 Z" id="path22_fill"></path>
                    </g>
                </g>
                <g id="Vector" transform="translate(377.000000, 348.000000)">
                    <g id="path23_fill-link" transform="translate(0.603000, 0.280000)">
                        <path d="M6.34015,3.16621 C3.48708,3.16621 3.17008,3.48284 3.17008,6.33243 C3.17008,3.64115 2.69456,3.16621 0,3.16621 C2.69456,3.16621 3.17008,2.69128 3.17008,0 C3.17008,2.69128 3.48708,3.16621 6.34015,3.16621 Z" id="path23_fill"></path>
                    </g>
                </g>
                <g id="Vector" transform="translate(390.000000, 186.000000)">
                    <g id="path24_fill-link" transform="translate(0.442000, 0.800000)">
                        <path d="M6.34016,3.16621 C3.48709,3.16621 3.17008,3.48284 3.17008,6.33243 C3.17008,3.64115 2.69457,3.16621 9.6743e-06,3.16621 C2.69457,3.16621 3.17008,2.69128 3.17008,0 C3.32859,2.69128 3.6456,3.16621 6.34016,3.16621 Z" id="path24_fill"></path>
                    </g>
                </g>
                <g id="Vector" transform="translate(578.000000, 217.000000)">
                    <g id="path25_fill-link" transform="translate(0.744800, 0.040000)">
                        <path d="M6.34014,3.16622 C3.48707,3.16622 3.17007,3.48285 3.17007,6.33244 C3.17007,3.64116 2.69455,3.16622 -9.6743e-06,3.16622 C2.69455,3.16622 3.17007,2.69129 3.17007,9.66252e-06 C3.17007,2.69129 3.64558,3.16622 6.34014,3.16622 Z" id="path25_fill"></path>
                    </g>
                </g>
                <g id="Vector" transform="translate(668.000000, 345.000000)">
                    <g id="path26_fill-link" transform="translate(0.774900, 0.270000)">
                        <path d="M6.34017,3.16622 C3.4871,3.16622 3.17009,3.48285 3.17009,6.33244 C3.17009,3.64116 2.69458,3.16622 1.93486e-05,3.16622 C2.69458,3.16622 3.17009,2.69129 3.17009,9.66252e-06 C3.17009,2.53298 3.4871,3.16622 6.34017,3.16622 Z" id="path26_fill"></path>
                    </g>
                </g>
                <g id="Vector" transform="translate(740.000000, 186.000000)">
                    <g id="path22_fill-link" transform="translate(0.418500, 0.800000)">
                        <path d="M6.34014,3.16621 C3.48707,3.16621 3.17007,3.48284 3.17007,6.33243 C3.17007,3.64115 2.69455,3.16621 -9.6743e-06,3.16621 C2.69455,3.16621 3.17007,2.69128 3.17007,0 C3.17007,2.69128 3.48707,3.16621 6.34014,3.16621 Z" id="path22_fill"></path>
                    </g>
                </g>
                <g id="Vector" transform="translate(585.000000, 43.000000)">
                    <g id="path27_fill-link" transform="translate(0.084900, 0.370000)">
                        <path d="M6.34014,3.16622 C3.48707,3.16622 3.17007,3.48284 3.17007,6.33243 C3.17007,3.64115 2.69455,3.16622 -9.6743e-06,3.16622 C2.69455,3.16622 3.17007,2.69129 3.17007,2.41563e-06 C3.17007,2.69129 3.48707,3.16622 6.34014,3.16622 Z" id="path27_fill"></path>
                    </g>
                </g>
                <g id="Vector" transform="translate(344.000000, 58.000000)">
                    <g id="path28_fill-link" transform="translate(0.793000, 0.730000)">
                        <path d="M6.34016,3.16621 C3.48709,3.16621 3.17008,3.48283 3.17008,6.33243 C3.17008,3.64114 2.69457,3.16621 4.83715e-06,3.16621 C2.69457,3.16621 3.17008,2.69128 3.17008,-2.41563e-06 C3.17008,2.69128 3.48709,3.16621 6.34016,3.16621 Z" id="path28_fill"></path>
                    </g>
                </g>
                <g id="Vector" transform="translate(149.000000, 84.000000)">
                    <g id="path28_fill-link" transform="translate(0.834000, 0.850000)">
                        <path d="M6.34016,3.16621 C3.48709,3.16621 3.17008,3.48283 3.17008,6.33243 C3.17008,3.64114 2.69457,3.16621 4.83715e-06,3.16621 C2.69457,3.16621 3.17008,2.69128 3.17008,-2.41563e-06 C3.17008,2.69128 3.48709,3.16621 6.34016,3.16621 Z" id="path28_fill"></path>
                    </g>
                </g>
                <g id="Vector" transform="translate(51.000000, 41.000000)">
                    <g id="path29_fill-link" transform="translate(0.561000, 0.310000)">
                        <path d="M11.0953,5.54087 C6.65716,5.54087 5.54764,7.28229 5.54764,11.0817 C5.54764,7.12398 4.1211,5.54087 4.83715e-06,5.54087 C4.1211,5.54087 5.54764,3.95777 5.54764,-2.41563e-06 C5.38913,3.95777 6.65716,5.54087 11.0953,5.54087 Z" id="path29_fill"></path>
                    </g>
                </g>
                <g id="Vector" transform="translate(77.000000, 106.000000)">
                    <g id="path30_fill-link" transform="translate(0.080000, 0.060000)">
                        <path d="M6.97417,3.48283 C4.27961,3.48283 3.48708,4.4327 3.48708,6.96568 C3.48708,4.59101 2.53606,3.48283 2.41858e-06,3.48283 C2.53606,3.48283 3.48708,2.53297 3.48708,0 C3.48708,2.53297 4.27961,3.48283 6.97417,3.48283 Z" id="path30_fill"></path>
                    </g>
                </g>
                <g id="Vector" transform="translate(59.000000, 319.000000)">
                    <g id="path31_fill-link" transform="translate(0.169000, 0.780000)">
                        <path d="M6.97417,3.48283 C4.2796,3.48283 3.48709,4.43269 3.48709,6.96566 C3.48709,4.591 2.53606,3.48283 -2.41858e-06,3.48283 C2.53606,3.48283 3.48709,2.53297 3.48709,0 C3.64559,2.37466 4.2796,3.48283 6.97417,3.48283 Z" id="path31_fill"></path>
                    </g>
                </g>
                <g id="Vector" transform="translate(609.000000, 91.000000)">
                    <g id="path32_fill-link" transform="translate(0.969900, 0.660000)">
                        <path d="M6.97417,3.48283 C4.2796,3.48283 3.48706,4.43271 3.48706,6.96568 C3.48706,4.59102 2.53607,3.48283 9.6743e-06,3.48283 C2.53607,3.48283 3.48706,2.53297 3.48706,2.41563e-06 C3.48706,2.53297 4.2796,3.48283 6.97417,3.48283 Z" id="path32_fill"></path>
                    </g>
                </g>
                <g id="Vector" transform="translate(661.000000, 235.000000)">
                    <g id="path33_fill-link" transform="translate(0.800720, 0.560000)">
                        <path d="M6.97418,3.48284 C4.27962,3.48284 3.48708,4.4327 3.48708,6.96567 C3.48708,4.59101 2.53604,3.48284 -1.93486e-05,3.48284 C2.53604,3.48284 3.48708,2.53298 3.48708,4.83126e-06 C3.64559,2.53298 4.27962,3.48284 6.97418,3.48284 Z" id="path33_fill"></path>
                    </g>
                </g>
                <g id="Vector" transform="translate(694.000000, 259.000000)">
                    <g id="path34_fill-link" transform="translate(0.135500, 0.310000)">
                        <path d="M6.97418,3.48284 C4.27961,3.48284 3.48707,4.4327 3.48707,6.96567 C3.48707,4.59101 2.53608,3.48284 1.93486e-05,3.48284 C2.53608,3.48284 3.48707,2.53298 3.48707,4.83126e-06 C3.64558,2.53298 4.27961,3.48284 6.97418,3.48284 Z" id="path34_fill"></path>
                    </g>
                </g>
                <g id="Vector" transform="translate(111.000000, 180.000000)">
                    <g id="path35_fill-link" transform="translate(0.951000, 0.150000)">
                        <path d="M6.97417,3.48284 C4.27961,3.48284 3.48708,4.4327 3.48708,6.96567 C3.48708,4.59101 2.53606,3.48284 2.41858e-06,3.48284 C2.53606,3.48284 3.48708,2.53298 3.48708,4.83126e-06 C3.48708,2.53298 4.27961,3.48284 6.97417,3.48284 Z" id="path35_fill"></path>
                    </g>
                </g>
                <g id="Vector" transform="translate(390.000000, 95.000000)">
                    <g id="path36_fill-link" transform="translate(0.125000, 0.140000)">
                        <path d="M6.97415,3.48284 C4.27958,3.48284 3.48709,4.4327 3.48709,6.96567 C3.48709,4.59101 2.53605,3.48284 -9.6743e-06,3.48284 C2.53605,3.48284 3.48709,2.53297 3.48709,-2.41563e-06 C3.6456,2.37466 4.27958,3.48284 6.97415,3.48284 Z" id="path36_fill"></path>
                    </g>
                </g>
                <g id="Vector" transform="translate(552.000000, 306.000000)">
                    <g id="path37_fill-link" transform="translate(0.116000, 0.800000)">
                        <path d="M6.97417,3.48284 C4.2796,3.48284 3.48706,4.4327 3.48706,6.96567 C3.48706,4.59101 2.53607,3.48284 9.6743e-06,3.48284 C2.53607,3.48284 3.48706,2.53298 3.48706,4.83126e-06 C3.64557,2.53298 4.43811,3.48284 6.97417,3.48284 Z" id="path37_fill"></path>
                    </g>
                </g>
                <g id="Vector" transform="translate(407.000000, 273.000000)">
                    <g id="path38_fill-link" transform="translate(0.878000, 0.560000)">
                        <path d="M6.97417,3.48284 C4.2796,3.48284 3.48706,4.4327 3.48706,6.96567 C3.48706,4.59101 2.53607,3.48284 9.6743e-06,3.48284 C2.53607,3.48284 3.48706,2.53298 3.48706,4.83126e-06 C3.48706,2.53298 4.2796,3.48284 6.97417,3.48284 Z" id="path38_fill"></path>
                    </g>
                </g>
                <g id="Vector" transform="translate(386.000000, 61.000000)">
                    <g id="path39_fill-link" transform="translate(0.797000, 0.420000)">
                        <path d="M6.97418,3.48284 C4.27962,3.48284 3.48708,4.4327 3.48708,6.96567 C3.48708,4.59101 2.53604,3.48284 -1.93486e-05,3.48284 C2.53604,3.48284 3.48708,2.53298 3.48708,4.83126e-06 C3.48708,2.53298 4.27962,3.48284 6.97418,3.48284 Z" id="path39_fill"></path>
                    </g>
                </g>
                <g id="Vector" transform="translate(613.000000, 25.000000)">
                    <g id="path40_fill-link" transform="translate(0.298500, 0.640000)">
                        <path d="M6.97418,3.48284 C4.27961,3.48284 3.48707,4.4327 3.48707,6.96567 C3.48707,4.59101 2.53608,3.48284 1.93486e-05,3.48284 C2.53608,3.48284 3.48707,2.53297 3.48707,1.20782e-06 C3.64558,2.37466 4.27961,3.48284 6.97418,3.48284 Z" id="path40_fill"></path>
                    </g>
                </g>
                <g id="Vector" transform="translate(665.000000, 40.000000)">
                    <g id="path41_fill-link" transform="translate(0.287720, 0.050000)">
                        <path d="M6.97416,3.48284 C4.27959,3.48284 3.4871,4.4327 3.4871,6.96567 C3.4871,4.59101 2.53606,3.48284 0,3.48284 C2.53606,3.48284 3.4871,2.53297 3.4871,-1.20782e-06 C3.4871,2.37466 4.27959,3.48284 6.97416,3.48284 Z" id="path41_fill"></path>
                    </g>
                </g>
                <g id="Vector" transform="translate(709.000000, 84.000000)">
                    <g id="path42_fill-link" transform="translate(0.510300, 0.530000)">
                        <path d="M6.97415,3.48283 C4.27958,3.48283 3.48709,4.43271 3.48709,6.96568 C3.48709,4.59102 2.53605,3.48283 -9.6743e-06,3.48283 C2.53605,3.48283 3.48709,2.53297 3.48709,2.41563e-06 C3.48709,2.53297 4.27958,3.48283 6.97415,3.48283 Z" id="path42_fill"></path>
                    </g>
                </g>
                <g id="Vector" transform="translate(755.000000, 73.000000)">
                    <g id="path43_fill-link" transform="translate(0.476300, 0.290000)">
                        <path d="M6.97415,3.48284 C4.27958,3.48284 3.48704,4.4327 3.48704,6.96567 C3.48704,4.59101 2.53605,3.48284 -9.6743e-06,3.48284 C2.53605,3.48284 3.48704,2.53298 3.48704,4.83126e-06 C3.48704,2.37467 4.27958,3.48284 6.97415,3.48284 Z" id="path43_fill"></path>
                    </g>
                </g>
                <g id="Vector" transform="translate(755.000000, 22.000000)">
                    <g id="path44_fill-link" transform="translate(0.476300, 0.160000)">
                        <path d="M6.97415,3.48284 C4.27958,3.48284 3.48704,4.4327 3.48704,6.96568 C3.48704,4.59101 2.53605,3.48284 -9.6743e-06,3.48284 C2.53605,3.48284 3.48704,2.53297 3.48704,0 C3.48704,2.53297 4.27958,3.48284 6.97415,3.48284 Z" id="path44_fill"></path>
                    </g>
                </g>
                <g id="Vector" transform="translate(184.000000, 19.000000)">
                    <g id="path45_fill-link" transform="translate(0.704000, 0.620000)">
                        <path d="M9.51023,4.74932 C6.49866,4.74932 4.75512,6.80736 4.75512,9.49865 C4.75512,6.80736 3.01158,4.59101 4.83715e-06,4.74932 C3.01158,4.59101 4.75512,2.53297 4.75512,2.41563e-06 C4.75512,2.53297 6.34015,4.74932 9.51023,4.74932 Z" id="path45_fill"></path>
                    </g>
                </g>
                <g id="Vector" transform="translate(486.000000, 116.000000)">
                    <g id="path46_fill-link" transform="translate(0.496000, 0.190000)">
                        <path d="M9.51025,4.74932 C6.49867,4.74932 4.75513,6.80736 4.75513,9.49865 C4.75513,6.80736 3.01159,4.59101 1.93486e-05,4.74932 C3.01159,4.59101 4.75513,2.53297 4.75513,2.41563e-06 C4.59663,2.53297 6.34017,4.74932 9.51025,4.74932 Z" id="path46_fill"></path>
                    </g>
                </g>
                <g id="Vector" transform="translate(799.000000, 267.000000)">
                    <g id="path47_fill-link" transform="translate(0.857000, 0.540000)">
                        <path d="M9.51026,4.74932 C6.49869,4.74932 4.75515,6.80736 4.75515,9.49864 C4.75515,6.80736 3.01161,4.59101 3.86972e-05,4.74932 C3.01161,4.59101 4.75515,2.53297 4.75515,0 C4.75515,2.53297 6.49869,4.74932 9.51026,4.74932 Z" id="path47_fill"></path>
                    </g>
                </g>
                <g id="Vector" transform="translate(252.000000, 249.000000)">
                    <g id="path48_fill-link" transform="translate(0.861000, 0.330000)">
                        <path d="M9.51023,4.74932 C6.49866,4.74932 4.75512,6.80736 4.75512,9.49864 C4.75512,6.80736 3.01158,4.59101 4.83715e-06,4.74932 C3.01158,4.59101 4.75512,2.53297 4.75512,0 C4.59661,2.53297 6.34015,4.74932 9.51023,4.74932 Z" id="path48_fill"></path>
                    </g>
                </g>
                <g id="Vector" transform="translate(58.000000, 397.000000)">
                    <g id="path49_fill-link" transform="translate(0.060000, 0.350000)">
                        <path d="M9.51023,4.74932 C6.49866,4.74932 4.75512,6.80736 4.75512,9.49864 C4.75512,6.80736 3.01157,4.59101 2.41858e-06,4.74932 C3.01157,4.59101 4.75512,2.53297 4.75512,0 C4.75512,2.53297 6.34015,4.74932 9.51023,4.74932 Z" id="path49_fill"></path>
                    </g>
                </g>
                <g id="Vector" transform="translate(25.000000, 154.000000)">
                    <g id="path50_fill-link" transform="translate(0.567000, 0.510000)">
                        <path d="M9.51023,4.74933 C6.49866,4.74933 4.75512,6.80737 4.75512,9.49865 C4.75512,6.80737 3.01157,4.59102 2.41858e-06,4.74933 C3.01157,4.59102 4.75512,2.53297 4.75512,-2.41563e-06 C4.75512,2.53297 6.34015,4.74933 9.51023,4.74933 Z" id="path50_fill"></path>
                    </g>
                </g>
                <g id="Vector" transform="translate(563.000000, 406.000000)">
                    <g id="path51_fill-link" transform="translate(0.845300, 0.850000)">
                        <path d="M9.51023,4.74932 C6.49865,4.74932 4.75511,6.80736 4.75511,9.49864 C4.75511,6.80736 3.01157,4.59101 0,4.74932 C3.01157,4.59101 4.75511,2.53297 4.75511,0 C4.75511,2.53297 6.49865,4.74932 9.51023,4.74932 Z" id="path51_fill"></path>
                    </g>
                </g>
                <g id="Vector" transform="translate(0.000000, 41.000000)">
                    <g id="path52_fill-link" transform="translate(0.048000, 0.160000)">
                        <path d="M7.29118,3.64115 C4.91362,3.64115 3.64558,5.22425 3.64558,7.28229 C3.64558,5.22425 2.21905,3.48283 -1.20929e-06,3.64115 C2.21905,3.48283 3.64558,1.89973 3.64558,0 C3.48708,1.89973 4.91362,3.64115 7.29118,3.64115 Z" id="path52_fill"></path>
                    </g>
                </g>
                <g id="Vector" transform="translate(152.000000, 262.000000)">
                    <g id="path53_fill-link" transform="translate(0.528000, 0.630000)">
                        <path d="M7.29118,3.64114 C4.91363,3.64114 3.64559,5.22425 3.64559,7.28229 C3.64559,5.22425 2.21905,3.48283 4.50495e-14,3.64114 C2.21905,3.48283 3.64559,1.89972 3.64559,-9.66252e-06 C3.64559,1.89972 4.91363,3.64114 7.29118,3.64114 Z" id="path53_fill"></path>
                    </g>
                </g>
                <g id="Vector" transform="translate(474.000000, 374.000000)">
                    <g id="path54_fill-link" transform="translate(0.449000, 0.720000)">
                        <path d="M7.29119,3.64115 C4.91364,3.64115 3.64558,5.22423 3.64558,7.28227 C3.64558,5.22423 2.21906,3.48284 9.6743e-06,3.64115 C2.21906,3.48284 3.64558,1.89975 3.64558,1.9325e-05 C3.64558,2.05806 4.91364,3.64115 7.29119,3.64115 Z" id="path54_fill"></path>
                    </g>
                </g>
                <g id="Vector" transform="translate(446.000000, 160.000000)">
                    <g id="path55_fill-link" transform="translate(0.077000, 0.360000)">
                        <path d="M7.29115,3.64116 C4.9136,3.64116 3.64559,5.22424 3.64559,7.28228 C3.64559,5.22424 2.21907,3.48285 1.93486e-05,3.64116 C2.21907,3.48285 3.64559,1.89973 3.64559,4.83126e-06 C3.64559,1.89973 4.9136,3.64116 7.29115,3.64116 Z" id="path55_fill"></path>
                    </g>
                </g>
                <g id="Vector" transform="translate(223.000000, 197.000000)">
                    <g id="path56_fill-link" transform="translate(0.379000, 0.880000)">
                        <path d="M7.29118,3.64115 C4.91362,3.64115 3.64559,5.22426 3.64559,7.2823 C3.64559,5.22426 2.21905,3.48284 -4.83715e-06,3.64115 C2.21905,3.48284 3.64559,1.89973 3.64559,0 C3.64559,1.89973 4.91362,3.64115 7.29118,3.64115 Z" id="path56_fill"></path>
                    </g>
                </g>
                <g id="Vector" transform="translate(108.000000, 61.000000)">
                    <g id="path57_fill-link" transform="translate(0.940000, 0.890000)">
                        <path d="M6.34015,3.16621 C4.2796,3.16621 3.17008,4.59101 3.17008,6.33243 C3.17008,4.4327 1.90205,3.0079 0,3.16621 C2.06055,3.0079 3.17008,1.74142 3.17008,-2.41563e-06 C3.17008,1.58311 4.2796,3.16621 6.34015,3.16621 Z" id="path57_fill"></path>
                    </g>
                </g>
                <g id="Vector" transform="translate(169.000000, 408.000000)">
                    <g id="path58_fill-link" transform="translate(0.964000, 0.440000)">
                        <path d="M6.34015,3.16621 C4.2796,3.16621 3.17008,4.59101 3.17008,6.33243 C3.17008,4.4327 1.90205,3.0079 0,3.16621 C2.06055,3.0079 3.17008,1.74142 3.17008,0 C3.01157,1.74142 4.1211,3.16621 6.34015,3.16621 Z" id="path58_fill"></path>
                    </g>
                </g>
                <g id="Vector" transform="translate(7.000000, 463.000000)">
                    <g id="path59_fill-link" transform="translate(0.497000, 0.210000)">
                        <path d="M6.34015,3.16622 C4.2796,3.16622 3.17008,4.59102 3.17008,6.33244 C3.17008,4.43271 1.90205,3.00791 0,3.16622 C2.06055,3.00791 3.17008,1.74143 3.17008,9.66252e-06 C3.01157,1.74143 4.1211,3.16622 6.34015,3.16622 Z" id="path59_fill"></path>
                    </g>
                </g>
                <g id="Vector" transform="translate(316.000000, 460.000000)">
                    <g id="path60_fill-link" transform="translate(0.580000, 0.050000)">
                        <path d="M6.34015,3.16622 C4.2796,3.16622 3.17008,4.59102 3.17008,6.33244 C3.17008,4.43271 1.90205,3.00791 0,3.16622 C2.06055,3.00791 3.17008,1.74143 3.17008,9.66252e-06 C3.17008,1.58312 4.2796,3.16622 6.34015,3.16622 Z" id="path60_fill"></path>
                    </g>
                </g>
                <g id="Vector" transform="translate(520.000000, 483.000000)">
                    <g id="path61_fill-link" transform="translate(0.891000, 0.160000)">
                        <path d="M6.34014,3.16623 C4.27959,3.16623 3.17007,4.59103 3.17007,6.33245 C3.17007,4.43272 1.90204,3.00792 -9.6743e-06,3.16623 C2.06054,3.00792 3.17007,1.74144 3.17007,1.9325e-05 C3.17007,1.74144 4.27959,3.16623 6.34014,3.16623 Z" id="path61_fill"></path>
                    </g>
                </g>
                <g id="Vector" transform="translate(675.000000, 405.000000)">
                    <g id="path62_fill-link" transform="translate(0.907500, 0.270000)">
                        <path d="M6.34017,3.16621 C4.27962,3.16621 3.17009,4.59101 3.17009,6.33243 C3.17009,4.4327 1.90206,3.0079 1.93486e-05,3.16621 C2.06057,3.0079 3.17009,1.74142 3.17009,0 C3.17009,1.58311 4.27962,3.16621 6.34017,3.16621 Z" id="path62_fill"></path>
                    </g>
                </g>
                <g id="Vector" transform="translate(679.000000, 177.000000)">
                    <g id="path63_fill-link" transform="translate(0.870100, 0.140000)">
                        <path d="M6.34017,3.16621 C4.27962,3.16621 3.17009,4.591 3.17009,6.33242 C3.17009,4.43269 1.90206,3.00789 1.93486e-05,3.16621 C2.06057,3.00789 3.17009,1.74141 3.17009,-9.66252e-06 C3.01159,1.5831 4.27962,3.16621 6.34017,3.16621 Z" id="path63_fill"></path>
                    </g>
                </g>
                <g id="Vector" transform="translate(329.000000, 286.000000)">
                    <g id="path64_fill-link" transform="translate(0.418000, 0.540000)">
                        <path d="M6.34016,3.16621 C4.27961,3.16621 3.17008,4.59101 3.17008,6.33243 C3.17008,4.4327 1.90205,3.0079 9.6743e-06,3.16621 C2.06056,3.0079 3.17008,1.74142 3.17008,0 C3.01158,1.74142 4.12111,3.16621 6.34016,3.16621 Z" id="path64_fill"></path>
                    </g>
                </g>
                <g id="Vector" transform="translate(60.000000, 202.000000)">
                    <g id="path65_fill-link" transform="translate(0.226000, 0.930000)">
                        <path d="M20.2885,10.1319 C13.7898,10.1319 10.1442,14.4063 10.1442,20.2638 C10.1442,14.4063 6.34016,9.81528 9.6743e-06,10.1319 C6.34016,9.81528 10.1442,5.54087 10.1442,-4.83126e-06 C10.1442,5.54087 13.7898,10.1319 20.2885,10.1319 Z" id="path65_fill"></path>
                    </g>
                </g>
                <g id="Vector" transform="translate(524.000000, 151.000000)">
                    <g id="path66_fill-link" transform="translate(0.219000, 0.340000)">
                        <path d="M6.34015,3.16621 C4.2796,3.16621 3.17008,4.59102 3.17008,6.33244 C3.17008,4.43271 1.90205,3.0079 0,3.16621 C2.06055,3.0079 3.17008,1.74142 3.17008,-2.41563e-06 C3.01157,1.74142 4.2796,3.16621 6.34015,3.16621 Z" id="path66_fill"></path>
                    </g>
                </g>
                <g id="Vector" transform="translate(626.000000, 290.000000)">
                    <g id="path67_fill-link" transform="translate(0.612900, 0.490000)">
                        <path d="M6.34016,3.16621 C4.27961,3.16621 3.17008,4.59101 3.17008,6.33243 C3.17008,4.4327 1.90205,3.0079 9.6743e-06,3.16621 C2.06056,3.0079 3.17008,1.74142 3.17008,0 C3.17008,1.74142 4.27961,3.16621 6.34016,3.16621 Z" id="path67_fill"></path>
                    </g>
                </g>
                <g id="Vector" transform="translate(321.000000, 375.000000)">
                    <g id="path68_fill-link" transform="translate(0.335000, 0.190000)">
                        <path d="M6.34015,3.16621 C4.2796,3.16621 3.17008,4.59101 3.17008,6.33243 C3.17008,4.4327 1.90205,3.0079 0,3.16621 C2.06055,3.0079 3.17008,1.74142 3.17008,0 C3.17008,1.74142 4.2796,3.16621 6.34015,3.16621 Z" id="path68_fill"></path>
                    </g>
                </g>
                <g id="Vector" transform="translate(153.000000, 424.000000)">
                    <g id="path69_fill-link" transform="translate(0.004000, 0.430000)">
                        <path d="M6.34016,3.16622 C4.27961,3.16622 3.17008,4.59102 3.17008,6.33244 C3.17008,4.43271 1.90205,3.00791 4.83715e-06,3.16622 C2.06055,3.00791 3.17008,1.74143 3.17008,9.66252e-06 C3.17008,1.74143 4.27961,3.16622 6.34016,3.16622 Z" id="path69_fill"></path>
                    </g>
                </g>
                <g id="Vector" transform="translate(641.000000, 460.000000)">
                    <g id="path70_fill-link" transform="translate(0.036700, 0.050000)">
                        <path d="M6.34017,3.16622 C4.27962,3.16622 3.17009,4.59102 3.17009,6.33244 C3.17009,4.43271 1.90206,3.00791 1.93486e-05,3.16622 C2.06057,3.00791 3.17009,1.74143 3.17009,9.66252e-06 C3.01159,1.58312 4.12112,3.16622 6.34017,3.16622 Z" id="path70_fill"></path>
                    </g>
                </g>
                <g id="Vector" transform="translate(764.000000, 476.000000)">
                    <g id="path71_fill-link" transform="translate(0.036000, 0.670000)">
                        <path d="M6.34013,3.16622 C4.27958,3.16622 3.17006,4.59102 3.17006,6.33244 C3.17006,4.43271 1.90203,3.00791 -1.93486e-05,3.16622 C2.06053,3.00791 3.17006,1.74143 3.17006,9.66252e-06 C3.17006,1.74143 4.27958,3.16622 6.34013,3.16622 Z" id="path71_fill"></path>
                    </g>
                </g>
                <g id="Vector" transform="translate(213.000000, 500.000000)">
                    <g id="path72_fill-link" transform="translate(0.235000, 0.730000)">
                        <path d="M6.34016,3.1662 C4.27961,3.1662 3.17008,4.59099 3.17008,6.33241 C3.17008,4.43268 1.90205,3.00788 4.83715e-06,3.1662 C2.06055,3.00788 3.17008,1.7414 3.17008,-1.9325e-05 C3.17008,1.7414 4.27961,3.1662 6.34016,3.1662 Z" id="path72_fill"></path>
                    </g>
                </g>
                <g id="Vector" transform="translate(788.000000, 127.000000)">
                    <g id="path73_fill-link" transform="translate(0.287000, 0.430000)">
                        <path d="M6.34011,3.16621 C4.27956,3.16621 3.17004,4.59101 3.17004,6.33243 C3.17004,4.4327 1.90201,3.0079 -3.86972e-05,3.16621 C2.06051,3.0079 3.17004,1.74142 3.17004,0 C3.17004,1.74142 4.27956,3.16621 6.34011,3.16621 Z" id="path73_fill"></path>
                    </g>
                </g>
            </g>
        </g>
    </g>
</svg>
