<?xml version="1.0" encoding="utf-8"?>
<!-- Generator: Adobe Illustrator 21.0.0, SVG Export Plug-In . SVG Version: 6.00 Build 0)  -->
<svg version="1.1" id="图层_1" xmlns="http://www.w3.org/2000/svg" xmlns:xlink="http://www.w3.org/1999/xlink" x="0px" y="0px"
	 viewBox="0 0 1024 1024" style="enable-background:new 0 0 1024 1024;" xml:space="preserve">
<g id="图层_38">
	<path d="M270,741.7c0,23.4,19.1,42.5,42.6,42.5h48.7v120.4c0,30.5,24.5,55.4,54.6,55.4c30.2,0,54.6-24.8,54.6-55.4V784.1h85v120.4
		c0,30.5,24.5,55.4,54.6,55.4c30.2,0,54.6-24.8,54.6-55.4V784.1h48.7c23.5,0,42.6-19.1,42.6-42.5V346.4H270V741.7L270,741.7z
		 M627.1,141.6l44.9-65c2.6-3.8,2-8.9-1.5-11.4c-3.5-2.4-8.5-1.2-11.1,2.6l-46.6,67.6c-30.7-12.1-64.9-18.8-100.8-18.8
		s-70.1,6.7-100.8,18.8l-46.6-67.5c-2.6-3.8-7.6-5.1-11.1-2.6c-3.5,2.4-4.1,7.4-1.5,11.4l44.9,65c-71.4,33.2-121.4,96.1-127.8,169.6
		h486C748.5,237.7,698.4,174.8,627.1,141.6L627.1,141.6z M409.4,244.1c-14.8,0-26.9-12-26.9-26.9c0-14.8,12-26.9,26.9-26.9
		c14.8,0,26.9,12,26.9,26.9C436.2,232.1,424.2,244.1,409.4,244.1z M617.8,244.1c-14.8,0-26.9-12-26.9-26.9c0-14.8,12-26.9,26.9-26.9
		c14.8,0,26.9,12,26.9,26.9C644.6,232.1,632.6,244.1,617.8,244.1z M841.2,344.8c-30.2,0-54.6,24.8-54.6,55.4v216.4
		c0,30.5,24.5,55.4,54.6,55.4c30.2,0,54.6-24.8,54.6-55.4V400.1C895.9,369.5,871.5,344.8,841.2,344.8L841.2,344.8z M182.6,344.8
		c-30.2,0-54.6,24.8-54.6,55.4v216.4c0,30.5,24.5,55.4,54.6,55.4c30.2,0,54.6-24.8,54.6-55.4V400.1
		C237.2,369.5,212.7,344.8,182.6,344.8L182.6,344.8z"/>
</g>
</svg>
