<?xml version="1.0" encoding="utf-8"?>
<!-- Generator: Adobe Illustrator 21.0.0, SVG Export Plug-In . SVG Version: 6.00 Build 0)  -->
<svg version="1.1" id="图层_1" xmlns="http://www.w3.org/2000/svg" xmlns:xlink="http://www.w3.org/1999/xlink" x="0px" y="0px"
	 viewBox="0 0 1024 1024" style="enable-background:new 0 0 1024 1024;" xml:space="preserve">
<g>
	<path d="M352,96H224c-70.4,0-128,57.6-128,128v128c0,70.4,57.6,128,128,128h192c35.2,0,64-28.8,64-64V224
		C480,153.6,422.4,96,352,96z"/>
	<path d="M800,96H672c-70.4,0-128,57.6-128,128v192c0,35.2,28.8,64,64,64h192c70.4,0,128-57.6,128-128V224
		C928,153.6,870.4,96,800,96z"/>
	<path d="M416,544H224c-70.4,0-128,57.6-128,128v128c0,70.4,57.6,128,128,128h128c70.4,0,128-57.6,128-128V608
		C480,572.8,451.2,544,416,544z"/>
	<path d="M800,544H608c-35.2,0-64,28.8-64,64v192c0,70.4,57.6,128,128,128h128c70.4,0,128-57.6,128-128V672
		C928,601.6,870.4,544,800,544z"/>
</g>
</svg>
