<?xml version="1.0" encoding="utf-8"?>
<!-- Generator: Adobe Illustrator 21.0.0, SVG Export Plug-In . SVG Version: 6.00 Build 0)  -->
<svg version="1.1" id="图层_1" xmlns="http://www.w3.org/2000/svg" xmlns:xlink="http://www.w3.org/1999/xlink" x="0px" y="0px"
	 viewBox="0 0 1024 1024" style="enable-background:new 0 0 1024 1024;" xml:space="preserve">
<g>
	<path d="M352,96H224c-70.4,0-128,57.6-128,128v128c0,70.4,57.6,128,128,128h192c35.2,0,64-28.8,64-64V224
		C480,153.6,422.4,96,352,96z M416,415.9l-0.1,0.1H224c-17,0-33-6.7-45.1-18.9S160,369,160,352V224c0-17,6.7-33,18.9-45.1
		S207,160,224,160h128c17,0,33,6.7,45.1,18.9S416,207,416,224V415.9z"/>
	<path d="M800,96H672c-70.4,0-128,57.6-128,128v192c0,35.2,28.8,64,64,64h192c70.4,0,128-57.6,128-128V224
		C928,153.6,870.4,96,800,96z M864,352c0,17-6.7,33-18.9,45.1S817,416,800,416H608.1l-0.1-0.1V224c0-17,6.7-33,18.9-45.1
		S655,160,672,160h128c17,0,33,6.7,45.1,18.9S864,207,864,224V352z"/>
	<path d="M416,544H224c-70.4,0-128,57.6-128,128v128c0,70.4,57.6,128,128,128h128c70.4,0,128-57.6,128-128V608
		C480,572.8,451.2,544,416,544z M416,800c0,17-6.7,33-18.9,45.1S369,864,352,864H224c-17,0-33-6.7-45.1-18.9S160,817,160,800V672
		c0-17,6.7-33,18.9-45.1S207,608,224,608h191.9l0.1,0.1V800z"/>
	<path d="M800,544H608c-35.2,0-64,28.8-64,64v192c0,70.4,57.6,128,128,128h128c70.4,0,128-57.6,128-128V672
		C928,601.6,870.4,544,800,544z M864,800c0,17-6.7,33-18.9,45.1S817,864,800,864H672c-17,0-33-6.7-45.1-18.9S608,817,608,800V608.1
		l0.1-0.1H800c17,0,33,6.7,45.1,18.9S864,655,864,672V800z"/>
</g>
</svg>
