<?xml version="1.0" encoding="utf-8"?>
<!-- Generator: Adobe Illustrator 21.0.0, SVG Export Plug-In . SVG Version: 6.00 Build 0)  -->
<svg version="1.1" id="图层_1" xmlns="http://www.w3.org/2000/svg" xmlns:xlink="http://www.w3.org/1999/xlink" x="0px" y="0px"
	 viewBox="0 0 1024 1024" style="enable-background:new 0 0 1024 1024;" xml:space="preserve">
<g id="图层_170">
	<path d="M64,512c0,247.4,200.6,448,448,448s448-200.6,448-448S759.4,64,512,64S64,264.6,64,512z M288,512c0-9.5,4.2-18.5,11.5-24.6
		l192-160c9.5-7.9,22.8-9.7,34.1-4.4c11.2,5.3,18.4,16.6,18.4,29v64h160c17.6,0,32,14.4,32,32v128c0,17.6-14.4,32-32,32H544v64
		c0,12.4-7.2,23.7-18.4,29c-4.3,2-9,3-13.6,3c-7.3,0-14.6-2.5-20.5-7.4l-192-160C292.2,530.5,288,521.5,288,512z"/>
</g>
</svg>
