<?xml version="1.0" encoding="utf-8"?>
<!-- Generator: Adobe Illustrator 21.0.0, SVG Export Plug-In . SVG Version: 6.00 Build 0)  -->
<svg version="1.1" id="图层_1" xmlns="http://www.w3.org/2000/svg" xmlns:xlink="http://www.w3.org/1999/xlink" x="0px" y="0px"
	 viewBox="0 0 1024 1024" style="enable-background:new 0 0 1024 1024;" xml:space="preserve">
<path d="M886.6,489.4l-352-352c-6.2-6.3-14.4-9.4-22.6-9.4s-16.4,3.2-22.6,9.4c-6.3,6.2-9.4,14.4-9.4,22.6v160H160
	c-17.7,0-32,14.3-32,32v320c0,17.7,14.3,32,32,32h320v160c0,8.2,3.2,16.4,9.4,22.6c6.2,6.3,14.4,9.4,22.6,9.4
	c8.2,0,16.4-3.2,22.6-9.4l352-352c6.3-6.2,9.4-14.4,9.4-22.6S892.8,495.6,886.6,489.4z"/>
</svg>
