<?xml version="1.0" encoding="utf-8"?>
<!-- Generator: Adobe Illustrator 21.0.0, SVG Export Plug-In . SVG Version: 6.00 Build 0)  -->
<svg version="1.1" id="图层_1" xmlns="http://www.w3.org/2000/svg" xmlns:xlink="http://www.w3.org/1999/xlink" x="0px" y="0px"
	 viewBox="0 0 1024 1024" style="enable-background:new 0 0 1024 1024;" xml:space="preserve">
<path d="M512,64C264.6,64,64,264.6,64,512s200.6,448,448,448s448-200.6,448-448S759.4,64,512,64z M696.6,532.5l-160,192
	c-6.1,7.3-15.1,11.5-24.6,11.5c-9.5,0-18.5-4.2-24.6-11.5l-160-192c-4.9-5.9-7.4-13.1-7.4-20.5c0-4.6,1-9.2,3-13.6
	c5.3-11.2,16.6-18.4,29-18.4h64V320c0-17.6,14.4-32,32-32h128c17.6,0,32,14.4,32,32v160h64c12.4,0,23.7,7.2,29,18.4
	C706.2,509.7,704.5,522.9,696.6,532.5z"/>
</svg>
