<?xml version="1.0" encoding="utf-8"?>
<!-- Generator: Adobe Illustrator 21.0.0, SVG Export Plug-In . SVG Version: 6.00 Build 0)  -->
<svg version="1.1" id="图层_1" xmlns="http://www.w3.org/2000/svg" xmlns:xlink="http://www.w3.org/1999/xlink" x="0px" y="0px"
	 viewBox="0 0 1024 1024" style="enable-background:new 0 0 1024 1024;" xml:space="preserve">
<path d="M512,64C264.6,64,64,264.6,64,512s200.6,448,448,448s448-200.6,448-448S759.4,64,512,64z M724.5,536.6l-192,160
	c-5.9,4.9-13.1,7.4-20.5,7.4c-4.6,0-9.2-1-13.6-3c-11.2-5.3-18.4-16.6-18.4-29v-64H320c-17.6,0-32-14.4-32-32V448
	c0-17.6,14.4-32,32-32h160v-64c0-12.4,7.2-23.7,18.4-29s24.5-3.6,34.1,4.4l192,160c7.3,6.1,11.5,15.1,11.5,24.6
	S731.8,530.5,724.5,536.6z"/>
</svg>
