<?xml version="1.0" encoding="utf-8"?>
<!-- Generator: Adobe Illustrator 21.0.0, SVG Export Plug-In . SVG Version: 6.00 Build 0)  -->
<svg version="1.1" id="图层_1" xmlns="http://www.w3.org/2000/svg" xmlns:xlink="http://www.w3.org/1999/xlink" x="0px" y="0px"
	 viewBox="0 0 1024 1024" style="enable-background:new 0 0 1024 1024;" xml:space="preserve">
<path d="M512,64C264.6,64,64,264.6,64,512s200.6,448,448,448s448-200.6,448-448S759.4,64,512,64z M694.6,566.6l-160,160
	c-12.5,12.5-32.8,12.5-45.3,0l-160-160c-6.2-6.2-9.4-14.4-9.4-22.6s3.1-16.4,9.4-22.6c12.5-12.5,32.8-12.5,45.3,0L480,626.7V320
	c0-17.7,14.3-32,32-32s32,14.3,32,32v306.7l105.4-105.4c12.5-12.5,32.8-12.5,45.3,0C707.1,533.9,707.1,554.1,694.6,566.6z"/>
</svg>
