<?xml version="1.0" encoding="utf-8"?>
<!-- Generator: Adobe Illustrator 21.0.0, SVG Export Plug-In . SVG Version: 6.00 Build 0)  -->
<svg version="1.1" id="图层_1" xmlns="http://www.w3.org/2000/svg" xmlns:xlink="http://www.w3.org/1999/xlink" x="0px" y="0px"
	 viewBox="0 0 1024 1024" style="enable-background:new 0 0 1024 1024;" xml:space="preserve">
<path d="M864,320H544V160c0-8.2-3.1-16.4-9.4-22.6c-6.2-6.2-14.4-9.4-22.6-9.4c-8.2,0-16.4,3.1-22.6,9.4l-352,352
	c-6.2,6.2-9.4,14.4-9.4,22.6s3.1,16.4,9.4,22.6l352,352c6.2,6.2,14.4,9.4,22.6,9.4c8.2,0,16.4-3.1,22.6-9.4
	c6.2-6.2,9.4-14.4,9.4-22.6V704h320c17.7,0,32-14.3,32-32V352C896,334.3,881.7,320,864,320z"/>
</svg>
