<?xml version="1.0" encoding="utf-8"?>
<!-- Generator: Adobe Illustrator 21.0.0, SVG Export Plug-In . SVG Version: 6.00 Build 0)  -->
<svg version="1.1" id="图层_1" xmlns="http://www.w3.org/2000/svg" xmlns:xlink="http://www.w3.org/1999/xlink" x="0px" y="0px"
	 viewBox="0 0 1024 1024" style="enable-background:new 0 0 1024 1024;" xml:space="preserve">
<path d="M512,64C264.6,64,64,264.6,64,512s200.6,448,448,448s448-200.6,448-448S759.4,64,512,64z M694.6,502.6
	c-12.5,12.5-32.8,12.5-45.3,0L544,397.3V704c0,17.7-14.3,32-32,32s-32-14.3-32-32V397.3L374.6,502.6c-12.5,12.5-32.8,12.5-45.3,0
	c-6.2-6.2-9.4-14.4-9.4-22.6s3.1-16.4,9.4-22.6l160-160c12.5-12.5,32.8-12.5,45.3,0l160,160C707.1,469.9,707.1,490.1,694.6,502.6z"
	/>
</svg>
