<?xml version="1.0" encoding="utf-8"?>
<!-- Generator: Adobe Illustrator 21.0.0, SVG Export Plug-In . SVG Version: 6.00 Build 0)  -->
<svg version="1.1" id="图层_1" xmlns="http://www.w3.org/2000/svg" xmlns:xlink="http://www.w3.org/1999/xlink" x="0px" y="0px"
	 viewBox="0 0 1024 1024" style="enable-background:new 0 0 1024 1024;" xml:space="preserve">
<path d="M512,64C264.6,64,64,264.6,64,512s200.6,448,448,448s448-200.6,448-448S759.4,64,512,64z M704,544H397.3l105.4,105.4
	c12.5,12.5,12.5,32.8,0,45.3c-6.2,6.2-14.4,9.4-22.6,9.4s-16.4-3.1-22.6-9.4l-160-160c-12.5-12.5-12.5-32.8,0-45.3l160-160
	c12.5-12.5,32.8-12.5,45.3,0c12.5,12.5,12.5,32.8,0,45.3L397.3,480H704c17.7,0,32,14.3,32,32S721.7,544,704,544z"/>
</svg>
