<?xml version="1.0" encoding="utf-8"?>
<!-- Generator: Adobe Illustrator 21.0.0, SVG Export Plug-In . SVG Version: 6.00 Build 0)  -->
<svg version="1.1" id="图层_1" xmlns="http://www.w3.org/2000/svg" xmlns:xlink="http://www.w3.org/1999/xlink" x="0px" y="0px"
	 viewBox="0 0 1024 1024" style="enable-background:new 0 0 1024 1024;" xml:space="preserve">
<path d="M512,64C264.6,64,64,264.6,64,512s200.6,448,448,448s448-200.6,448-448S759.4,64,512,64z M726.6,534.6l-160,160
	c-6.2,6.2-14.4,9.4-22.6,9.4s-16.4-3.1-22.6-9.4c-12.5-12.5-12.5-32.8,0-45.3L626.7,544H320c-17.7,0-32-14.3-32-32s14.3-32,32-32
	h306.7L521.4,374.6c-12.5-12.5-12.5-32.8,0-45.3s32.8-12.5,45.3,0l160,160C739.1,501.9,739.1,522.1,726.6,534.6z"/>
</svg>
