<?xml version="1.0" encoding="utf-8"?>
<!-- Generator: Adobe Illustrator 21.0.0, SVG Export Plug-In . SVG Version: 6.00 Build 0)  -->
<svg version="1.1" id="图层_1" xmlns="http://www.w3.org/2000/svg" xmlns:xlink="http://www.w3.org/1999/xlink" x="0px" y="0px"
	 viewBox="0 0 1024 1024" style="enable-background:new 0 0 1024 1024;" xml:space="preserve">
<path d="M800,96H224c-70.4,0-128,57.6-128,128v576c0,70.4,57.6,128,128,128h576c70.4,0,128-57.6,128-128V224
	C928,153.6,870.4,96,800,96z M704,544H397.3l105.4,105.4c12.5,12.5,12.5,32.8,0,45.3c-6.2,6.2-14.4,9.4-22.6,9.4s-16.4-3.1-22.6-9.4
	l-160-160c-12.5-12.5-12.5-32.8,0-45.3l160-160c12.5-12.5,32.8-12.5,45.3,0c12.5,12.5,12.5,32.8,0,45.3L397.3,480H704
	c17.7,0,32,14.3,32,32S721.7,544,704,544z"/>
</svg>
