<?xml version="1.0" encoding="utf-8"?>
<!-- Generator: Adobe Illustrator 21.0.0, SVG Export Plug-In . SVG Version: 6.00 Build 0)  -->
<svg version="1.1" id="图层_1" xmlns="http://www.w3.org/2000/svg" xmlns:xlink="http://www.w3.org/1999/xlink" x="0px" y="0px"
	 viewBox="0 0 1024 1024" style="enable-background:new 0 0 1024 1024;" xml:space="preserve">
<g id="图层_40">
	<g>
		<g>
			<path d="M800,176h-96v-32c0-17.6-14.4-32-32-32l0,0c-17.6,0-32,14.4-32,32v32H384v-32c0-17.6-14.4-32-32-32l0,0
				c-17.6,0-32,14.4-32,32v32h-96c-70.4,0-128,57.6-128,128v480c0,70.4,57.6,128,128,128h576c70.4,0,128-57.6,128-128V304
				C928,233.6,870.4,176,800,176z M864,784c0,17-6.7,33-18.9,45.1C833,841.3,817,848,800,848H224c-17,0-33-6.7-45.1-18.9
				C166.7,817,160,801,160,784V304c0-17,6.7-33,18.9-45.1C191,246.7,207,240,224,240h96v32c0,17.6,14.4,32,32,32l0,0
				c17.6,0,32-14.4,32-32v-32h256v32c0,17.6,14.4,32,32,32l0,0c17.6,0,32-14.4,32-32v-32h96c17,0,33,6.7,45.1,18.9
				C857.3,271,864,287,864,304V784z"/>
		</g>
		<g>
			<path d="M352,400h-64c-17.6,0-32,14.4-32,32l0,0c0,17.6,14.4,32,32,32h64c17.6,0,32-14.4,32-32l0,0C384,414.4,369.6,400,352,400z
				"/>
		</g>
		<g>
			<path d="M544,400h-64c-17.6,0-32,14.4-32,32l0,0c0,17.6,14.4,32,32,32h64c17.6,0,32-14.4,32-32l0,0C576,414.4,561.6,400,544,400z
				"/>
		</g>
		<g>
			<path d="M736,400h-64c-17.6,0-32,14.4-32,32l0,0c0,17.6,14.4,32,32,32h64c17.6,0,32-14.4,32-32l0,0C768,414.4,753.6,400,736,400z
				"/>
		</g>
		<g>
			<path d="M352,528h-64c-17.6,0-32,14.4-32,32l0,0c0,17.6,14.4,32,32,32h64c17.6,0,32-14.4,32-32l0,0C384,542.4,369.6,528,352,528z
				"/>
		</g>
		<g>
			<path d="M544,528h-64c-17.6,0-32,14.4-32,32l0,0c0,17.6,14.4,32,32,32h64c17.6,0,32-14.4,32-32l0,0C576,542.4,561.6,528,544,528z
				"/>
		</g>
		<g>
			<path d="M736,528h-64c-17.6,0-32,14.4-32,32l0,0c0,17.6,14.4,32,32,32h64c17.6,0,32-14.4,32-32l0,0C768,542.4,753.6,528,736,528z
				"/>
		</g>
		<g>
			<path d="M352,656h-64c-17.6,0-32,14.4-32,32l0,0c0,17.6,14.4,32,32,32h64c17.6,0,32-14.4,32-32l0,0C384,670.4,369.6,656,352,656z
				"/>
		</g>
		<g>
			<path d="M544,656h-64c-17.6,0-32,14.4-32,32l0,0c0,17.6,14.4,32,32,32h64c17.6,0,32-14.4,32-32l0,0C576,670.4,561.6,656,544,656z
				"/>
		</g>
		<g>
			<path d="M736,656h-64c-17.6,0-32,14.4-32,32l0,0c0,17.6,14.4,32,32,32h64c17.6,0,32-14.4,32-32l0,0C768,670.4,753.6,656,736,656z
				"/>
		</g>
	</g>
</g>
</svg>
