<?xml version="1.0" encoding="utf-8"?>
<!-- Generator: Adobe Illustrator 21.0.0, SVG Export Plug-In . SVG Version: 6.00 Build 0)  -->
<svg version="1.1" id="图层_1" xmlns="http://www.w3.org/2000/svg" xmlns:xlink="http://www.w3.org/1999/xlink" x="0px" y="0px"
	 viewBox="0 0 1024 1024" style="enable-background:new 0 0 1024 1024;" xml:space="preserve">
<g id="图层_33">
	<g>
		<path d="M896,448c0-212.1-171.9-384-384-384S128,235.9,128,448c0,201.3,154.9,366.4,352,382.7V896H320c-17.6,0-32,14.4-32,32
			s14.4,32,32,32h384c17.6,0,32-14.4,32-32s-14.4-32-32-32H544v-65.3C741.1,814.4,896,649.3,896,448z M285.7,674.3
			c-29.4-29.4-52.5-63.6-68.6-101.7C200.5,533.1,192,491.2,192,448s8.5-85.1,25.1-124.5c16.1-38.1,39.2-72.3,68.6-101.7
			s63.6-52.5,101.7-68.6C426.9,136.5,468.8,128,512,128s85.1,8.5,124.5,25.1c38.1,16.1,72.3,39.2,101.7,68.6s52.5,63.6,68.6,101.7
			C823.5,362.9,832,404.8,832,448s-8.5,85.1-25.1,124.5c-16.1,38.1-39.2,72.3-68.6,101.7c-29.4,29.4-63.6,52.5-101.7,68.6
			C597.1,759.5,555.2,768,512,768s-85.1-8.5-124.5-25.1C349.4,726.8,315.1,703.7,285.7,674.3z"/>
		<path d="M704,448c0-106-86-192-192-192s-192,86-192,192s86,192,192,192S704,554,704,448z M384,448c0-34.2,13.3-66.3,37.5-90.5
			S477.8,320,512,320s66.3,13.3,90.5,37.5S640,413.8,640,448s-13.3,66.3-37.5,90.5S546.2,576,512,576s-66.3-13.3-90.5-37.5
			S384,482.2,384,448z"/>
		<circle cx="512" cy="192" r="32"/>
	</g>
</g>
</svg>
