<?xml version="1.0" encoding="utf-8"?>
<!-- Generator: Adobe Illustrator 21.0.0, SVG Export Plug-In . SVG Version: 6.00 Build 0)  -->
<svg version="1.1" id="图层_1" xmlns="http://www.w3.org/2000/svg" xmlns:xlink="http://www.w3.org/1999/xlink" x="0px" y="0px"
	 viewBox="0 0 1024 1024" style="enable-background:new 0 0 1024 1024;" xml:space="preserve">
<path d="M800,96H224c-70.4,0-128,57.6-128,128v576c0,70.4,57.6,128,128,128h576c70.4,0,128-57.6,128-128V224
	C928,153.6,870.4,96,800,96z M696.3,436.8l-192,224c-5.8,6.8-14.2,10.8-23.1,11.2c-0.4,0-0.8,0-1.2,0c-8.5,0-16.6-3.4-22.6-9.4
	l-128-128c-12.5-12.5-12.5-32.8,0-45.3s32.8-12.5,45.3,0l103.6,103.6l169.5-197.8c11.5-13.4,31.7-15,45.1-3.5
	C706.2,403.2,707.8,423.4,696.3,436.8z"/>
</svg>
