<?xml version="1.0" encoding="utf-8"?>
<!-- Generator: Adobe Illustrator 21.0.0, SVG Export Plug-In . SVG Version: 6.00 Build 0)  -->
<svg version="1.1" id="图层_1" xmlns="http://www.w3.org/2000/svg" xmlns:xlink="http://www.w3.org/1999/xlink" x="0px" y="0px"
	 viewBox="0 0 1024 1024" style="enable-background:new 0 0 1024 1024;" xml:space="preserve">
<path d="M512,64C264.6,64,64,264.6,64,512s200.6,448,448,448s448-200.6,448-448S759.4,64,512,64z M696.3,436.8l-192,224
	c-5.8,6.8-14.2,10.8-23.1,11.2c-0.4,0-0.8,0-1.2,0c-8.5,0-16.6-3.4-22.6-9.4l-128-128c-12.5-12.5-12.5-32.8,0-45.3s32.8-12.5,45.3,0
	l103.6,103.6l169.5-197.8c11.5-13.4,31.7-15,45.1-3.5C706.2,403.2,707.8,423.4,696.3,436.8z"/>
</svg>
