<?xml version="1.0" encoding="utf-8"?>
<!-- Generator: Adobe Illustrator 21.0.0, SVG Export Plug-In . SVG Version: 6.00 Build 0)  -->
<svg version="1.1" id="图层_1" xmlns="http://www.w3.org/2000/svg" xmlns:xlink="http://www.w3.org/1999/xlink" x="0px" y="0px"
	 viewBox="0 0 1024 1024" style="enable-background:new 0 0 1024 1024;" xml:space="preserve">
<g>
	<path d="M601.4,713.4L544,770.7V496c0-17.7-14.3-32-32-32s-32,14.3-32,32v274.7l-57.4-57.4c-12.5-12.5-32.8-12.5-45.3,0
		c-6.2,6.2-9.4,14.4-9.4,22.6s3.1,16.4,9.4,22.6l112,112c12.5,12.5,32.8,12.5,45.3,0l112-112c12.5-12.5,12.5-32.8,0-45.3
		C634.1,700.9,613.9,700.9,601.4,713.4z"/>
	<path d="M793.8,372.2C766.2,241.8,650.6,144,512,144s-254.2,97.8-281.8,228.2C135.4,391.5,64,475.4,64,576
		c0,114.9,93.1,208,208,208c17.7,0,32-14.3,32-32s-14.3-32-32-32c-38.5,0-74.6-15-101.8-42.2S128,614.5,128,576
		c0-17.1,2.9-33.7,8.7-49.5c5.6-15.3,13.7-29.4,24.2-42.1c21-25.4,50.1-43,82.1-49.5l41.2-8.4l8.7-41.1
		c10.4-49.4,37.9-94.4,77.2-126.7c19.6-16.1,41.5-28.6,65.2-37.2c24.5-8.9,50.3-13.5,76.7-13.5s52.2,4.5,76.7,13.5
		c23.7,8.6,45.6,21.2,65.2,37.2c39.4,32.3,66.8,77.3,77.2,126.7l8.7,41.1l41.2,8.4c32,6.5,61.2,24.1,82.1,49.5
		c10.4,12.6,18.6,26.8,24.2,42.1c5.8,15.8,8.7,32.5,8.7,49.5c0,38.5-15,74.6-42.2,101.8C826.6,705,790.5,720,752,720
		c-17.7,0-32,14.3-32,32s14.3,32,32,32c114.9,0,208-93.1,208-208C960,475.4,888.6,391.5,793.8,372.2z"/>
</g>
</svg>
