<?xml version="1.0" encoding="utf-8"?>
<!-- Generator: Adobe Illustrator 21.0.0, SVG Export Plug-In . SVG Version: 6.00 Build 0)  -->
<svg version="1.1" id="图层_1" xmlns="http://www.w3.org/2000/svg" xmlns:xlink="http://www.w3.org/1999/xlink" x="0px" y="0px"
	 viewBox="0 0 1024 1024" style="enable-background:new 0 0 1024 1024;" xml:space="preserve">
<path d="M793.8,420.2C766.2,289.8,650.6,192,512,192s-254.2,97.8-281.8,228.2C135.4,439.5,64,523.4,64,624c0,114.9,93.1,208,208,208
	h480c114.9,0,208-93.1,208-208C960,523.4,888.6,439.5,793.8,420.2z M853.8,725.8C826.6,753,790.5,768,752,768H272
	c-38.5,0-74.6-15-101.8-42.2S128,662.5,128,624c0-17.1,2.9-33.7,8.7-49.5c5.6-15.3,13.7-29.4,24.2-42.1c21-25.4,50.1-43,82.1-49.5
	l41.2-8.4l8.7-41.1c10.4-49.4,37.9-94.4,77.2-126.7c19.6-16.1,41.5-28.6,65.2-37.2c24.5-9,50.3-13.5,76.7-13.5
	c26.4,0,52.2,4.5,76.7,13.5c23.7,8.6,45.6,21.2,65.2,37.2c39.4,32.3,66.8,77.3,77.2,126.7l8.7,41.1l41.2,8.4
	c32,6.5,61.2,24.1,82.1,49.5c10.4,12.6,18.6,26.8,24.2,42.1c5.8,15.8,8.7,32.5,8.7,49.5C896,662.5,881,698.6,853.8,725.8z"/>
</svg>
