<?xml version="1.0" encoding="utf-8"?>
<!-- Generator: Adobe Illustrator 21.0.0, SVG Export Plug-In . SVG Version: 6.00 Build 0)  -->
<svg version="1.1" id="图层_1" xmlns="http://www.w3.org/2000/svg" xmlns:xlink="http://www.w3.org/1999/xlink" x="0px" y="0px"
	 viewBox="0 0 1024 1024" style="enable-background:new 0 0 1024 1024;" xml:space="preserve">
<path d="M512,142.1l92,187.9c7.9,16.3,20.9,28.1,30.4,35.1c9.6,7.1,24.9,16.1,43.1,18.8L884,414.2l-149.5,147
	c-21.1,20.6-33.1,57.8-28,87l35.2,207.2l-184.3-97.7c-0.1-0.1-0.3-0.1-0.4-0.2c-15.9-8.3-33.3-10-45.1-10c-11.8,0-29.2,1.7-45.1,10
	c-0.1,0.1-0.3,0.1-0.4,0.2l-184.2,97.7l35.3-207.4c0,0,0-0.1,0-0.1c4.9-28.9-7.1-66.1-27.9-86.6L140,414.3l206.5-30.3
	c0,0,0.1,0,0.1,0c29.1-4.3,60.5-27.5,73.4-53.9L512,142.1 M512,64c-21,0-39.3,12.7-50,34.8l-99.5,203.3
	c-3.6,7.5-17.1,17.4-25.2,18.6l-222.4,32.6c-24.2,3.6-41.8,17-48.3,37c-6.5,19.9-0.2,41.2,17.3,58.5l160.9,158.2
	c5.9,5.8,11.1,22,9.7,30.3l-38,223.4c-4.2,24.4,3.2,45.4,20.3,57.7c8.8,6.4,19,9.5,29.8,9.5c10,0,20.6-2.7,31-8.2l198.9-105.5
	c3.6-1.9,9.5-2.8,15.5-2.8c6,0,12,0.9,15.5,2.8l198.9,105.4c10.5,5.5,21,8.3,31.1,8.3c10.8,0,21-3.2,29.8-9.5
	c17-12.3,24.4-33.3,20.3-57.7l-38-223.5c-1.5-8.3,3.7-24.5,9.7-30.3l160.9-158.2c17.5-17.2,23.8-38.6,17.3-58.5
	c-6.5-19.9-24.1-33.4-48.3-37l-222.4-32.6c-8.2-1.2-21.6-11.1-25.2-18.6L562.1,98.8C551.2,76.7,533,64,512,64L512,64z"/>
</svg>
