<?xml version="1.0" encoding="utf-8"?>
<!-- Generator: Adobe Illustrator 21.0.0, SVG Export Plug-In . SVG Version: 6.00 Build 0)  -->
<svg version="1.1" id="图层_1" xmlns="http://www.w3.org/2000/svg" xmlns:xlink="http://www.w3.org/1999/xlink" x="0px" y="0px"
	 viewBox="0 0 1024 1024" style="enable-background:new 0 0 1024 1024;" xml:space="preserve">
<path d="M940.2,448.7c17.5-17.2,23.8-38.6,17.3-58.5c-6.5-19.9-24.1-33.4-48.3-37l-222.4-32.6c-8.2-1.2-21.6-11.1-25.2-18.6
	L562.1,98.8C551.2,76.7,533,64,512,64c-21,0-39.3,12.7-50,34.8l-99.5,203.3c-3.6,7.5-17.1,17.4-25.2,18.6l-222.4,32.6
	c-24.2,3.6-41.8,17-48.3,37c-6.5,19.9-0.2,41.2,17.3,58.5l160.9,158.2c5.9,5.8,11.1,22,9.7,30.3l-38,223.4
	c-4.2,24.4,3.2,45.4,20.3,57.7c8.8,6.4,19,9.5,29.8,9.5c10,0,20.6-2.7,31-8.2l198.9-105.5c7.1-3.7,23.9-3.7,31,0l198.9,105.4
	c21.7,11.5,43.8,11,60.9-1.2c17-12.3,24.4-33.3,20.3-57.7l-38-223.5c-1.5-8.3,3.7-24.5,9.7-30.3L940.2,448.7L940.2,448.7z"/>
</svg>
