<?xml version="1.0" encoding="utf-8"?>
<!-- Generator: Adobe Illustrator 21.0.0, SVG Export Plug-In . SVG Version: 6.00 Build 0)  -->
<svg version="1.1" id="图层_1" xmlns="http://www.w3.org/2000/svg" xmlns:xlink="http://www.w3.org/1999/xlink" x="0px" y="0px"
	 viewBox="0 0 1024 1024" style="enable-background:new 0 0 1024 1024;" xml:space="preserve">
<path d="M832,128H192c-70.7,0-128,57.3-128,128v448c0,70.7,57.3,128,128,128h192l108.8,81.6c11.4,8.5,27,8.5,38.4,0L640,832h192
	c70.7,0,128-57.3,128-128V256C960,185.3,902.7,128,832,128z M703.7,670.2c-16.7,5.9-34.9-2.8-40.8-19.5
	C640.3,586.9,579.7,544,512,544s-128.3,42.9-150.9,106.7c-5.9,16.7-24.2,25.4-40.8,19.5c-16.7-5.9-25.4-24.2-19.5-40.8
	C332.3,540,417.2,480,512,480s179.7,60,211.2,149.3C729.1,646,720.4,664.3,703.7,670.2z"/>
</svg>
