<?xml version="1.0" encoding="utf-8"?>
<!-- Generator: Adobe Illustrator 21.0.0, SVG Export Plug-In . SVG Version: 6.00 Build 0)  -->
<svg version="1.1" id="图层_1" xmlns="http://www.w3.org/2000/svg" xmlns:xlink="http://www.w3.org/1999/xlink" x="0px" y="0px"
	 viewBox="0 0 1024 1024" style="enable-background:new 0 0 1024 1024;" xml:space="preserve">
<g id="图层_34_1_">
	<path d="M832,128H192c-70.4,0-128,57.6-128,128v416c0,70.4,57.6,128,128,128h288v64H352c-17.6,0-32,14.4-32,32s14.4,32,32,32h320
		c17.6,0,32-14.4,32-32s-14.4-32-32-32H544v-64h288c70.4,0,128-57.6,128-128V256C960,185.6,902.4,128,832,128z M877.1,717.1
		C865,729.3,849,736,832,736H192c-17,0-33-6.7-45.1-18.9c-11.9-11.9-18.6-27.6-18.8-44.1h768C895.7,689.6,889.1,705.2,877.1,717.1z
		 M896,609H128V256c0-17,6.7-33,18.9-45.1C159,198.7,175,192,192,192h640c17,0,33,6.7,45.1,18.9C889.3,223,896,239,896,256V609z"/>
</g>
</svg>
