<?xml version="1.0" encoding="utf-8"?>
<!-- Generator: Adobe Illustrator 21.0.0, SVG Export Plug-In . SVG Version: 6.00 Build 0)  -->
<svg version="1.1" id="图层_1" xmlns="http://www.w3.org/2000/svg" xmlns:xlink="http://www.w3.org/1999/xlink" x="0px" y="0px"
	 viewBox="0 0 1024 1024" style="enable-background:new 0 0 1024 1024;" xml:space="preserve">
<g id="图层_35">
	<path d="M928,544L928,544v-64l0,0c0-55.9-11.1-110.3-32.8-161.6c-18.4-43.3-43.7-82.8-75.4-117.6c-4.5-5-9.2-9.9-14-14.6
		c-38.2-38.2-82.7-68.3-132.2-89.3c-4.8-2-9.6-4-14.5-5.8c-47-17.9-96.4-27-147.1-27l0,0l0,0c-55.9,0-110.3,11.1-161.6,32.8
		c-27.8,11.8-54.1,26.5-78.5,43.9c-19,13.5-36.9,28.7-53.7,45.4c-16.7,16.7-31.9,34.7-45.4,53.7c-17.4,24.5-32.1,50.7-43.9,78.5
		C107.1,369.7,96,424.1,96,480l0,0v64l0,0v128c0,70.4,57.6,128,128,128l0,0c70.4,0,128-57.6,128-128V544c0-70.4-57.6-128-128-128
		l0,0c-21.9,0-42.5,5.6-60.6,15.4c4.2-30.2,12.3-59.6,24.4-88c15.6-36.7,37-70.1,63.8-99.6c3.8-4.2,7.8-8.3,11.8-12.4
		s8.2-8,12.4-11.8c29.5-26.8,62.9-48.3,99.6-63.8C418.8,137.3,464.7,128,512,128s93.2,9.3,136.6,27.8c2.6,1.1,5.2,2.3,7.8,3.4
		c38.8,17.6,73.8,41.9,104.2,72.2c2,2,4,4.1,6,6.1c29.6,31,53,66.6,69.7,105.8c4.6,10.8,8.6,21.8,12.1,33c5.6,18,9.7,36.3,12.3,55
		c-18.1-9.8-38.7-15.4-60.6-15.4l0,0c-70.4,0-128,57.6-128,128v128c0,70.4,57.6,128,128,128l0,0c5.6,0,11.1-0.4,16.5-1.1
		c-7,9.3-14.6,18.2-23,26.5C748,871,687.8,896,624,896h-49.9c-5.6-18.5-22.8-32-43.1-32h-38c-24.7,0-45,20.2-45,45v6
		c0,24.8,20.2,45,45,45h19l0,0h19h93h16c38.7,0,76.4-7.7,111.9-22.7c34.3-14.6,65-35.4,91.5-61.8c26.5-26.5,47.3-57.3,61.8-91.5
		c15-35.3,22.6-72.7,22.7-111.1c0-0.3,0-0.5,0-0.8L928,544L928,544z M224,480c17,0,33,6.7,45.1,18.9S288,527,288,544v128
		c0,17-6.7,33-18.9,45.1S241,736,224,736s-33-6.7-45.1-18.9S160,689,160,672v-96l0,0v-32c0-17,6.7-33,18.9-45.1
		C191,486.7,207,480,224,480z M845.1,717.1C833,729.3,817,736,800,736s-33-6.7-45.1-18.9C742.7,705,736,689,736,672V544
		c0-17,6.7-33,18.9-45.1C767,486.7,783,480,800,480s33,6.7,45.1,18.9C857.3,511,864,527,864,544v32v80c0,11-0.8,21.9-2.2,32.6
		C858.9,699.3,853.2,709.1,845.1,717.1z"/>
</g>
</svg>
