<?xml version="1.0" encoding="utf-8"?>
<!-- Generator: Adobe Illustrator 21.0.0, SVG Export Plug-In . SVG Version: 6.00 Build 0)  -->
<svg version="1.1" id="图层_1" xmlns="http://www.w3.org/2000/svg" xmlns:xlink="http://www.w3.org/1999/xlink" x="0px" y="0px"
	 viewBox="0 0 1024 1024" style="enable-background:new 0 0 1024 1024;" xml:space="preserve">
<g id="图层_49">
	<g>
		<path d="M500,496h24c99,0,180-81,180-180v-56c0-99-81-180-180-180h-24c-99,0-180,81-180,180v56C320,415,401,496,500,496z M384,260
			c0-30.8,12.1-59.9,34.1-81.9S469.2,144,500,144h24c30.8,0,59.9,12.1,81.9,34.1S640,229.2,640,260v56c0,30.8-12.1,59.9-34.1,81.9
			S554.8,432,524,432h-24c-30.8,0-59.9-12.1-81.9-34.1S384,346.8,384,316V260z"/>
		<path d="M902.7,723.7c-16.2-38.1-39.3-72.3-68.7-101.7s-63.6-52.5-101.7-68.7C692.9,536.5,651,528,608,528h-1.3
			c-15.6,0-28.9,11.3-31.5,26.6C570,585,542.9,608,512.1,608s-57.9-22.9-63.1-53.4c-2.6-15.4-15.9-26.6-31.5-26.6H416
			c-43,0-84.9,8.5-124.3,25.3c-38.1,16.2-72.3,39.3-101.7,68.7s-52.5,63.6-68.7,101.7C104.5,763.1,96,805,96,848
			c0,13.8,8.8,26,21.8,30.3c2,0.7,50.2,16.7,122.8,32.9C362.3,938.3,455.4,944,512,944c102.1,0,203.7-17.8,270.9-32.8
			c72.8-16.2,121.2-32.2,123.2-32.9C919.2,874,928,861.8,928,848C928,805,919.5,763.1,902.7,723.7z M512,880
			c-147.2,0-295.4-39-350.9-55.3c5.4-59.3,31.2-114.5,74.2-157.5c43.2-43.2,98.8-69.1,158.6-74.3c7.7,18.5,19.7,35.1,35.2,48.3
			c23.2,19.8,52.6,30.7,83,30.7c30.4,0,59.8-10.9,83-30.7c15.5-13.2,27.5-29.9,35.2-48.3c59.7,5.2,115.4,31.1,158.6,74.3
			c42.9,42.9,68.8,98.1,74.2,157.5C807.3,841,658.8,880,512,880z"/>
	</g>
</g>
</svg>
