<?xml version="1.0" encoding="utf-8"?>
<!-- Generator: Adobe Illustrator 21.0.0, SVG Export Plug-In . SVG Version: 6.00 Build 0)  -->
<svg version="1.1" id="图层_1" xmlns="http://www.w3.org/2000/svg" xmlns:xlink="http://www.w3.org/1999/xlink" x="0px" y="0px"
	 viewBox="0 0 1024 1024" style="enable-background:new 0 0 1024 1024;" xml:space="preserve">
<g>
	<path d="M384,160h256c17.6,0,32-14.4,32-32s-14.4-32-32-32H384c-17.6,0-32,14.4-32,32S366.4,160,384,160z"/>
	<path d="M896,224h-64H192h-64c-17.6,0-32,14.4-32,32c0,17.6,14.4,32,32,32h64v512c0,70.4,57.6,128,128,128h384
		c70.4,0,128-57.6,128-128V288h64c17.6,0,32-14.4,32-32C928,238.4,913.6,224,896,224z M768,800c0,17-6.7,33-18.9,45.1
		S721,864,704,864H320c-17,0-33-6.7-45.1-18.9C262.7,833,256,817,256,800V288h512V800z"/>
	<path d="M384,736c17.6,0,32-14.4,32-32V448c0-17.6-14.4-32-32-32c-17.6,0-32,14.4-32,32v256C352,721.6,366.4,736,384,736z"/>
	<path d="M512,736c17.6,0,32-14.4,32-32V448c0-17.6-14.4-32-32-32s-32,14.4-32,32v256C480,721.6,494.4,736,512,736z"/>
	<path d="M640,736c17.6,0,32-14.4,32-32V448c0-17.6-14.4-32-32-32s-32,14.4-32,32v256C608,721.6,622.4,736,640,736z"/>
</g>
</svg>
