<?xml version="1.0" encoding="utf-8"?>
<!-- Generator: Adobe Illustrator 21.0.0, SVG Export Plug-In . SVG Version: 6.00 Build 0)  -->
<svg version="1.1" id="图层_1" xmlns="http://www.w3.org/2000/svg" xmlns:xlink="http://www.w3.org/1999/xlink" x="0px" y="0px"
	 viewBox="0 0 1024 1024" style="enable-background:new 0 0 1024 1024;" xml:space="preserve">
<g id="图层_51">
	<g id="图层_22_2_">
		<g>
			<path d="M664.5,614.6c15.5,8.4,35,2.7,43.4-12.8s2.7-35-12.8-43.4c-5.7-3.1-11.6-6.1-17.5-8.9c-9.6-4.6-19.5-8.8-29.5-12.6
				c16.3-10.3,31.4-22.3,44.9-35.8c46.3-46.3,75-110.3,75-181s-28.7-134.7-75-181S582.7,64,512,64s-134.7,28.7-181,75
				s-75,110.3-75,181s28.7,134.7,75,181c13.5,13.5,28.6,25.6,44.9,35.8c-1.3,0.5-2.7,1-4,1.5c-23.7,9.3-46.5,21-67.9,34.8
				c-21,13.6-40.8,29.2-58.7,46.6c-18,17.4-34.3,36.6-48.6,57c-14.4,20.7-26.8,42.9-36.8,65.9c-10.3,23.6-18.2,48.3-23.5,73.5
				c-5.5,26.1-8.3,52.9-8.3,79.8c0,17.7,14.3,32,32,32s32-14.3,32-32c0-22.4,2.3-44.8,6.9-66.6c4.4-21,11-41.5,19.6-61.2
				c8.4-19.2,18.7-37.7,30.7-54.9c11.9-17.1,25.5-33.1,40.5-47.6s31.5-27.6,49-38.9c17.8-11.5,36.8-21.3,56.5-29
				c20.1-7.9,41-13.7,62.3-17.4c21.9-3.7,44.3-5.2,66.7-4.4c22.1,0.8,44.1,3.9,65.4,9.2c20.7,5.2,41,12.5,60.3,21.7
				C654.8,609.5,659.7,612,664.5,614.6z M320,320c0-51.3,20-99.5,56.2-135.8C412.5,148,460.7,128,512,128s99.5,20,135.8,56.2
				C684,220.5,704,268.7,704,320s-20,99.5-56.2,135.8C611.5,492,563.3,512,512,512s-99.5-20-135.8-56.2C340,419.5,320,371.3,320,320
				z"/>
		</g>
		<path d="M864,832H672c-17.6,0-32-14.4-32-32l0,0c0-17.6,14.4-32,32-32h192c17.6,0,32,14.4,32,32l0,0C896,817.6,881.6,832,864,832z
			"/>
	</g>
</g>
</svg>
