<?xml version="1.0" encoding="utf-8"?>
<!-- Generator: Adobe Illustrator 21.0.0, SVG Export Plug-In . SVG Version: 6.00 Build 0)  -->
<svg version="1.1" id="图层_1" xmlns="http://www.w3.org/2000/svg" xmlns:xlink="http://www.w3.org/1999/xlink" x="0px" y="0px"
	 viewBox="0 0 1024 1024" style="enable-background:new 0 0 1024 1024;" xml:space="preserve">
<g id="图层_166">
	<g>
		<path d="M205.3,512l329.4-329.4c12.5-12.5,12.5-32.8,0-45.3s-32.8-12.5-45.3,0l-352,352c-12.5,12.5-12.5,32.8,0,45.3l352,352
			c6.2,6.2,14.4,9.4,22.6,9.4c8.2,0,16.4-3.1,22.6-9.4c12.5-12.5,12.5-32.8,0-45.3L205.3,512z"/>
		<path d="M557.3,512l329.4-329.4c12.5-12.5,12.5-32.8,0-45.3s-32.8-12.5-45.3,0l-352,352c-12.5,12.5-12.5,32.8,0,45.3l352,352
			c6.2,6.2,14.4,9.4,22.6,9.4s16.4-3.1,22.6-9.4c12.5-12.5,12.5-32.8,0-45.3L557.3,512z"/>
	</g>
</g>
</svg>
