<?xml version="1.0" encoding="utf-8"?>
<!-- Generator: Adobe Illustrator 21.0.0, SVG Export Plug-In . SVG Version: 6.00 Build 0)  -->
<svg version="1.1" id="图层_1" xmlns="http://www.w3.org/2000/svg" xmlns:xlink="http://www.w3.org/1999/xlink" x="0px" y="0px"
	 viewBox="0 0 1024 1024" style="enable-background:new 0 0 1024 1024;" xml:space="preserve">
<g id="图层_73">
	<path d="M800,96H224c-70.4,0-128,57.6-128,128v576c0,70.4,57.6,128,128,128h576c70.4,0,128-57.6,128-128V224
		C928,153.6,870.4,96,800,96z M694.6,470.6l-160,160c-6.2,6.2-14.4,9.4-22.6,9.4s-16.4-3.1-22.6-9.4l-160-160
		c-12.5-12.5-12.5-32.8,0-45.3s32.8-12.5,45.3,0L512,562.7l137.4-137.4c12.5-12.5,32.8-12.5,45.3,0
		C707.1,437.9,707.1,458.1,694.6,470.6z"/>
</g>
</svg>
