<?xml version="1.0" encoding="utf-8"?>
<!-- Generator: Adobe Illustrator 21.0.0, SVG Export Plug-In . SVG Version: 6.00 Build 0)  -->
<svg version="1.1" id="图层_1" xmlns="http://www.w3.org/2000/svg" xmlns:xlink="http://www.w3.org/1999/xlink" x="0px" y="0px"
	 viewBox="0 0 1024 1024" style="enable-background:new 0 0 1024 1024;" xml:space="preserve">
<path d="M884,282.5L748.3,146.7c-25-25-65.5-25-90.5,0l-67.9,67.9l-45.3,45.3L176.3,628.2c-10.6,10.6-17.1,24.5-18.5,39.5L144.3,817
	c-1.8,19.9,5.6,38.2,18.5,51c12.9,12.9,31.1,20.3,51,18.5l149.3-13.6c14.9-1.4,28.9-7.9,39.5-18.5l368.3-368.3l45.3-45.3L884,373
	C909,348,909,307.5,884,282.5z M208,822.8l7.1-77.8l70.7,70.7L208,822.8z M363.6,802.9L227.8,667.2l362-362L725.6,441L363.6,802.9z
	 M635.1,259.9L703,192l0,0l135.8,135.8l0,0l-67.9,67.9L635.1,259.9z"/>
</svg>
