<?xml version="1.0" encoding="utf-8"?>
<!-- Generator: Adobe Illustrator 21.0.0, SVG Export Plug-In . SVG Version: 6.00 Build 0)  -->
<svg version="1.1" id="图层_1" xmlns="http://www.w3.org/2000/svg" xmlns:xlink="http://www.w3.org/1999/xlink" x="0px" y="0px"
	 viewBox="0 0 1024 1024" style="enable-background:new 0 0 1024 1024;" xml:space="preserve">
<g id="图层_14">
	<g>
		<g>
			<path d="M512,384c34.2,0,66.3,13.3,90.5,37.5S640,477.8,640,512s-13.3,66.3-37.5,90.5S546.2,640,512,640s-66.3-13.3-90.5-37.5
				S384,546.2,384,512s13.3-66.3,37.5-90.5S477.8,384,512,384 M512,320c-106,0-192,86-192,192s86,192,192,192s192-86,192-192
				S618,320,512,320L512,320z"/>
		</g>
		<g>
			<path d="M512,224c50.1,0,100.5,10.4,149.7,31c44.5,18.6,87.7,45.7,124.9,78.4c34.4,30.1,63,64.2,82.8,98.5
				c17.2,29.8,26.7,58.3,26.7,80.1c0,21.8-9.5,50.3-26.7,80.1c-19.8,34.3-48.4,68.3-82.8,98.5c-37.3,32.7-80.4,59.8-124.9,78.4
				c-49.2,20.6-99.5,31-149.7,31s-100.5-10.4-149.7-31c-44.5-18.6-87.7-45.7-124.9-78.4c-34.4-30.2-63-64.2-82.8-98.5
				C137.5,562.3,128,533.8,128,512s9.5-50.3,26.7-80.1c19.8-34.3,48.4-68.3,82.8-98.5c37.3-32.7,80.4-59.8,124.9-78.4
				C411.5,234.4,461.9,224,512,224 M512,160C264.6,160,64,376.8,64,512s200.6,352,448,352s448-216.8,448-352S759.4,160,512,160
				L512,160z"/>
		</g>
	</g>
</g>
</svg>
