<?xml version="1.0" encoding="utf-8"?>
<!-- Generator: Adobe Illustrator 21.0.0, SVG Export Plug-In . SVG Version: 6.00 Build 0)  -->
<svg version="1.1" id="图层_1" xmlns="http://www.w3.org/2000/svg" xmlns:xlink="http://www.w3.org/1999/xlink" x="0px" y="0px"
	 viewBox="0 0 1024 1024" style="enable-background:new 0 0 1024 1024;" xml:space="preserve">
<path d="M832,272H512l-100.9-88.2c-17.5-15.3-40-23.8-63.2-23.8H192c-53,0-96,43-96,96v512c0,53,43,96,96,96h640c53,0,96-43,96-96
	V368C928,315,885,272,832,272z M624,600h-80v80c0,17.6-14.4,32-32,32s-32-14.4-32-32v-80h-80c-17.6,0-32-14.4-32-32s14.4-32,32-32
	h80v-80c0-17.6,14.4-32,32-32s32,14.4,32,32v80h80c17.6,0,32,14.4,32,32S641.6,600,624,600z"/>
</svg>
