<?xml version="1.0" encoding="utf-8"?>
<!-- Generator: Adobe Illustrator 21.0.0, SVG Export Plug-In . SVG Version: 6.00 Build 0)  -->
<svg version="1.1" id="图层_1" xmlns="http://www.w3.org/2000/svg" xmlns:xlink="http://www.w3.org/1999/xlink" x="0px" y="0px"
	 viewBox="0 0 1024 1024" style="enable-background:new 0 0 1024 1024;" xml:space="preserve">
<g id="图层_187_1_">
	<path d="M894.4,416H880v-48c0-53-43-96-96-96H464l-100.9-88.2c-17.5-15.3-40-23.8-63.2-23.8H144c-53,0-96,43-96,96v512
		c0,53,43,96,96,96h17.6H752h11.6c51.2,0,97.5-30.5,117.7-77.6l101.4-236.6C1009.8,486.5,963.3,416,894.4,416z M144,224h155.9
		c7.8,0,15.2,2.8,21.1,7.9l100.9,88.2L440,336h24h320c17.6,0,32,14.4,32,32v48H292.4c-51.2,0-97.5,30.5-117.7,77.6L112,640V256
		C112,238.4,126.4,224,144,224z M923.8,524.6L822.4,761.2c-10.1,23.6-33.2,38.8-58.8,38.8H752H161.6c-15,0-23.2-9-26.7-14.4
		s-8.6-16.4-2.7-30.2l101.4-236.6c10.1-23.6,33.2-38.8,58.8-38.8h602c15,0,23.2,9,26.7,14.4C924.7,499.8,929.7,510.8,923.8,524.6z"
		/>
</g>
</svg>
