<?xml version="1.0" encoding="utf-8"?>
<!-- Generator: Adobe Illustrator 21.0.0, SVG Export Plug-In . SVG Version: 6.00 Build 0)  -->
<svg version="1.1" id="图层_1" xmlns="http://www.w3.org/2000/svg" xmlns:xlink="http://www.w3.org/1999/xlink" x="0px" y="0px"
	 viewBox="0 0 1024 1024" style="enable-background:new 0 0 1024 1024;" xml:space="preserve">
<path d="M72.6,537.3l384,412.1c6.1,6.6,14.7,10.2,23.4,10.2c3.9,0,7.9-0.7,11.7-2.2c12.3-4.8,20.3-16.6,20.3-29.8v-284
	c237.8,11.4,393.2,146.5,394.8,148c10.2,9.1,25.1,10.6,37,3.9c11.9-6.7,18.2-20.2,15.8-33.6c-0.8-4.5-20.9-111.3-88.9-219.2
	C784.8,406.6,661.3,330.3,512,320.9V96c0-13.2-8.1-25-20.3-29.8c-12.3-4.8-26.2-1.6-35.2,8.1l-384,419.4
	C61.1,506.1,61.2,525,72.6,537.3z"/>
</svg>
