<?xml version="1.0" encoding="utf-8"?>
<!-- Generator: Adobe Illustrator 21.0.0, SVG Export Plug-In . SVG Version: 6.00 Build 0)  -->
<svg version="1.1" id="图层_1" xmlns="http://www.w3.org/2000/svg" xmlns:xlink="http://www.w3.org/1999/xlink" x="0px" y="0px"
	 viewBox="0 0 1024 1024" style="enable-background:new 0 0 1024 1024;" xml:space="preserve">
<path d="M959.5,761.9c-0.8-4.5-20.9-111.3-88.9-219.2C784.8,406.6,661.3,330.3,512,320.9V96c0-13.2-8.1-25-20.3-29.8
	C487.9,64.7,484,64,480,64c-8.8,0-17.3,3.6-23.5,10.3l-384,419.4C61.1,506,61.2,525,72.6,537.2l384,412.1
	c6.1,6.6,14.7,10.2,23.4,10.2c3.9,0,7.9-0.7,11.7-2.2c12.3-4.8,20.3-16.6,20.3-29.8V643.6c237.8,11.4,393.2,146.5,394.8,148
	c6,5.3,13.6,8,21.2,8c5.4,0,10.8-1.4,15.7-4.1C955.6,788.8,962,775.3,959.5,761.9z M827.2,664.4c-43.4-22.3-88.9-40.6-135.2-54.4
	c-58-17.3-117.5-27.5-176.9-30.3l-67.1-3.2v67.1v202.6l-308.4-331L448,178.4V321v60l60,3.8c63.7,4,122.1,22.2,173.5,54
	c52.1,32.2,97.6,78.7,135,138.1c25.4,40.4,43.3,80.7,55.2,112.3C858.4,681.2,843.6,672.9,827.2,664.4z"/>
</svg>
