<?xml version="1.0" encoding="utf-8"?>
<!-- Generator: Adobe Illustrator 21.0.0, SVG Export Plug-In . SVG Version: 6.00 Build 0)  -->
<svg version="1.1" id="图层_1" xmlns="http://www.w3.org/2000/svg" xmlns:xlink="http://www.w3.org/1999/xlink" x="0px" y="0px"
	 viewBox="0 0 1024 1024" style="enable-background:new 0 0 1024 1024;" xml:space="preserve">
<g id="图层_53">
	<path d="M693,192c51.3,0,99.5,20,135.8,56.2C865,284.5,885,332.7,885,384s-20,99.5-56.2,135.8L512,836.5l0,0L195.2,519.8
		C159,483.5,139,435.3,139,384s20-99.5,56.2-135.8C231.5,212,279.7,192,331,192s99.5,20,135.8,56.2l45.3,45.3l45.3-45.3
		C593.5,212,641.7,192,693,192 M693,128c-65.5,0-131,25-181,75l0,0l0,0c-50-50-115.5-75-181-75s-131,25-181,75l0,0
		C50,303,50,465,150,565l0,0l316.8,316.8c12.5,12.5,28.9,18.7,45.3,18.7c16.4,0,32.8-6.2,45.3-18.7L874,565l0,0
		c100-100,100-262.1,0-362l0,0C824.1,153,758.5,128,693,128L693,128z"/>
</g>
</svg>
