<?xml version="1.0" encoding="utf-8"?>
<!-- Generator: Adobe Illustrator 21.0.0, SVG Export Plug-In . SVG Version: 6.00 Build 0)  -->
<svg version="1.1" id="图层_1" xmlns="http://www.w3.org/2000/svg" xmlns:xlink="http://www.w3.org/1999/xlink" x="0px" y="0px"
	 viewBox="0 0 1024 1024" style="enable-background:new 0 0 1024 1024;" xml:space="preserve">
<g id="图层_118">
	<path d="M512,64C264.6,64,64,264.6,64,512s200.6,448,448,448s448-200.6,448-448S759.4,64,512,64z M362.5,158.2
		c7.2-3,14.5-5.9,21.8-8.4c-24.8,36.1-45.7,74.4-62.6,114.5c-20.5-13.2-39.7-28.5-57.2-45.8C294,193.4,326.9,173.2,362.5,158.2z
		 M158.2,362.5c15.3-36.1,35.8-69.3,61.1-99c24.3,24.1,51.4,44.9,80.4,62.2c-15.1,49.8-24.2,101.5-26.8,154.3H129.3
		C132.6,439.4,142.3,400.1,158.2,362.5z M158.2,661.5c-15.9-37.5-25.5-76.9-28.8-117.5h143.5c2.6,52.8,11.7,104.6,26.8,154.3
		c-29,17.2-56,38.1-80.3,62.2C193.9,730.7,173.4,697.5,158.2,661.5z M362.5,865.8c-35.7-15.1-68.5-35.3-98-60.2
		c17.5-17.3,36.7-32.7,57.2-45.8c16.8,40,37.8,78.4,62.6,114.4C377,871.7,369.7,868.9,362.5,865.8z M480,893
		c-43-48.7-77.1-103.8-101.2-162.8C410.9,717,445,708.7,480,705.5V893z M480,641.2c-42.2,3.3-83.4,12.9-122.1,28.4
		c-11.5-40.7-18.6-82.8-21-125.6H480V641.2z M480,480H336.9c2.4-42.8,9.4-84.9,21-125.6c38.7,15.5,79.9,25.1,122.1,28.3V480z
		 M480,318.5c-35-3.2-69.1-11.6-101.2-24.7C403,234.8,437,179.7,480,131V318.5z M865.8,362.5c15.9,37.5,25.5,76.9,28.8,117.5H751.2
		c-2.6-52.8-11.7-104.6-26.8-154.3c29-17.2,56-38.1,80.3-62.2C830.1,293.3,850.6,326.5,865.8,362.5z M661.5,158.2
		c35.7,15.1,68.5,35.3,98,60.2c-17.5,17.3-36.7,32.7-57.2,45.8c-16.8-40-37.8-78.4-62.6-114.5C647,152.3,654.3,155.1,661.5,158.2z
		 M544,131c43,48.8,77.1,103.8,101.3,162.8c-32.1,13.1-66.2,21.5-101.3,24.7V131z M544,382.8c42.3-3.2,83.4-12.9,122.2-28.3
		c11.5,40.7,18.6,82.7,20.9,125.6H544V382.8z M544,544h143.1c-2.4,42.8-9.4,84.9-20.9,125.5c-39.1-15.7-80-25.1-122.2-28.3L544,544
		L544,544z M544,705.4c34.9,3.1,68.9,11.4,101.3,24.7C621.1,789.2,587.1,844.2,544,893V705.4z M661.5,865.8
		c-7.2,3-14.5,5.9-21.8,8.4c24.8-36.1,45.8-74.4,62.6-114.5c20.6,13.2,39.7,28.5,57.2,45.9C730,830.6,697.1,850.8,661.5,865.8z
		 M865.8,661.5c-15.3,36.1-35.8,69.3-61.1,99c-24.2-24.1-51.1-44.9-80.3-62.2c15.1-49.7,24.1-101.5,26.7-154.2h143.5
		C891.4,584.6,881.7,623.9,865.8,661.5z"/>
</g>
</svg>
