<?xml version="1.0" encoding="utf-8"?>
<!-- Generator: Adobe Illustrator 21.0.0, SVG Export Plug-In . SVG Version: 6.00 Build 0)  -->
<svg version="1.1" id="图层_1" xmlns="http://www.w3.org/2000/svg" xmlns:xlink="http://www.w3.org/1999/xlink" x="0px" y="0px"
	 viewBox="0 0 1024 1024" style="enable-background:new 0 0 1024 1024;" xml:space="preserve">
<g id="图层_32">
	<g>
		<path d="M832,96H192c-70.4,0-128,57.6-128,128v448c0,70.4,57.6,128,128,128h640c70.4,0,128-57.6,128-128V224
			C960,153.6,902.4,96,832,96z M896,672c0,17-6.7,33-18.9,45.1C865,729.3,849,736,832,736H192c-17,0-33-6.7-45.1-18.9
			C134.7,705,128,689,128,672V224c0-17,6.7-33,18.9-45.1C159,166.7,175,160,192,160h640c17,0,33,6.7,45.1,18.9
			C889.3,191,896,207,896,224V672z"/>
		<path d="M768,224H256c-35.2,0-64,28.8-64,64v320c0,35.2,28.8,64,64,64h512c35.2,0,64-28.8,64-64V288C832,252.8,803.2,224,768,224z
			 M768,607.9L768,607.9L256.1,608l-0.1-0.1V288.1l0.1-0.1h511.8l0.1,0.1V607.9z"/>
		<path d="M672,864H352c-17.6,0-32,14.4-32,32s14.4,32,32,32h320c17.6,0,32-14.4,32-32S689.6,864,672,864z"/>
	</g>
</g>
</svg>
