<?xml version="1.0" encoding="utf-8"?>
<!-- Generator: Adobe Illustrator 21.0.0, SVG Export Plug-In . SVG Version: 6.00 Build 0)  -->
<svg version="1.1" id="图层_1" xmlns="http://www.w3.org/2000/svg" xmlns:xlink="http://www.w3.org/1999/xlink" x="0px" y="0px"
	 viewBox="0 0 1024 1024" style="enable-background:new 0 0 1024 1024;" xml:space="preserve">
<g id="图层_88">
	<g>
		<path d="M800,96H224c-70.4,0-128,57.6-128,128v576c0,70.4,57.6,128,128,128h576c70.4,0,128-57.6,128-128V224
			C928,153.6,870.4,96,800,96z M864,800c0,17-6.7,33-18.9,45.1C833,857.3,817,864,800,864H224c-17,0-33-6.7-45.1-18.9
			C166.7,833,160,817,160,800V224c0-17,6.7-33,18.9-45.1C191,166.7,207,160,224,160h576c17,0,33,6.7,45.1,18.9
			C857.3,191,864,207,864,224V800z"/>
		<path d="M589.6,323c-11.2-5.3-24.5-3.6-34.1,4.4l-192,160c-7.3,6.1-11.5,15.1-11.5,24.6s4.2,18.5,11.5,24.6l192,160
			c5.9,4.9,13.1,7.4,20.5,7.4c4.6,0,9.2-1,13.6-3c11.2-5.3,18.4-16.6,18.4-29V352C608,339.6,600.8,328.3,589.6,323z"/>
	</g>
</g>
</svg>
