<?xml version="1.0" encoding="utf-8"?>
<!-- Generator: Adobe Illustrator 21.0.0, SVG Export Plug-In . SVG Version: 6.00 Build 0)  -->
<svg version="1.1" id="图层_1" xmlns="http://www.w3.org/2000/svg" xmlns:xlink="http://www.w3.org/1999/xlink" x="0px" y="0px"
	 viewBox="0 0 1024 1024" style="enable-background:new 0 0 1024 1024;" xml:space="preserve">
<g id="图层_58">
	<g>
		<path d="M512,64C264.6,64,64,264.6,64,512s200.6,448,448,448s448-200.6,448-448S759.4,64,512,64z M783.5,783.5
			c-35.3,35.3-76.4,63-122.1,82.3c-47.3,20-97.6,30.2-149.5,30.2s-102.2-10.1-149.5-30.2c-45.7-19.3-86.8-47-122.1-82.3
			s-63-76.4-82.3-122.1c-20-47.3-30.2-97.6-30.2-149.5s10.1-102.2,30.2-149.5c19.3-45.7,47-86.8,82.3-122.1s76.4-63,122.1-82.3
			c47.3-20,97.6-30.2,149.5-30.2s102.2,10.1,149.5,30.2c45.7,19.3,86.8,47,122.1,82.3s63,76.4,82.3,122.1
			c20,47.3,30.2,97.6,30.2,149.5s-10.1,102.2-30.2,149.5C846.5,707.2,818.8,748.2,783.5,783.5z"/>
		<path d="M598.6,329.4c-12.5-12.5-32.8-12.5-45.3,0l-160,160c-12.5,12.5-12.5,32.8,0,45.3l160,160c6.2,6.2,14.4,9.4,22.6,9.4
			s16.4-3.1,22.6-9.4c12.5-12.5,12.5-32.8,0-45.3L461.3,512l137.4-137.4C611.1,362.1,611.1,341.9,598.6,329.4z"/>
	</g>
</g>
</svg>
