<?xml version="1.0" encoding="utf-8"?>
<!-- Generator: Adobe Illustrator 21.0.0, SVG Export Plug-In . SVG Version: 6.00 Build 0)  -->
<svg version="1.1" id="图层_1" xmlns="http://www.w3.org/2000/svg" xmlns:xlink="http://www.w3.org/1999/xlink" x="0px" y="0px"
	 viewBox="0 0 1024 1024" style="enable-background:new 0 0 1024 1024;" xml:space="preserve">
<path d="M800,96H224c-70.4,0-128,57.6-128,128v576c0,70.4,57.6,128,128,128h576c70.4,0,128-57.6,128-128V224
	C928,153.6,870.4,96,800,96z M608,672c0,12.4-7.2,23.7-18.4,29c-4.3,2-9,3-13.6,3c-7.4,0-14.6-2.5-20.5-7.4l-192-160
	c-7.3-6.1-11.5-15.1-11.5-24.6c0-9.5,4.2-18.5,11.5-24.6l192-160c9.5-7.9,22.8-9.7,34.1-4.4c11.2,5.3,18.4,16.6,18.4,29V672z"/>
</svg>
