<?xml version="1.0" encoding="utf-8"?>
<!-- Generator: Adobe Illustrator 21.0.0, SVG Export Plug-In . SVG Version: 6.00 Build 0)  -->
<svg version="1.1" id="图层_1" xmlns="http://www.w3.org/2000/svg" xmlns:xlink="http://www.w3.org/1999/xlink" x="0px" y="0px"
	 viewBox="0 0 1024 1024" style="enable-background:new 0 0 1024 1024;" xml:space="preserve">
<g id="图层_44_x5F_复制_4">
	<g>
		<path d="M768,416h-32v-96c0-59.6-23.4-115.8-65.8-158.2S571.6,96,512,96s-115.8,23.4-158.2,65.8S288,260.4,288,320v96h-32
			c-70.4,0-128,57.6-128,128v256c0,70.4,57.6,128,128,128h512c70.4,0,128-57.6,128-128V544C896,473.6,838.4,416,768,416z M352,320
			c0-42.5,16.7-82.6,47-113s70.4-47,113-47s82.6,16.7,113,47s47,70.4,47,113v96H352V320z M832,800c0,17-6.7,33-18.9,45.1
			S785,864,768,864H256c-17,0-33-6.7-45.1-18.9S192,817,192,800V544c0-17,6.7-33,18.9-45.1S239,480,256,480h64h384h64
			c17,0,33,6.7,45.1,18.9S832,527,832,544V800z"/>
		<path d="M512,576c-26.5,0-48,21.5-48,48c0,14.2,6.2,27,16,35.8V736c0,17.6,14.4,32,32,32c17.6,0,32-14.4,32-32v-76.2
			c9.8-8.8,16-21.6,16-35.8C560,597.5,538.5,576,512,576z"/>
	</g>
</g>
</svg>
