<?xml version="1.0" encoding="utf-8"?>
<!-- Generator: Adobe Illustrator 21.0.0, SVG Export Plug-In . SVG Version: 6.00 Build 0)  -->
<svg version="1.1" id="图层_1" xmlns="http://www.w3.org/2000/svg" xmlns:xlink="http://www.w3.org/1999/xlink" x="0px" y="0px"
	 viewBox="0 0 1024 1024" style="enable-background:new 0 0 1024 1024;" xml:space="preserve">
<g>
	<path d="M910.1,343.9c-21.8-51.4-52.9-97.6-92.6-137.3s-85.9-70.8-137.3-92.6C626.9,91.4,570.3,80,512,80
		c-47.6,0-94.3,7.7-139,22.8c-43.1,14.7-83.6,36.1-120.2,63.6c-14.2,10.6-17,30.7-6.4,44.8c10.6,14.2,30.7,17,44.8,6.4
		C355.3,169.4,431.6,144,512,144c98.3,0,190.7,38.3,260.2,107.8S880,413.7,880,512s-38.3,190.7-107.8,260.2S610.3,880,512,880
		c-80.4,0-156.7-25.4-220.8-73.6c-14.1-10.6-34.2-7.8-44.8,6.5c-10.6,14.1-7.7,34.2,6.4,44.8c36.6,27.6,77,48.9,120.2,63.6
		c44.7,15.2,91.4,22.9,139,22.9c58.3,0,114.9-11.5,168.2-34c51.4-21.8,97.6-52.9,137.3-92.6c39.7-39.7,70.8-85.9,92.6-137.3
		c22.6-53.3,34-109.9,34-168.2C944.1,453.8,932.6,397.2,910.1,343.9z"/>
	<path d="M246.7,601.4L189.3,544H544c17.7,0,32-14.3,32-32s-14.3-32-32-32H189.3l57.4-57.3c12.5-12.5,12.5-32.8,0-45.3
		s-32.8-12.5-45.3,0l-112,112c-12.5,12.5-12.5,32.7,0.1,45.3l112,112c6.2,6.3,14.4,9.4,22.6,9.4s16.4-3.2,22.6-9.4
		C259.2,634.2,259.2,613.9,246.7,601.4z"/>
</g>
</svg>
