<?xml version="1.0" encoding="utf-8"?>
<!-- Generator: Adobe Illustrator 21.0.0, SVG Export Plug-In . SVG Version: 6.00 Build 0)  -->
<svg version="1.1" id="图层_1" xmlns="http://www.w3.org/2000/svg" xmlns:xlink="http://www.w3.org/1999/xlink" x="0px" y="0px"
	 viewBox="0 0 1024 1024" style="enable-background:new 0 0 1024 1024;" xml:space="preserve">
<g>
	<path d="M732.8,806.4C668.7,854.6,592.4,880,512,880c-98.3,0-190.7-38.3-260.2-107.8S144,610.3,144,512s38.3-190.7,107.8-260.2
		S413.7,144,512,144c80.4,0,156.7,25.4,220.8,73.6c14.1,10.6,34.2,7.8,44.8-6.4c10.6-14.1,7.8-34.2-6.4-44.8
		c-36.6-27.5-77.1-48.9-120.2-63.6C606.3,87.7,559.6,80,512,80c-58.3,0-114.9,11.4-168.2,34c-51.4,21.8-97.6,52.9-137.3,92.6
		s-70.8,85.9-92.6,137.3C91.4,397.1,80,453.7,80,512s11.4,114.9,34,168.2c21.8,51.4,52.9,97.6,92.6,137.3
		c39.7,39.7,85.9,70.8,137.3,92.6c53.3,22.5,109.9,34,168.2,34c47.6,0,94.3-7.7,139-22.9c43.2-14.7,83.6-36,120.2-63.6
		c14.1-10.6,17-30.7,6.4-44.8C767,798.6,746.9,795.8,732.8,806.4z"/>
	<path d="M934.6,489.4l-112-112c-12.5-12.5-32.8-12.5-45.3,0s-12.5,32.8,0,45.3l57.4,57.4H480c-17.7,0-32,14.3-32,32s14.3,32,32,32
		h354.7l-57.4,57.4c-12.5,12.5-12.5,32.8,0,45.3c6.2,6.2,14.4,9.4,22.6,9.4s16.4-3.1,22.6-9.4l112-112
		C947.1,522.1,947.1,501.9,934.6,489.4z"/>
</g>
</svg>
