<?xml version="1.0" encoding="utf-8"?>
<!-- Generator: Adobe Illustrator 21.0.0, SVG Export Plug-In . SVG Version: 6.00 Build 0)  -->
<svg version="1.1" id="图层_1" xmlns="http://www.w3.org/2000/svg" xmlns:xlink="http://www.w3.org/1999/xlink" x="0px" y="0px"
	 viewBox="0 0 1024 1024" style="enable-background:new 0 0 1024 1024;" xml:space="preserve">
<g id="图层_36_x5F_复制">
	<g>
		<path d="M240,448h-96c-35.2,0-64,28.8-64,64v352c0,35.2,28.8,64,64,64h96c35.2,0,64-28.8,64-64V512C304,476.8,275.2,448,240,448z
			 M240,863.9l-0.1,0.1h-95.8l-0.1-0.1V512.1l0.1-0.1h95.8l0.1,0.1V863.9z"/>
		<path d="M880,320h-96c-35.2,0-64,28.8-64,64v480c0,35.2,28.8,64,64,64h96c35.2,0,64-28.8,64-64V384C944,348.8,915.2,320,880,320z
			 M880,863.9L880,863.9l-95.9,0.1l-0.1-0.1V384.1l0.1-0.1h95.8l0.1,0.1V863.9z"/>
		<path d="M560,96h-96c-35.2,0-64,28.8-64,64v704c0,35.2,28.8,64,64,64h96c35.2,0,64-28.8,64-64V160C624,124.8,595.2,96,560,96z
			 M560,863.9L560,863.9l-95.9,0.1l-0.1-0.1V160.1l0.1-0.1h95.8l0.1,0.1V863.9z"/>
	</g>
</g>
</svg>
