<?xml version="1.0" encoding="utf-8"?>
<!-- Generator: Adobe Illustrator 21.0.0, SVG Export Plug-In . SVG Version: 6.00 Build 0)  -->
<svg version="1.1" id="图层_1" xmlns="http://www.w3.org/2000/svg" xmlns:xlink="http://www.w3.org/1999/xlink" x="0px" y="0px"
	 viewBox="0 0 1024 1024" style="enable-background:new 0 0 1024 1024;" xml:space="preserve">
<path d="M832,128H192c-70.7,0-128,57.3-128,128v448c0,70.7,57.3,128,128,128h192l108.8,81.6c11.4,8.5,27,8.5,38.4,0L640,832h192
	c70.7,0,128-57.3,128-128V256C960,185.3,902.7,128,832,128z M304,528c-26.5,0-48-21.5-48-48s21.5-48,48-48s48,21.5,48,48
	S330.5,528,304,528z M512,528c-26.5,0-48-21.5-48-48s21.5-48,48-48s48,21.5,48,48S538.5,528,512,528z M720,528
	c-26.5,0-48-21.5-48-48s21.5-48,48-48s48,21.5,48,48S746.5,528,720,528z"/>
</svg>
