<?xml version="1.0" encoding="utf-8"?>
<!-- Generator: Adobe Illustrator 21.0.0, SVG Export Plug-In . SVG Version: 6.00 Build 0)  -->
<svg version="1.1" id="图层_1" xmlns="http://www.w3.org/2000/svg" xmlns:xlink="http://www.w3.org/1999/xlink" x="0px" y="0px"
	 viewBox="0 0 1024 1024" style="enable-background:new 0 0 1024 1024;" xml:space="preserve">
<g>
	<path d="M832,128H192c-70.7,0-128,57.3-128,128v448c0,70.7,57.3,128,128,128h192l108.8,81.6c5.7,4.3,12.4,6.4,19.2,6.4
		s13.5-2.1,19.2-6.4L640,832h192c70.7,0,128-57.3,128-128V256C960,185.3,902.7,128,832,128z M896,704c0,35.3-28.7,64-64,64H640
		c-13.8,0-27.3,4.5-38.4,12.8L512,848l-89.6-67.2c-11.1-8.3-24.6-12.8-38.4-12.8H192c-35.3,0-64-28.7-64-64V256
		c0-35.3,28.7-64,64-64h640c35.3,0,64,28.7,64,64V704z"/>
	<circle cx="512" cy="480" r="48"/>
	<circle cx="720" cy="480" r="48"/>
	<circle cx="304" cy="480" r="48"/>
</g>
</svg>
