<?xml version="1.0" encoding="utf-8"?>
<!-- Generator: Adobe Illustrator 21.0.0, SVG Export Plug-In . SVG Version: 6.00 Build 0)  -->
<svg version="1.1" id="图层_1" xmlns="http://www.w3.org/2000/svg" xmlns:xlink="http://www.w3.org/1999/xlink" x="0px" y="0px"
	 viewBox="0 0 1024 1024" style="enable-background:new 0 0 1024 1024;" xml:space="preserve">
<g>
	<path d="M513.2,64c-0.4,0-0.8,0-1.2,0C267.2,64,66.9,261.8,64,506.7c-1,86.4,22.5,167.3,64,236.2V864c0,17.7,14.3,32,32,32h121.1
		c67.4,40.6,146.4,64,230.9,64c1.8,0,3.5,0,5.3,0c245.3-2.8,443.4-203.9,442.7-449.2C959.4,264.3,759.7,64.6,513.2,64z M785.3,781.4
		c-34.9,35.4-75.5,63.3-120.8,83c-46.8,20.4-96.6,31-148,31.6c-1.5,0-3,0-4.5,0c-35.5,0-70.7-4.8-104.5-14.4
		c-32.7-9.2-64.2-22.8-93.4-40.5c-10-6-21.4-9.2-33-9.2H192v-89.1c0-11.6-3.2-23.1-9.2-33C146.1,649,127.2,579,128,507.4
		c0.6-51.3,11.2-101,31.5-147.7c19.6-45.2,47.5-85.8,82.8-120.7c35.3-34.9,76.2-62.2,121.7-81.3C410.9,138,460.7,128,512,128h1
		c51.7,0.1,101.8,10.3,148.9,30.3c45.5,19.3,86.5,47,121.6,82.1c35.2,35.2,62.8,76.1,82.1,121.6c20,47.1,30.2,97.2,30.3,148.9
		c0.1,51.4-9.8,101.3-29.5,148.4C847.5,704.9,820.2,746,785.3,781.4z"/>
	<circle cx="512" cy="512" r="48"/>
	<circle cx="720" cy="512" r="48"/>
	<circle cx="304" cy="512" r="48"/>
</g>
</svg>
