<?xml version="1.0" encoding="utf-8"?>
<!-- Generator: Adobe Illustrator 21.0.0, SVG Export Plug-In . SVG Version: 6.00 Build 0)  -->
<svg version="1.1" id="图层_1" xmlns="http://www.w3.org/2000/svg" xmlns:xlink="http://www.w3.org/1999/xlink" x="0px" y="0px"
	 viewBox="0 0 1024 1024" style="enable-background:new 0 0 1024 1024;" xml:space="preserve">
<path d="M513.2,64C267.9,63.4,66.9,261.4,64,506.7c-1,86.4,22.5,167.3,64,236.2V864c0,17.7,14.3,32,32,32h121.1
	c68.8,41.5,149.7,65,236.2,64c245.3-2.8,443.4-203.9,442.7-449.2C959.4,264.3,759.7,64.6,513.2,64z M304,560c-26.5,0-48-21.5-48-48
	s21.5-48,48-48s48,21.5,48,48S330.5,560,304,560z M512,560c-26.5,0-48-21.5-48-48s21.5-48,48-48s48,21.5,48,48S538.5,560,512,560z
	 M720,560c-26.5,0-48-21.5-48-48s21.5-48,48-48s48,21.5,48,48S746.5,560,720,560z"/>
</svg>
