<?xml version="1.0" encoding="utf-8"?>
<!-- Generator: Adobe Illustrator 21.0.0, SVG Export Plug-In . SVG Version: 6.00 Build 0)  -->
<svg version="1.1" id="图层_1" xmlns="http://www.w3.org/2000/svg" xmlns:xlink="http://www.w3.org/1999/xlink" x="0px" y="0px"
	 viewBox="0 0 1024 1024" style="enable-background:new 0 0 1024 1024;" xml:space="preserve">
<g id="图层_100">
	<g>
		<path d="M800,96H224c-70.4,0-128,57.6-128,128v576c0,70.4,57.6,128,128,128h576c70.4,0,128-57.6,128-128V224
			C928,153.6,870.4,96,800,96z M704,512c0,17.6-14.4,32-32,32H352c-17.6,0-32-14.4-32-32l0,0c0-17.6,14.4-32,32-32h320
			C689.6,480,704,494.4,704,512L704,512z"/>
	</g>
</g>
</svg>
