<?xml version="1.0" encoding="utf-8"?>
<!-- Generator: Adobe Illustrator 21.0.0, SVG Export Plug-In . SVG Version: 6.00 Build 0)  -->
<svg version="1.1" id="图层_1" xmlns="http://www.w3.org/2000/svg" xmlns:xlink="http://www.w3.org/1999/xlink" x="0px" y="0px"
	 viewBox="0 0 1024 1024" style="enable-background:new 0 0 1024 1024;" xml:space="preserve">
<g id="图层_26_1_">
	<g>
		<path d="M736,64H288c-70.7,0-128,57.3-128,128v640c0,70.7,57.3,128,128,128h448c70.7,0,128-57.3,128-128V192
			C864,121.3,806.7,64,736,64z M800,832c0,35.3-28.7,64-64,64H288c-35.3,0-64-28.7-64-64V192c0-35.3,28.7-64,64-64h448
			c35.3,0,64,28.7,64,64V832z"/>
		<path d="M672,192H352c-35.3,0-64,28.7-64,64v384c0,35.3,28.7,64,64,64h320c35.3,0,64-28.7,64-64V256C736,220.7,707.3,192,672,192z
			 M672,640L672,640H352l0,0V256l0,0h320l0,0V640z"/>
		<circle cx="512" cy="800" r="32"/>
	</g>
</g>
</svg>
