<?xml version="1.0" encoding="utf-8"?>
<!-- Generator: Adobe Illustrator 21.0.0, SVG Export Plug-In . SVG Version: 6.00 Build 0)  -->
<svg version="1.1" id="图层_1" xmlns="http://www.w3.org/2000/svg" xmlns:xlink="http://www.w3.org/1999/xlink" x="0px" y="0px"
	 viewBox="0 0 1024 1024" style="enable-background:new 0 0 1024 1024;" xml:space="preserve">
<path d="M768,64h-64l0,0H448l0,0H256c-70.4,0-128,57.6-128,128v638c0,70.4,57.6,128,128,128h512c70.4,0,128-57.6,128-128V192
	C896,121.6,838.4,64,768,64z M512,128h128v216.4l-35.4-17.7L576,312.4l-28.6,14.3L512,344.4V128z M832,830c0,17-6.7,33-18.9,45.1
	C801,887.3,785,894,768,894H256c-17,0-33-6.7-45.1-18.9C198.7,863,192,847,192,830V192c0-17,6.7-33,18.9-45.1
	C223,134.7,239,128,256,128h192v268.2c0,18.5,15.2,32,32,32c4.7,0,9.6-1.1,14.3-3.4L576,384l81.7,40.8c4.7,2.3,9.6,3.4,14.3,3.4
	c16.8,0,32-13.5,32-32V128h64c17,0,33,6.7,45.1,18.9C825.3,159,832,175,832,192V830z"/>
</svg>
