<?xml version="1.0" encoding="utf-8"?>
<!-- Generator: Adobe Illustrator 21.0.0, SVG Export Plug-In . SVG Version: 6.00 Build 0)  -->
<svg version="1.1" id="图层_1" xmlns="http://www.w3.org/2000/svg" xmlns:xlink="http://www.w3.org/1999/xlink" x="0px" y="0px"
	 viewBox="0 0 1024 1024" style="enable-background:new 0 0 1024 1024;" xml:space="preserve">
<g id="图层_180">
	<g>
		<g>
			<path d="M384,192h256c17.6,0,32-14.4,32-32V96c0-17.6-14.4-32-32-32H384c-17.6,0-32,14.4-32,32v64C352,177.6,366.4,192,384,192z"
				/>
		</g>
		<g>
			<path d="M768,96h-32v64c0,52.9-43.1,96-96,96H384c-52.9,0-96-43.1-96-96V96h-32c-70.4,0-128,57.6-128,128v608
				c0,70.4,57.6,128,128,128h512c70.4,0,128-57.6,128-128V224C896,153.6,838.4,96,768,96z M704,736c0,17.6-14.4,32-32,32H352
				c-17.6,0-32-14.4-32-32l0,0c0-17.6,14.4-32,32-32h320C689.6,704,704,718.4,704,736L704,736z M704,576c0,17.6-14.4,32-32,32H352
				c-17.6,0-32-14.4-32-32l0,0c0-17.6,14.4-32,32-32h320C689.6,544,704,558.4,704,576L704,576z M704,416c0,17.6-14.4,32-32,32H352
				c-17.6,0-32-14.4-32-32l0,0c0-17.6,14.4-32,32-32h320C689.6,384,704,398.4,704,416L704,416z"/>
		</g>
	</g>
</g>
</svg>
