<?xml version="1.0" encoding="utf-8"?>
<!-- Generator: Adobe Illustrator 21.0.0, SVG Export Plug-In . SVG Version: 6.00 Build 0)  -->
<svg version="1.1" id="图层_1" xmlns="http://www.w3.org/2000/svg" xmlns:xlink="http://www.w3.org/1999/xlink" x="0px" y="0px"
	 viewBox="0 0 1024 1024" style="enable-background:new 0 0 1024 1024;" xml:space="preserve">
<g id="图层_179_1_">
	<g>
		<path d="M672,384H352c-17.6,0-32,14.4-32,32l0,0c0,17.6,14.4,32,32,32h320c17.6,0,32-14.4,32-32l0,0C704,398.4,689.6,384,672,384z
			"/>
		<path d="M672,544H352c-17.6,0-32,14.4-32,32l0,0c0,17.6,14.4,32,32,32h320c17.6,0,32-14.4,32-32l0,0C704,558.4,689.6,544,672,544z
			"/>
		<path d="M672,704H352c-17.6,0-32,14.4-32,32l0,0c0,17.6,14.4,32,32,32h320c17.6,0,32-14.4,32-32l0,0C704,718.4,689.6,704,672,704z
			"/>
		<path d="M768,96h-72.7c-11.1-19.1-31.8-32-55.3-32H384c-23.6,0-44.2,12.9-55.3,32H256c-70.4,0-128,57.6-128,128v608
			c0,70.4,57.6,128,128,128h512c70.4,0,128-57.6,128-128V224C896,153.6,838.4,96,768,96z M384,128.1l0.1-0.1h255.8l0.1,0.1v63.8
			l-0.1,0.1H384.1l-0.1-0.1L384,128.1z M832,832c0,17-6.7,33-18.9,45.1C801,889.3,785,896,768,896H256c-17,0-33-6.7-45.1-18.9
			C198.7,865,192,849,192,832V224c0-17,6.7-33,18.9-45.1C223,166.7,239,160,256,160h64v32c0,35.2,28.8,64,64,64h256
			c35.2,0,64-28.8,64-64v-32h64c17,0,33,6.7,45.1,18.9C825.3,191,832,207,832,224V832z"/>
	</g>
</g>
</svg>
