<?xml version="1.0" encoding="utf-8"?>
<!-- Generator: Adobe Illustrator 21.0.0, SVG Export Plug-In . SVG Version: 6.00 Build 0)  -->
<svg version="1.1" id="图层_1" xmlns="http://www.w3.org/2000/svg" xmlns:xlink="http://www.w3.org/1999/xlink" x="0px" y="0px"
	 viewBox="0 0 1024 1024" style="enable-background:new 0 0 1024 1024;" xml:space="preserve">
<g id="图层_50">
	<g>
		<path d="M896,128H256c-35.2,0-64,28.8-64,64v64h-64c-35.2,0-64,28.8-64,64v383.7c0,0.1,0,0.2,0,0.2v128c0,35.2,28.8,64,64,64h640
			c35.2,0,64-28.8,64-64v-64h64c35.2,0,64-28.8,64-64V192C960,156.8,931.2,128,896,128z M128.1,320h639.8l0.1,0.1v473.4L593.8,677.4
			c-10.7-7.2-24.8-7.2-35.5,0l-74.2,49.4L310.6,553.4c-10.8-10.8-27.7-12.5-40.4-4L128,644.2V320.1L128.1,320z M128,831.9V721.1
			l155.9-103.9l173.5,173.5c10.8,10.8,27.7,12.5,40.4,4l78.2-52.2L710.3,832L128,831.9C128.1,832,128,831.9,128,831.9z M896,703.9
			L896,703.9l-64,0.1V320c0-35.2-28.8-64-64-64H256v-63.9l0.1-0.1h639.8l0.1,0.1V703.9z"/>
		<path d="M608,576c53,0,96-43,96-96s-43-96-96-96s-96,43-96,96S555,576,608,576z M608,448c17.6,0,32,14.4,32,32s-14.4,32-32,32
			s-32-14.4-32-32S590.4,448,608,448z"/>
	</g>
</g>
</svg>
