<?xml version="1.0" encoding="utf-8"?>
<!-- Generator: Adobe Illustrator 21.0.0, SVG Export Plug-In . SVG Version: 6.00 Build 0)  -->
<svg version="1.1" id="图层_1" xmlns="http://www.w3.org/2000/svg" xmlns:xlink="http://www.w3.org/1999/xlink" x="0px" y="0px"
	 viewBox="0 0 1024 1024" style="enable-background:new 0 0 1024 1024;" xml:space="preserve">
<g id="图层_90">
	<path d="M864,480H544V160c0-17.6-14.4-32-32-32l0,0c-17.6,0-32,14.4-32,32v320H160c-17.6,0-32,14.4-32,32l0,0c0,17.6,14.4,32,32,32
		h320v320c0,17.6,14.4,32,32,32l0,0c17.6,0,32-14.4,32-32V544h320c17.6,0,32-14.4,32-32l0,0C896,494.4,881.6,480,864,480z"/>
</g>
</svg>
