<?xml version="1.0" encoding="utf-8"?>
<!-- Generator: Adobe Illustrator 21.0.0, SVG Export Plug-In . SVG Version: 6.00 Build 0)  -->
<svg version="1.1" id="图层_1" xmlns="http://www.w3.org/2000/svg" xmlns:xlink="http://www.w3.org/1999/xlink" x="0px" y="0px"
	 viewBox="0 0 1024 1024" style="enable-background:new 0 0 1024 1024;" xml:space="preserve">
<path d="M800,96H224c-70.4,0-128,57.6-128,128v576c0,70.4,57.6,128,128,128h576c70.4,0,128-57.6,128-128V224
	C928,153.6,870.4,96,800,96z M672,544H544v128c0,17.6-14.4,32-32,32s-32-14.4-32-32V544H352c-17.6,0-32-14.4-32-32
	c0-17.6,14.4-32,32-32h128V352c0-17.6,14.4-32,32-32s32,14.4,32,32v128h128c17.6,0,32,14.4,32,32C704,529.6,689.6,544,672,544z"/>
</svg>
