<?xml version="1.0" encoding="utf-8"?>
<!-- Generator: Adobe Illustrator 21.0.0, SVG Export Plug-In . SVG Version: 6.00 Build 0)  -->
<svg version="1.1" id="图层_1" xmlns="http://www.w3.org/2000/svg" xmlns:xlink="http://www.w3.org/1999/xlink" x="0px" y="0px"
	 viewBox="0 0 1024 1024" style="enable-background:new 0 0 1024 1024;" xml:space="preserve">
<path d="M512,64C264.6,64,64,264.6,64,512s200.6,448,448,448s448-200.6,448-448S759.4,64,512,64z M672,544H544v128
	c0,17.6-14.4,32-32,32s-32-14.4-32-32V544H352c-17.6,0-32-14.4-32-32c0-17.6,14.4-32,32-32h128V352c0-17.6,14.4-32,32-32
	s32,14.4,32,32v128h128c17.6,0,32,14.4,32,32C704,529.6,689.6,544,672,544z"/>
</svg>
