<?xml version="1.0" encoding="utf-8"?>
<!-- Generator: Adobe Illustrator 21.0.0, SVG Export Plug-In . SVG Version: 6.00 Build 0)  -->
<svg version="1.1" id="图层_1" xmlns="http://www.w3.org/2000/svg" xmlns:xlink="http://www.w3.org/1999/xlink" x="0px" y="0px"
	 viewBox="0 0 1024 1024" style="enable-background:new 0 0 1024 1024;" xml:space="preserve">
<g>
	<path d="M753.9,154.1c-14.6-9.9-34.5-6.1-44.4,8.6c-9.9,14.6-6.1,34.5,8.6,44.4C819.5,275.7,880,389.7,880,512
		c0,98.3-38.3,190.7-107.8,260.2S610.3,880,512,880s-190.7-38.3-260.2-107.8S144,610.3,144,512c0-122.3,60.5-236.3,161.9-304.9
		c14.6-9.9,18.5-29.8,8.6-44.4c-9.9-14.6-29.8-18.5-44.4-8.6C151,234.6,80,368.5,80,512c0,58.3,11.4,114.9,34,168.2
		c21.8,51.4,52.9,97.6,92.6,137.3c39.7,39.7,85.9,70.8,137.3,92.6c53.3,22.5,109.9,34,168.2,34s114.9-11.4,168.2-34
		c51.4-21.8,97.6-52.9,137.3-92.6c39.7-39.7,70.8-85.9,92.6-137.3c22.5-53.3,34-109.9,34-168.2C944,368.5,873,234.6,753.9,154.1z"/>
	<path d="M512,464c17.6,0,32-14.4,32-32V112c0-17.6-14.4-32-32-32s-32,14.4-32,32v320C480,449.6,494.4,464,512,464z"/>
</g>
</svg>
