<?xml version="1.0" encoding="utf-8"?>
<!-- Generator: Adobe Illustrator 21.0.0, SVG Export Plug-In . SVG Version: 6.00 Build 0)  -->
<svg version="1.1" id="图层_1" xmlns="http://www.w3.org/2000/svg" xmlns:xlink="http://www.w3.org/1999/xlink" x="0px" y="0px"
	 viewBox="0 0 1024 1024" style="enable-background:new 0 0 1024 1024;" xml:space="preserve">
<g id="图层_42">
	<g>
		<path d="M128,416L128,416c-17.6,0-32,14.4-32,32v448c0,17.6,14.4,32,32,32l0,0c17.6,0,32-14.4,32-32V448
			C160,430.4,145.6,416,128,416z"/>
		<path d="M797.1,384H628c0,0,23.1-64.2,16-176c-4-63-50.4-112-112-112l0,0c-61.6,0-112,50.4-112,112v48v19
			c0,37.4-18.7,72.8-45.5,99.5c-25.9,25.9-59.8,40.5-95.9,41.4c-1.3,0-2.5,0.1-3.8,0c-28.1-0.1-50.8,22.9-50.8,51v397
			c0,35.3,28.7,64,64,64h440.8c59.3,0,110.9-40.8,124.5-98.5l68.3-288C940.7,461.1,879.7,384,797.1,384z M859.4,526.8l-68.3,288
			c-3.3,14.1-11.1,26.3-22.5,35.3c-11.5,9.2-26,13.9-40.7,13.9H288V479.6c49.6-3.1,96.2-24.2,131.8-59.8
			c19.1-19.1,34.3-40.4,45.3-63.5c12.6-26.4,18.9-53.7,18.9-81.3v-19v-48c0-12.7,5-24.7,14.2-33.8c9.1-9.1,21.1-14.2,33.8-14.2
			c12.6,0,23.3,4.5,32,13.3c9.4,9.6,15.2,23.4,16.2,38.8c3.1,49.6-0.4,87.9-4,111.4s-7.8,37.1-8.5,39.2l-24.2,63.7
			c-4,10.5,3.8,21.7,15,21.7H628h168.1c20,0,39.1,8.8,51.4,24.5C859.6,488,863.9,507.7,859.4,526.8z"/>
	</g>
</g>
</svg>
