<?xml version="1.0" encoding="utf-8"?>
<!-- Generator: Adobe Illustrator 21.0.0, SVG Export Plug-In . SVG Version: 6.00 Build 0)  -->
<svg version="1.1" id="图层_1" xmlns="http://www.w3.org/2000/svg" xmlns:xlink="http://www.w3.org/1999/xlink" x="0px" y="0px"
	 viewBox="0 0 1024 1024" style="enable-background:new 0 0 1024 1024;" xml:space="preserve">
<g id="图层_115">
	<path d="M512,64C264.6,64,64,264.6,64,512s200.6,448,448,448s448-200.6,448-448S759.4,64,512,64z M512,752c-22.1,0-40-17.9-40-40
		s17.9-40,40-40c22.1,0,40,17.9,40,40S534.1,752,512,752z M640.9,488.8c-18.8,21.7-44.6,38-74.4,47.2c-13.4,4.1-22.5,16.4-22.5,30.5
		v9.5c0,17.7-14.3,32-32,32s-32-14.3-32-32v-9.5c0-20.7,6.5-40.4,18.7-57c12.3-16.7,29.2-28.7,49-34.7c36-11,60.2-37.9,60.2-66.8
		c0-18-9.1-35.3-25.7-48.7c-18.5-15-43.5-23.3-70.3-23.3c-26.9,0-51.8,8.3-70.3,23.3C425.1,372.7,416,390,416,408
		c0,17.7-14.3,32-32,32s-32-14.3-32-32c0-37.6,17.5-72.5,49.3-98.4C431.2,285.4,470.5,272,512,272s80.8,13.4,110.7,37.6
		c31.8,25.8,49.3,60.8,49.3,98.4C672,437.4,661.2,465.3,640.9,488.8z"/>
</g>
</svg>
