<?xml version="1.0" encoding="utf-8"?>
<!-- Generator: Adobe Illustrator 21.0.0, SVG Export Plug-In . SVG Version: 6.00 Build 0)  -->
<svg version="1.1" id="图层_1" xmlns="http://www.w3.org/2000/svg" xmlns:xlink="http://www.w3.org/1999/xlink" x="0px" y="0px"
	 viewBox="0 0 1024 1024" style="enable-background:new 0 0 1024 1024;" xml:space="preserve">
<g>
	<path d="M512,64C264.6,64,64,264.6,64,512s200.6,448,448,448s448-200.6,448-448S759.4,64,512,64z M783.5,783.5
		c-35.3,35.3-76.4,63-122.1,82.3c-47.3,20-97.6,30.2-149.5,30.2c-51.9,0-102.2-10.1-149.5-30.2c-45.7-19.3-86.8-47-122.1-82.3
		c-35.3-35.3-63-76.4-82.3-122.1c-20-47.3-30.2-97.6-30.2-149.5s10.1-102.2,30.2-149.5c19.3-45.7,47-86.8,82.3-122.1
		c35.3-35.3,76.4-63,122.1-82.3c47.3-20,97.6-30.2,149.5-30.2c51.9,0,102.2,10.1,149.5,30.2c45.7,19.3,86.8,47,122.1,82.3
		c35.3,35.3,63,76.4,82.3,122.1c20,47.3,30.2,97.6,30.2,149.5s-10.1,102.2-30.2,149.5C846.5,707.2,818.8,748.2,783.5,783.5z"/>
	<path d="M622.7,309.6C592.8,285.4,553.5,272,512,272s-80.8,13.4-110.7,37.6C369.5,335.5,352,370.4,352,408c0,17.7,14.3,32,32,32
		s32-14.3,32-32c0-18,9.1-35.3,25.7-48.7c18.5-15,43.5-23.3,70.3-23.3c26.9,0,51.8,8.3,70.3,23.3C598.9,372.7,608,390,608,408
		c0,28.9-24.2,55.7-60.2,66.8c-19.8,6.1-36.7,18.1-49,34.7c-12.3,16.6-18.7,36.3-18.7,57v9.5c0,17.7,14.3,32,32,32s32-14.3,32-32
		v-9.5c0-14.2,9-26.4,22.5-30.5c29.9-9.1,55.6-25.4,74.4-47.2c20.3-23.5,31.1-51.4,31.1-80.8C672,370.4,654.5,335.5,622.7,309.6z"/>
	<circle cx="512" cy="712" r="40"/>
</g>
</svg>
