<?xml version="1.0" encoding="utf-8"?>
<!-- Generator: Adobe Illustrator 21.0.0, SVG Export Plug-In . SVG Version: 6.00 Build 0)  -->
<svg version="1.1" id="图层_1" xmlns="http://www.w3.org/2000/svg" xmlns:xlink="http://www.w3.org/1999/xlink" x="0px" y="0px"
	 viewBox="0 0 1024 1024" style="enable-background:new 0 0 1024 1024;" xml:space="preserve">
<path d="M800,96H224c-70.4,0-128,57.6-128,128v576c0,70.4,57.6,128,128,128h576c70.4,0,128-57.6,128-128V224
	C928,153.6,870.4,96,800,96z M660.5,536.6l-192,160c-5.9,4.9-13.1,7.4-20.5,7.4c-4.6,0-9.2-1-13.6-3c-11.2-5.3-18.4-16.6-18.4-29
	V352c0-12.4,7.2-23.7,18.4-29s24.5-3.6,34.1,4.4l192,160c7.3,6.1,11.5,15.1,11.5,24.6S667.8,530.5,660.5,536.6z"/>
</svg>
