<?xml version="1.0" encoding="utf-8"?>
<!-- Generator: Adobe Illustrator 21.0.0, SVG Export Plug-In . SVG Version: 6.00 Build 0)  -->
<svg version="1.1" id="图层_1" xmlns="http://www.w3.org/2000/svg" xmlns:xlink="http://www.w3.org/1999/xlink" x="0px" y="0px"
	 viewBox="0 0 1024 1024" style="enable-background:new 0 0 1024 1024;" xml:space="preserve">
<g>
	<path d="M800,96H224c-70.4,0-128,57.6-128,128v576c0,70.4,57.6,128,128,128h576c70.4,0,128-57.6,128-128V224
		C928,153.6,870.4,96,800,96z M864,800c0,17-6.7,33-18.9,45.1C833,857.3,817,864,800,864H224c-17,0-33-6.7-45.1-18.9
		C166.7,833,160,817,160,800V224c0-17,6.7-33,18.9-45.1C191,166.7,207,160,224,160h576c17,0,33,6.7,45.1,18.9
		C857.3,191,864,207,864,224V800z"/>
	<path d="M470.6,329.4c-12.5-12.5-32.8-12.5-45.3,0s-12.5,32.8,0,45.3L562.7,512L425.4,649.4c-12.5,12.5-12.5,32.8,0,45.3
		c6.2,6.2,14.4,9.4,22.6,9.4s16.4-3.1,22.6-9.4l160-160c12.5-12.5,12.5-32.8,0-45.3L470.6,329.4z"/>
</g>
</svg>
