<?xml version="1.0" encoding="utf-8"?>
<!-- Generator: Adobe Illustrator 21.0.0, SVG Export Plug-In . SVG Version: 6.00 Build 0)  -->
<svg version="1.1" id="图层_1" xmlns="http://www.w3.org/2000/svg" xmlns:xlink="http://www.w3.org/1999/xlink" x="0px" y="0px"
	 viewBox="0 0 1024 1024" style="enable-background:new 0 0 1024 1024;" xml:space="preserve">
<g>
	<path d="M512,64C264.6,64,64,264.6,64,512s200.6,448,448,448s448-200.6,448-448S759.4,64,512,64z M783.5,783.5
		c-35.3,35.3-76.4,63-122.1,82.3c-47.3,20-97.6,30.2-149.5,30.2c-51.9,0-102.2-10.1-149.5-30.2c-45.7-19.3-86.8-47-122.1-82.3
		c-35.3-35.3-63-76.4-82.3-122.1c-20-47.3-30.2-97.6-30.2-149.5s10.1-102.2,30.2-149.5c19.3-45.7,47-86.8,82.3-122.1
		c35.3-35.3,76.4-63,122.1-82.3c47.3-20,97.6-30.2,149.5-30.2c51.9,0,102.2,10.1,149.5,30.2c45.7,19.3,86.8,47,122.1,82.3
		s63,76.4,82.3,122.1c20,47.3,30.2,97.6,30.2,149.5s-10.1,102.2-30.2,149.5C846.5,707.2,818.8,748.2,783.5,783.5z"/>
	<path d="M660.5,487.4l-192-160c-9.5-7.9-22.8-9.7-34.1-4.4c-11.2,5.3-18.4,16.6-18.4,29v320c0,12.4,7.2,23.7,18.4,29
		c4.3,2,9,3,13.6,3c7.3,0,14.6-2.5,20.5-7.4l192-160c7.3-6.1,11.5-15.1,11.5-24.6C672,502.5,667.8,493.5,660.5,487.4z"/>
</g>
</svg>
