<?xml version="1.0" encoding="utf-8"?>
<!-- Generator: Adobe Illustrator 21.0.0, SVG Export Plug-In . SVG Version: 6.00 Build 0)  -->
<svg version="1.1" id="图层_1" xmlns="http://www.w3.org/2000/svg" xmlns:xlink="http://www.w3.org/1999/xlink" x="0px" y="0px"
	 viewBox="0 0 1024 1024" style="enable-background:new 0 0 1024 1024;" xml:space="preserve">
<g>
	<path d="M800,96H224c-70.4,0-128,57.6-128,128v576c0,70.4,57.6,128,128,128h576c70.4,0,128-57.6,128-128V224
		C928,153.6,870.4,96,800,96z M864,800c0,17-6.7,33-18.9,45.1C833,857.3,817,864,800,864H224c-17,0-33-6.7-45.1-18.9
		C166.7,833,160,817,160,800V224c0-17,6.7-33,18.9-45.1C191,166.7,207,160,224,160h576c17,0,33,6.7,45.1,18.9
		C857.3,191,864,207,864,224V800z"/>
	<path d="M660.5,487.4l-192-160c-9.5-7.9-22.8-9.7-34.1-4.4c-11.2,5.3-18.4,16.6-18.4,29v320c0,12.4,7.2,23.7,18.4,29
		c4.3,2,9,3,13.6,3c7.3,0,14.6-2.5,20.5-7.4l192-160c7.3-6.1,11.5-15.1,11.5-24.6C672,502.5,667.8,493.5,660.5,487.4z"/>
</g>
</svg>
