<?xml version="1.0" encoding="utf-8"?>
<!-- Generator: Adobe Illustrator 21.0.0, SVG Export Plug-In . SVG Version: 6.00 Build 0)  -->
<svg version="1.1" id="图层_1" xmlns="http://www.w3.org/2000/svg" xmlns:xlink="http://www.w3.org/1999/xlink" x="0px" y="0px"
	 viewBox="0 0 1024 1024" style="enable-background:new 0 0 1024 1024;" xml:space="preserve">
<path d="M886.6,841.4L750.5,705.2c50.9-61,81.5-139.6,81.5-225.2c0-194.4-157.6-352-352-352S128,285.6,128,480s157.6,352,352,352
	c85.7,0,164.2-30.6,225.2-81.5l136.1,136.1c6.2,6.2,14.4,9.4,22.6,9.4s16.4-3.1,22.6-9.4C899.1,874.1,899.1,853.9,886.6,841.4z
	 M683.7,683.7c-26.5,26.4-57.3,47.2-91.6,61.7c-35.5,15-73.2,22.6-112.1,22.6c-38.9,0-76.6-7.6-112.1-22.6
	c-34.3-14.5-65.1-35.3-91.6-61.7c-26.5-26.5-47.2-57.3-61.7-91.6c-15-35.5-22.6-73.2-22.6-112.1c0-38.9,7.6-76.6,22.6-112.1
	c14.5-34.3,35.3-65.1,61.7-91.6c26.5-26.5,57.3-47.2,91.6-61.7c35.5-15,73.2-22.6,112.1-22.6c38.9,0,76.6,7.6,112.1,22.6
	c34.3,14.5,65.1,35.3,91.6,61.7c26.5,26.5,47.2,57.3,61.7,91.6c15,35.5,22.6,73.2,22.6,112.1c0,38.9-7.6,76.6-22.6,112.1
	C730.9,626.4,710.1,657.2,683.7,683.7z"/>
</svg>
