<?xml version="1.0" encoding="utf-8"?>
<!-- Generator: Adobe Illustrator 21.0.0, SVG Export Plug-In . SVG Version: 6.00 Build 0)  -->
<svg version="1.1" id="图层_1" xmlns="http://www.w3.org/2000/svg" xmlns:xlink="http://www.w3.org/1999/xlink" x="0px" y="0px"
	 viewBox="0 0 1024 1024" style="enable-background:new 0 0 1024 1024;" xml:space="preserve">
<g id="图层_191">
	<g>
		<path d="M950,431.4l-149.3-256c-28.6-49-81.5-79.4-138.2-79.4h-301c-56.7,0-109.6,30.4-138.2,79.4L74,431.4
			c-29,49.7-29,111.5,0,161.2l149.3,256c28.6,49,81.5,79.4,138.2,79.4h301c56.7,0,109.6-30.4,138.2-79.4l149.3-256
			C979,542.9,979,481.1,950,431.4z M894.7,560.4l-149.3,256c-17.1,29.4-48.9,47.6-82.9,47.6h-301c-34,0-65.8-18.2-82.9-47.6
			l-149.3-256c-17.4-29.8-17.4-66.9,0-96.7l149.3-256c17.1-29.4,48.9-47.6,82.9-47.6h301c34,0,65.8,18.2,82.9,47.6l149.3,256
			C912.1,493.5,912.1,530.5,894.7,560.4z"/>
		<path d="M512,320c-106,0-192,86-192,192s86,192,192,192s192-86,192-192S618,320,512,320z M602.5,602.5
			C578.3,626.7,546.2,640,512,640s-66.3-13.3-90.5-37.5S384,546.2,384,512s13.3-66.3,37.5-90.5S477.8,384,512,384
			s66.3,13.3,90.5,37.5S640,477.8,640,512S626.7,578.3,602.5,602.5z"/>
	</g>
</g>
</svg>
