<?xml version="1.0" encoding="utf-8"?>
<!-- Generator: Adobe Illustrator 21.0.0, SVG Export Plug-In . SVG Version: 6.00 Build 0)  -->
<svg version="1.1" id="图层_1" xmlns="http://www.w3.org/2000/svg" xmlns:xlink="http://www.w3.org/1999/xlink" x="0px" y="0px"
	 viewBox="0 0 1024 1024" style="enable-background:new 0 0 1024 1024;" xml:space="preserve">
<g id="图层_192_1_">
	<path d="M950,431.4l-149.3-256c-28.6-49-81.5-79.4-138.2-79.4h-301c-56.7,0-109.6,30.4-138.2,79.4L74,431.4
		c-29,49.7-29,111.5,0,161.2l149.3,256c28.6,49,81.5,79.4,138.2,79.4h301c56.7,0,109.6-30.4,138.2-79.4l149.3-256
		C979,542.9,979,481.1,950,431.4z M512,672c-88.4,0-160-71.6-160-160s71.6-160,160-160s160,71.6,160,160S600.4,672,512,672z"/>
</g>
</svg>
