<?xml version="1.0" encoding="utf-8"?>
<!-- Generator: Adobe Illustrator 21.0.0, SVG Export Plug-In . SVG Version: 6.00 Build 0)  -->
<svg version="1.1" id="图层_1" xmlns="http://www.w3.org/2000/svg" xmlns:xlink="http://www.w3.org/1999/xlink" x="0px" y="0px"
	 viewBox="0 0 1024 1024" style="enable-background:new 0 0 1024 1024;" xml:space="preserve">
<g>
	<path d="M890.9,795.1l-22.2-576C866.1,150.4,809.6,96,740.8,96H283.2c-68.8,0-125.3,54.4-127.9,123.1l-22.2,576
		C130.3,867.6,188.4,928,261,928h502C835.6,928,893.7,867.6,890.9,795.1z M809.1,844.4C796.9,857,780.5,864,763,864H261
		c-17.6,0-33.9-7-46.1-19.6c-12.2-12.7-18.5-29.3-17.8-46.8l22.2-576c0.6-16.6,7.6-32.1,19.6-43.7c12-11.5,27.7-17.9,44.4-17.9H741
		c16.6,0,32.4,6.4,44.4,17.9s18.9,27,19.6,43.7l22.2,576C827.6,815.1,821.3,831.7,809.1,844.4z"/>
	<path d="M656,272c-17.7,0-32,14.3-32,32c0,61.8-50.2,112-112,112s-112-50.2-112-112c0-17.7-14.3-32-32-32s-32,14.3-32,32
		c0,97,79,176,176,176s176-79,176-176C688,286.3,673.7,272,656,272z"/>
</g>
</svg>
