<?xml version="1.0" encoding="utf-8"?>
<!-- Generator: Adobe Illustrator 21.0.0, SVG Export Plug-In . SVG Version: 6.00 Build 0)  -->
<svg version="1.1" id="图层_1" xmlns="http://www.w3.org/2000/svg" xmlns:xlink="http://www.w3.org/1999/xlink" x="0px" y="0px"
	 viewBox="0 0 1024 1024" style="enable-background:new 0 0 1024 1024;" xml:space="preserve">
<path d="M890.9,795.1l-22.2-576C866.1,150.4,809.6,96,740.8,96H283.2c-68.8,0-125.3,54.4-127.9,123.1l-22.2,576
	C130.3,867.6,188.4,928,261,928h502C835.6,928,893.7,867.6,890.9,795.1z M512,480c-97,0-176-79-176-176c0-17.7,14.3-32,32-32
	s32,14.3,32,32c0,61.8,50.2,112,112,112s112-50.2,112-112c0-17.7,14.3-32,32-32s32,14.3,32,32C688,401,609,480,512,480z"/>
</svg>
