<?xml version="1.0" encoding="utf-8"?>
<!-- Generator: Adobe Illustrator 21.0.0, SVG Export Plug-In . SVG Version: 6.00 Build 0)  -->
<svg version="1.1" id="图层_1" xmlns="http://www.w3.org/2000/svg" xmlns:xlink="http://www.w3.org/1999/xlink" x="0px" y="0px"
	 viewBox="0 0 1024 1024" style="enable-background:new 0 0 1024 1024;" xml:space="preserve">
<g id="图层_53_1_">
	<g>
		<path d="M512,64C264.6,64,64,264.6,64,512s200.6,448,448,448s448-200.6,448-448S759.4,64,512,64z M288,416c0-26.5,21.5-48,48-48
			s48,21.5,48,48s-21.5,48-48,48S288,442.5,288,416z M512,704c-85.4,0-155.4-67.3-159.8-151.6c-0.2-4.6,3.4-8.4,8-8.4h48
			c4.2,0,7.7,3.2,8.1,7.4c3.8,49.5,45.3,88.6,95.7,88.6s91.9-39.1,95.7-88.6c0.3-4.2,3.9-7.4,8.1-7.4h48c4.6,0,8.2,3.8,8,8.4
			C667.4,636.7,597.4,704,512,704z M688,464c-26.5,0-48-21.5-48-48s21.5-48,48-48s48,21.5,48,48S714.5,464,688,464z"/>
	</g>
</g>
</svg>
