<?xml version="1.0" encoding="utf-8"?>
<!-- Generator: Adobe Illustrator 21.0.0, SVG Export Plug-In . SVG Version: 6.00 Build 0)  -->
<svg version="1.1" id="图层_1" xmlns="http://www.w3.org/2000/svg" xmlns:xlink="http://www.w3.org/1999/xlink" x="0px" y="0px"
	 viewBox="0 0 1024 1024" style="enable-background:new 0 0 1024 1024;" xml:space="preserve">
<g id="图层_52">
	<g>
		<path d="M512,64C264.6,64,64,264.6,64,512s200.6,448,448,448s448-200.6,448-448S759.4,64,512,64z M783.5,783.5
			c-35.3,35.3-76.4,63-122.1,82.3c-47.3,20-97.6,30.2-149.5,30.2s-102.2-10.1-149.5-30.2c-45.7-19.3-86.8-47-122.1-82.3
			s-63-76.4-82.3-122.1c-20-47.3-30.2-97.6-30.2-149.5s10.1-102.2,30.2-149.5c19.3-45.7,47-86.8,82.3-122.1s76.4-63,122.1-82.3
			c47.3-20,97.6-30.2,149.5-30.2s102.2,10.1,149.5,30.2c45.7,19.3,86.8,47,122.1,82.3s63,76.4,82.3,122.1
			c20,47.3,30.2,97.6,30.2,149.5s-10.1,102.2-30.2,149.5C846.5,707.2,818.8,748.2,783.5,783.5z"/>
		<circle cx="336" cy="416" r="48"/>
		<circle cx="688" cy="416" r="48"/>
		<path d="M663.8,544h-48c-4.2,0-7.7,3.2-8.1,7.4c-3.8,49.5-45.3,88.6-95.7,88.6s-91.9-39.1-95.7-88.6c-0.3-4.2-3.9-7.4-8.1-7.4h-48
			c-4.6,0-8.2,3.8-8,8.4C356.6,636.7,426.6,704,512,704s155.4-67.3,159.8-151.6C672,547.8,668.4,544,663.8,544z"/>
	</g>
</g>
</svg>
