<?xml version="1.0" encoding="utf-8"?>
<!-- Generator: Adobe Illustrator 21.0.0, SVG Export Plug-In . SVG Version: 6.00 Build 0)  -->
<svg version="1.1" id="图层_1" xmlns="http://www.w3.org/2000/svg" xmlns:xlink="http://www.w3.org/1999/xlink" x="0px" y="0px"
	 viewBox="0 0 1024 1024" style="enable-background:new 0 0 1024 1024;" xml:space="preserve">
<path d="M512,64C264.6,64,64,264.6,64,512s200.6,448,448,448s448-200.6,448-448S759.4,64,512,64z M661.5,865.8
	C614.2,885.9,563.9,896,512,896c-51.9,0-102.2-10.1-149.5-30.2c-45.7-19.3-86.8-47-122.1-82.3c-35.3-35.3-63-76.4-82.3-122.1
	c-20-47.3-30.2-97.6-30.2-149.5s10.1-102.2,30.2-149.5c15.2-35.9,35.5-68.9,60.6-98.5L760,805.2
	C730.4,830.3,697.4,850.7,661.5,865.8z M805.2,760L264,218.8c29.6-25.1,62.6-45.5,98.5-60.6c47.3-20,97.6-30.2,149.5-30.2
	c51.9,0,102.2,10.1,149.5,30.2c45.7,19.3,86.8,47,122.1,82.3s63,76.4,82.3,122.1c20,47.3,30.2,97.6,30.2,149.5
	S886,614.3,865.9,661.6C850.7,697.3,830.3,730.3,805.2,760z"/>
</svg>
