<?xml version="1.0" encoding="utf-8"?>
<!-- Generator: Adobe Illustrator 21.0.0, SVG Export Plug-In . SVG Version: 6.00 Build 0)  -->
<svg version="1.1" id="图层_1" xmlns="http://www.w3.org/2000/svg" xmlns:xlink="http://www.w3.org/1999/xlink" x="0px" y="0px"
	 viewBox="0 0 1024 1024" style="enable-background:new 0 0 1024 1024;" xml:space="preserve">
<g>
	<path d="M151.5,586.2c-5-24.2-7.5-49.2-7.5-74.2s2.5-50,7.5-74.2c4.8-23.6,12-46.8,21.4-69c9.2-21.8,20.6-42.8,33.9-62.5
		c13.2-19.5,28.3-37.8,45-54.5s35-31.8,54.5-45c19.7-13.3,40.7-24.7,62.5-33.9c22.2-9.4,45.4-16.6,69-21.4
		c48.5-9.9,99.9-9.9,148.4,0c23.6,4.8,46.8,12,69,21.4c21.8,9.2,42.8,20.6,62.5,33.9c19.5,13.2,37.8,28.3,54.5,45
		c1.4,1.4,2.8,2.8,4.1,4.2H688c-17.7,0-32,14.3-32,32s14.3,32,32,32h160c17.7,0,32-14.3,32-32V128c0-17.7-14.3-32-32-32
		s-32,14.3-32,32v77.1c-19.2-19-40.1-36.2-62.4-51.3c-23.1-15.6-47.8-29-73.4-39.8c-26.1-11-53.4-19.5-81.1-25.2
		C542.2,77.2,482,77.2,425,88.8c-27.8,5.7-55.1,14.2-81.1,25.2c-25.6,10.8-50.3,24.2-73.4,39.8c-22.9,15.4-44.4,33.2-63.9,52.7
		s-37.3,41-52.7,63.9c-15.6,23.1-29,47.8-39.8,73.4c-11,26.1-19.5,53.4-25.2,81.1C83,453.4,80,482.7,80,512s3,58.6,8.8,87
		c3.1,15.2,16.4,25.6,31.3,25.6c2.1,0,4.3-0.2,6.4-0.7C143.9,620.4,155,603.5,151.5,586.2z"/>
	<path d="M935.2,425c-3.5-17.3-20.5-28.5-37.8-24.9c-17.3,3.5-28.5,20.5-24.9,37.8c5,24.2,7.5,49.2,7.5,74.2s-2.5,50-7.5,74.2
		c-4.8,23.6-12,46.8-21.4,69c-9.2,21.8-20.6,42.8-33.9,62.5c-13.2,19.5-28.3,37.8-45,54.5s-35,31.8-54.5,45
		C698,830.6,677,842,655.2,851.2c-22.2,9.4-45.4,16.6-69,21.4c-48.5,9.9-99.9,9.9-148.4,0c-23.6-4.8-46.8-12-69-21.4
		c-21.8-9.2-42.8-20.6-62.5-33.9c-19.5-13.2-37.8-28.3-54.5-45c-1.4-1.4-2.8-2.8-4.1-4.2H336c17.7,0,32-14.3,32-32s-14.3-32-32-32
		H176c-17.7,0-32,14.3-32,32v160c0,17.7,14.3,32,32,32s32-14.3,32-32V819c19.2,19,40.1,36.2,62.4,51.3c23.1,15.6,47.8,29,73.4,39.8
		c26.1,11,53.4,19.5,81.1,25.2c28.5,5.8,57.7,8.8,87,8.8s58.6-3,87-8.8c27.8-5.7,55-14.2,81.1-25.2c25.6-10.8,50.3-24.2,73.4-39.8
		c22.9-15.5,44.4-33.2,63.9-52.7s37.3-41,52.7-63.9c15.6-23.1,29-47.8,39.8-73.4c11-26.1,19.5-53.4,25.2-81.1
		c5.8-28.5,8.8-57.7,8.8-87C944,482.7,941,453.4,935.2,425z"/>
</g>
</svg>
