<?xml version="1.0" encoding="utf-8"?>
<!-- Generator: Adobe Illustrator 21.0.0, SVG Export Plug-In . SVG Version: 6.00 Build 0)  -->
<svg version="1.1" id="图层_1" xmlns="http://www.w3.org/2000/svg" xmlns:xlink="http://www.w3.org/1999/xlink" x="0px" y="0px"
	 viewBox="0 0 1024 1024" style="enable-background:new 0 0 1024 1024;" xml:space="preserve">
<path d="M512,64C264.6,64,64,264.6,64,512s200.6,448,448,448s448-200.6,448-448S759.4,64,512,64z M665.6,659.2
	c-6.3,8.4-15.9,12.8-25.6,12.8c-6.7,0-13.4-2.1-19.2-6.4l-128-96c-8.1-6-12.8-15.5-12.8-25.6V320c0-17.7,14.3-32,32-32
	s32,14.3,32,32v208l115.2,86.4C673.3,625,676.2,645.1,665.6,659.2z"/>
</svg>
