<?xml version="1.0" encoding="utf-8"?>
<!-- Generator: Adobe Illustrator 21.0.0, SVG Export Plug-In . SVG Version: 6.00 Build 0)  -->
<svg version="1.1" id="图层_1" xmlns="http://www.w3.org/2000/svg" xmlns:xlink="http://www.w3.org/1999/xlink" x="0px" y="0px"
	 viewBox="0 0 1024 1024" style="enable-background:new 0 0 1024 1024;" xml:space="preserve">
<path d="M872,441.9c-15.4-36.2-37.3-68.7-65.3-96.6s-60.4-49.9-96.6-65.3c-37.5-15.9-77.2-24-118.1-24H237.3l105.4-105.4
	c12.5-12.5,12.5-32.8,0-45.3s-32.8-12.5-45.3,0l-160,160c-12.5,12.5-12.5,32.8,0,45.3l160,160c6.2,6.2,14.4,9.4,22.6,9.4
	s16.4-3.1,22.6-9.4c12.5-12.5,12.5-32.8,0-45.3L237.3,320H592c63.8,0,124,25,169.5,70.5S832,496.2,832,560s-25,124-70.5,169.5
	S655.8,800,592,800H384c-17.7,0-32,14.3-32,32s14.3,32,32,32h208c40.9,0,80.6-8.1,118.1-24c36.2-15.4,68.7-37.3,96.6-65.3
	s49.9-60.4,65.3-96.6c15.9-37.5,24-77.2,24-118.1S887.9,479.4,872,441.9z"/>
</svg>
