<?xml version="1.0" encoding="utf-8"?>
<!-- Generator: Adobe Illustrator 21.0.0, SVG Export Plug-In . SVG Version: 6.00 Build 0)  -->
<svg version="1.1" id="图层_1" xmlns="http://www.w3.org/2000/svg" xmlns:xlink="http://www.w3.org/1999/xlink" x="0px" y="0px"
	 viewBox="0 0 1024 1024" style="enable-background:new 0 0 1024 1024;" xml:space="preserve">
<g id="图层_44_x5F_复制_7">
	<path d="M768,416h-64H352v-96c0-42.5,16.7-82.6,47-113s70.4-47,113-47c37.9,0,74.7,13.6,103.6,38.4c28.7,24.5,47.9,58.2,54.1,95
		c3,17.4,19.5,29.2,36.9,26.2s29.2-19.5,26.2-36.9c-8.7-51.5-35.6-98.7-75.7-132.9C616.7,115.1,565.1,96,512,96
		c-59.6,0-115.8,23.4-158.2,65.8S288,260.4,288,320v96h-32c-70.4,0-128,57.6-128,128v256c0,70.4,57.6,128,128,128h512
		c70.4,0,128-57.6,128-128V544C896,473.6,838.4,416,768,416z M544,659.8V736c0,17.6-14.4,32-32,32s-32-14.4-32-32v-76.2
		c-9.8-8.8-16-21.6-16-35.8c0-26.5,21.5-48,48-48s48,21.5,48,48C560,638.2,553.8,651,544,659.8z"/>
</g>
</svg>
