<?xml version="1.0" encoding="utf-8"?>
<!-- Generator: Adobe Illustrator 21.0.0, SVG Export Plug-In . SVG Version: 6.00 Build 0)  -->
<svg version="1.1" id="图层_1" xmlns="http://www.w3.org/2000/svg" xmlns:xlink="http://www.w3.org/1999/xlink" x="0px" y="0px"
	 viewBox="0 0 1024 1024" style="enable-background:new 0 0 1024 1024;" xml:space="preserve">
<g id="图层_57">
	<g>
		<path d="M512,64C264.6,64,64,264.6,64,512s200.6,448,448,448s448-200.6,448-448S759.4,64,512,64z M288,416c0-26.5,21.5-48,48-48
			s48,21.5,48,48s-21.5,48-48,48S288,442.5,288,416z M672,624c0,17.6-14.4,32-32,32H384c-17.6,0-32-14.4-32-32l0,0
			c0-17.6,14.4-32,32-32h256C657.6,592,672,606.4,672,624L672,624z M688,464c-26.5,0-48-21.5-48-48s21.5-48,48-48s48,21.5,48,48
			S714.5,464,688,464z"/>
	</g>
</g>
</svg>
