<?xml version="1.0" encoding="utf-8"?>
<!-- Generator: Adobe Illustrator 21.0.0, SVG Export Plug-In . SVG Version: 6.00 Build 0)  -->
<svg version="1.1" id="图层_1" xmlns="http://www.w3.org/2000/svg" xmlns:xlink="http://www.w3.org/1999/xlink" x="0px" y="0px"
	 viewBox="0 0 1024 1024" style="enable-background:new 0 0 1024 1024;" xml:space="preserve">
<g>
	<path d="M512,64C264.6,64,64,264.6,64,512s200.6,448,448,448s448-200.6,448-448S759.4,64,512,64z M783.6,783.7
		c-35.3,35.3-76.4,63-122.1,82.3c-47.3,20-97.6,30.2-149.5,30.2S409.8,886.1,362.5,866c-45.7-19.3-86.8-47-122.1-82.3
		c-35.3-35.3-63-76.4-82.3-122.1c-20-47.3-30.2-97.6-30.2-149.5s10.1-102.2,30.2-149.5c19.3-45.7,47-86.8,82.3-122.1
		c35.3-35.3,76.4-63,122.1-82.3C409.8,138.1,460.1,128,512,128c51.9,0,102.2,10.1,149.5,30.2c45.7,19.3,86.8,47,122.1,82.3
		s63,76.4,82.3,122.1c20,47.3,30.2,97.6,30.2,149.5S886,614.3,865.9,661.6C846.6,707.3,818.9,748.4,783.6,783.7z"/>
	<circle cx="336" cy="416" r="48"/>
	<circle cx="688" cy="416" r="48"/>
	<path d="M640,592H384c-17.6,0-32,14.4-32,32s14.4,32,32,32h256c17.6,0,32-14.4,32-32S657.6,592,640,592z"/>
</g>
</svg>
