<?xml version="1.0" encoding="utf-8"?>
<!-- Generator: Adobe Illustrator 21.0.0, SVG Export Plug-In . SVG Version: 6.00 Build 0)  -->
<svg version="1.1" id="图层_1" xmlns="http://www.w3.org/2000/svg" xmlns:xlink="http://www.w3.org/1999/xlink" x="0px" y="0px"
	 viewBox="0 0 1024 1024" style="enable-background:new 0 0 1024 1024;" xml:space="preserve">
<g id="图层_63">
	<g>
		<path d="M512,64C264.6,64,64,264.6,64,512s200.6,448,448,448s448-200.6,448-448S759.4,64,512,64z M694.6,598.6
			c-6.2,6.2-14.4,9.4-22.6,9.4s-16.4-3.1-22.6-9.4L512,461.3L374.6,598.6c-12.5,12.5-32.8,12.5-45.3,0s-12.5-32.8,0-45.3l160-160
			c12.5-12.5,32.8-12.5,45.3,0l160,160C707.1,565.9,707.1,586.1,694.6,598.6z"/>
	</g>
</g>
</svg>
