<?xml version="1.0" encoding="utf-8"?>
<!-- Generator: Adobe Illustrator 21.0.0, SVG Export Plug-In . SVG Version: 6.00 Build 0)  -->
<svg version="1.1" id="图层_1" xmlns="http://www.w3.org/2000/svg" xmlns:xlink="http://www.w3.org/1999/xlink" x="0px" y="0px"
	 viewBox="0 0 1024 1024" style="enable-background:new 0 0 1024 1024;" xml:space="preserve">
<g>
	<path d="M896,576c-17.7,0-32,14.3-32,32v137.8c0,22.9-9,44.5-25.3,60.8s-38,25.4-60.9,25.4H246.2c-22.9,0-44.5-9-60.8-25.3
		c-16.4-16.4-25.4-38-25.4-60.9V608c0-17.7-14.3-32-32-32s-32,14.3-32,32v137.8C96,828.6,163.4,896,246.2,896h531.7
		c82.8,0,150.2-67.4,150.2-150.2V608C928,590.3,913.7,576,896,576z"/>
	<path d="M422.6,294.6l57.4-57.4v402.7c0,17.6,14.4,32,32,32s32-14.4,32-32V237.2l57.4,57.4c12.5,12.5,32.8,12.5,45.3,0
		s12.5-32.8,0-45.3l-112-112c-12.5-12.5-32.8-12.5-45.3,0l-112,112c-6.2,6.2-9.4,14.4-9.4,22.6c0,8.2,3.1,16.4,9.4,22.6
		C389.9,307.1,410.1,307.1,422.6,294.6z"/>
</g>
</svg>
