<?xml version="1.0" encoding="utf-8"?>
<!-- Generator: Adobe Illustrator 21.0.0, SVG Export Plug-In . SVG Version: 6.00 Build 0)  -->
<svg version="1.1" id="图层_1" xmlns="http://www.w3.org/2000/svg" xmlns:xlink="http://www.w3.org/1999/xlink" x="0px" y="0px"
	 viewBox="0 0 1024 1024" style="enable-background:new 0 0 1024 1024;" xml:space="preserve">
<g id="图层_48">
	<path d="M865.8,746.5c-19.3-45.7-47-86.8-82.3-122c-35.3-35.3-76.3-62.9-122-82.3c-4.4-1.9-8.9-3.7-13.4-5.4
		C720.1,491.5,768,411.4,768,320c0-141.4-114.6-256-256-256S256,178.6,256,320c0,91.4,47.9,171.5,119.9,216.8
		c-4.5,1.7-8.9,3.5-13.4,5.4c-45.7,19.3-86.8,47-122,82.3c-35.3,35.3-62.9,76.3-82.3,122c-20,47.4-30.2,97.7-30.2,149.5
		c0,17.7,14.3,32,32,32s32-14.3,32-32c0-85.5,33.3-165.8,93.7-226.3C346.2,609.3,426.5,576,512,576s165.8,33.3,226.3,93.7
		C798.7,730.2,832,810.5,832,896c0,17.7,14.3,32,32,32s32-14.3,32-32C896,844.2,885.8,793.9,865.8,746.5z M376.2,455.8
		C340,419.5,320,371.3,320,320s20-99.5,56.2-135.8C412.5,148,460.7,128,512,128s99.5,20,135.8,56.2C684,220.5,704,268.7,704,320
		s-20,99.5-56.2,135.8C611.5,492,563.3,512,512,512S412.5,492,376.2,455.8z"/>
</g>
</svg>
