<?xml version="1.0" encoding="utf-8"?>
<!-- Generator: Adobe Illustrator 21.0.0, SVG Export Plug-In . SVG Version: 6.00 Build 0)  -->
<svg version="1.1" id="图层_1" xmlns="http://www.w3.org/2000/svg" xmlns:xlink="http://www.w3.org/1999/xlink" x="0px" y="0px"
	 viewBox="0 0 1024 1024" style="enable-background:new 0 0 1024 1024;" xml:space="preserve">
<g id="图层_43">
	<g>
		<path d="M928.5,359L781.6,138.7C763.8,112,733.9,96,701.7,96H322.3c-32.2,0-62,16-79.9,42.7L95.5,359c-11.5,17.2-17,37.2-16,57.8
			c1,20.6,8.4,40,21.4,56L437.5,887c18.3,22.5,45.5,35.5,74.5,35.5s56.2-12.9,74.5-35.5l336.6-414.3l0,0c13-16,20.4-35.4,21.4-56
			C945.4,396.2,939.9,376.2,928.5,359z M873.4,432.4L873.4,432.4L536.8,846.7c-6.1,7.5-15.2,11.8-24.8,11.8s-18.7-4.3-24.8-11.8
			L150.6,432.4c-8.9-10.9-9.6-26.2-1.8-37.9l146.8-220.3c5.9-8.9,15.9-14.2,26.6-14.2h379.5c10.7,0,20.7,5.3,26.6,14.2l146.8,220.3
			C883,406.2,882.3,421.5,873.4,432.4z"/>
		<path d="M660,455c-13.8-11-33.9-8.8-45,5L512,588.8L409,460c-11-13.8-31.2-16-45-5s-16,31.2-5,45l128,160c6.1,7.6,15.3,12,25,12
			s18.9-4.4,25-12l128-160C676,486.2,673.8,466.1,660,455z"/>
	</g>
</g>
</svg>
