<?xml version="1.0" encoding="utf-8"?>
<!-- Generator: Adobe Illustrator 21.0.0, SVG Export Plug-In . SVG Version: 6.00 Build 0)  -->
<svg version="1.1" id="图层_1" xmlns="http://www.w3.org/2000/svg" xmlns:xlink="http://www.w3.org/1999/xlink" x="0px" y="0px"
	 viewBox="0 0 1024 1024" style="enable-background:new 0 0 1024 1024;" xml:space="preserve">
<path d="M512,64C264.6,64,64,264.6,64,512s200.6,448,448,448s448-200.6,448-448S759.4,64,512,64z M480,320c0-17.6,14.4-32,32-32
	s32,14.4,32,32v224c0,17.6-14.4,32-32,32s-32-14.4-32-32V320z M512,736c-26.5,0-48-21.5-48-48s21.5-48,48-48s48,21.5,48,48
	S538.5,736,512,736z"/>
</svg>
